<?xml version="1.0" encoding="UTF-8"?>
<!DOCTYPE svg PUBLIC "-//W3C//DTD SVG 1.1//EN" "http://www.w3.org/Graphics/SVG/1.1/DTD/svg11.dtd">
<svg xmlns="http://www.w3.org/2000/svg" xmlns:xlink="http://www.w3.org/1999/xlink">
	<defs>
		<clipPath id="icon-01-a">
			<path fill="#fff" d="M0 0h86v121H0z"/>
		</clipPath>

		<clipPath id="icon-02-a">
			<path fill="#fff" d="M0 0h136v116H0z"/>
		</clipPath>

		<clipPath id="icon-03-a">
			<path fill="#fff" d="M0 0h203v76H0z"/>
		</clipPath>

		<clipPath id="icon-04-a">
			<path fill="#fff" d="M0 0h82v121H0z"/>
		</clipPath>

		<clipPath id="icon-06-a">
			<path fill="#fff" d="M0 0h199v93H0z"/>
		</clipPath>

		<clipPath id="menu-nav-a">
			<path d="M0 0h172v172H0z"/>
		</clipPath>

		<clipPath id="phone-a">
			<path fill="#fff" d="M0 0h24v24H0z"/>
		</clipPath>
	</defs>
<symbol id="close-nav" viewBox="0 0 60.963 60.842">
	<path d="M59.595 52.861 37.094 30.359 59.473 7.98a4.676 4.676 0 0 0-6.611-6.611L30.483 23.748 8.105 1.369A4.676 4.676 0 0 0 1.494 7.98l22.378 22.379L1.369 52.861a4.674 4.674 0 0 0 3.306 7.98 4.66 4.66 0 0 0 3.306-1.369L30.483 36.97l22.501 22.502c.913.913 2.109 1.369 3.306 1.369s2.393-.456 3.306-1.369a4.677 4.677 0 0 0-.001-6.611z"/>
</symbol>
<symbol id="icon-01" viewBox="0 0 86 121">
	<g clip-path="url(#icon-01-a)">
		<path fill="#fff" d="M75.63 7.94a23.93 23.93 0 0 0-12.79-4.13c-4.539 0-8.41 1.624-11.82 3.066-2.789 1.144-5.44 2.288-8.066 2.288-2.627 0-5.231-1.144-8.066-2.288-3.456-1.442-7.27-3.066-11.81-3.066A23.873 23.873 0 0 0 10.29 7.94c-11.522 7.185-5.208 26.2-.634 40.044.427 1.304.841 2.562 1.233 3.786h64.05a349.55 349.55 0 0 1 1.245-3.798C80.838 34.14 87.095 15.125 75.63 7.94Z"/>
		<path fill="#C7D2E3" d="M77.67 4.725A27.568 27.568 0 0 0 62.84.057c-5.322 0-9.758 1.865-13.307 3.364C46.987 4.485 44.797 5.41 43 5.41c-1.797 0-3.998-.926-6.533-1.99C32.907 1.922 28.482.057 23.159.057A27.567 27.567 0 0 0 8.32 4.782c-14 8.764-7.19 29.404-2.235 44.472.3.892.576 1.75.852 2.608h-.38V76.93h30.2v5.4H15.508v6.35h21.246v4.44h-16.13v6.35h16.13v4.45h-9.713v6.349h9.713v4.44h-2.938v6.349h18.331v-6.349h-2.926v-4.44h9.701v-6.349h-9.701v-4.45h16.073v-6.35H49.233v-4.44h21.258v-6.35H49.233v-5.4h30.211V51.805h-.392c.277-.858.565-1.716.853-2.609C84.87 34.13 91.669 13.49 77.67 4.726Zm-1.406 43.282a347.382 347.382 0 0 0-1.244 3.798H10.969c-.392-1.224-.807-2.483-1.233-3.787-4.609-13.878-10.83-32.893.634-40.044a23.873 23.873 0 0 1 12.79-4.13c4.539 0 8.399 1.625 11.81 3.066C37.768 8.055 40.42 9.2 43.034 9.2c2.615 0 5.23-1.144 8.065-2.289 3.456-1.441 7.282-3.066 11.822-3.066a23.93 23.93 0 0 1 12.789 4.13c11.384 7.151 5.127 26.166.553 40.032Z"/>
	</g>

</symbol>
<symbol id="icon-02" viewBox="0 0 136 116">
	<g fill="#C7D2E3" clip-path="url(#icon-02-a)">
		<path d="M135.411 44.142h-.233a.834.834 0 0 0-.795.577s-1.796 5.727-5.771 5.727c-2.618 0-9.595-6.359-14.255-10.562-3.77-3.406-5.634-5.068-6.593-5.301a2.614 2.614 0 0 0-.713-.096c-2.399 0-3.975 3.117-4.044 3.255a.84.84 0 0 0 .357 1.112.9.9 0 0 0 .37.083.83.83 0 0 0 .74-.453s1.22-2.349 2.604-2.349h.288a44.407 44.407 0 0 1 5.881 4.93c6.853 6.222 12.336 10.988 15.365 10.988 5.195 0 7.265-6.592 7.347-6.867a.809.809 0 0 0-.548-1.044ZM1.631 44.678A.824.824 0 0 0 .85 44.1a.78.78 0 0 0-.247 0 .823.823 0 0 0-.548 1.016c.096.289 2.152 6.867 7.347 6.867 3.015 0 8.512-4.752 15.365-10.987a45.15 45.15 0 0 1 5.894-4.93.876.876 0 0 1 .274 0c1.371 0 2.605 2.32 2.618 2.348a.796.796 0 0 0 .727.453.905.905 0 0 0 .37-.082.851.851 0 0 0 .37-1.113c-.082-.137-1.659-3.255-4.112-3.255a2.449 2.449 0 0 0-.7.096c-.972.234-2.823 1.896-6.592 5.302-4.633 4.202-11.637 10.561-14.27 10.561-3.947.028-5.715-5.63-5.715-5.7Z"/>
		<path d="M112.191 42.164c-1.631-1.47-4.249-3.859-5.181-4.49a4.568 4.568 0 0 0-1.179 1.373 2.345 2.345 0 0 1-3.139 1.043 2.376 2.376 0 0 1-1.042-3.172c.357-.673 2.248-4.12 5.401-4.12.365.004.728.05 1.083.137 1.302.33 2.878 1.703 7.237 5.658l2.042 1.84c4.332 1.113 10.404 3.393 11.213 2.308 1.233-1.634-9.842-16.838-9.842-21.769 0-4.93 14.351-5.754 15.585-7.403 1.234-1.648-8.608-4.93-10.253-6.152-1.645-1.223 2.467-6.167-1.631-7.403-4.098-1.236-10.253 5.754-23.384 19.722C88.286 31.246 72.126 34.006 68 34.006c-4.126 0-20.3-2.747-31.115-14.27C23.768 5.768 17.613-1.222 13.515.014c-4.098 1.236 0 6.166-1.645 7.403C10.225 8.653.397 11.92 1.617 13.569c1.22 1.649 15.585 2.473 15.585 7.403S6.127 41.107 7.361 42.742c.808 1.084 6.853-1.196 11.226-2.308l2.042-1.84c4.359-3.956 5.921-5.33 7.223-5.66a4.874 4.874 0 0 1 1.083-.136c3.153 0 5.058 3.406 5.415 4.12a2.367 2.367 0 0 1-1.056 3.159 2.506 2.506 0 0 1-1.042.233 2.313 2.313 0 0 1-2.083-1.29 4.378 4.378 0 0 0-1.165-1.374c-.932.632-3.564 3.008-5.223 4.518-1.37 1.278-2.74 2.472-3.988 3.571-3.427 4.368-8.224 9.916-7.498 11.482 1.234 2.472 9.43-.412 11.075 3.296 1.645 3.709-4.51 16.015-3.687 18.487.082.257.258.473.494.604l1-.082a20.077 20.077 0 0 0 3.262-.454c2.454-.782 16.791-14.86 18.272-17.456a9.912 9.912 0 0 0-3.002-3.667 2.35 2.35 0 0 1-.343-3.296 2.356 2.356 0 0 1 3.304-.344c1.288 1.058 5.482 4.766 4.633 8.35-.617 2.748-13.022 15.109-19.08 19.462.15 3.214-1.124 7.788.89 8.79 2.454 1.237 6.141-2.458 8.608-.412 2.468 2.047 3.276 11.098 7.375 13.158 4.098 2.06 8.621-5.343 12.72-3.708 1.946.782 6.264 6.867 10.527 6.867 4.03 0 8.018-6.139 9.869-6.867 4.112-1.635 8.608 5.754 12.706 3.708 4.098-2.047 4.92-11.098 7.388-13.158 2.467-2.06 6.141 1.648 8.608.412 2.015-1.002.74-5.576.877-8.79-6.099-4.298-18.436-16.645-19.094-19.434-.795-3.598 3.345-7.306 4.647-8.35.413-.34.932-.525 1.467-.522a2.328 2.328 0 0 1 1.823.865 2.352 2.352 0 0 1-.343 3.296 10.216 10.216 0 0 0-3.002 3.668c1.48 2.595 15.818 16.673 18.272 17.442 1.08.252 2.181.408 3.289.467l.973.082a1.009 1.009 0 0 0 .508-.604c.822-2.472-5.332-14.792-3.688-18.486 1.645-3.695 9.842-.824 11.062-3.296.781-1.566-4.112-7.115-7.484-11.468a426.502 426.502 0 0 1-4.03-3.613Z"/>
		<path d="M114.713 81.115a21.67 21.67 0 0 1-3.55-.495c-2.947-.81-18.93-16.7-19.382-18.568-.329-1.484 2.248-4.12 3.55-5.206a.824.824 0 1 0-1.027-1.277c-.494.398-4.757 3.97-4.112 6.867.644 2.898 17.325 18.912 20.56 19.791 1.26.299 2.545.487 3.838.563.78.03 1.555.131 2.316.303-.49.512-1.032.972-1.617 1.373a7.611 7.611 0 0 0-2.92 3.241 9.916 9.916 0 0 0 0 3.324c.096 1.154.247 2.747-.219 3.118-2.193 1.758-13.707 10.754-23.302 14.943-6.428 2.746-14.721 5.274-20.752 5.274-6.031 0-14.338-2.486-20.752-5.274-9.677-4.189-21.123-13.185-23.302-14.943-.452-.371-.315-1.964-.206-3.118a9.879 9.879 0 0 0-.068-3.324 7.48 7.48 0 0 0-2.906-3.241 10.519 10.519 0 0 1-1.631-1.373c.761-.17 1.537-.272 2.316-.303a21.896 21.896 0 0 0 3.838-.563c3.221-.879 19.916-16.975 20.56-19.79.645-2.816-3.632-6.442-4.111-6.868a.793.793 0 0 0-1.152.124.825.825 0 0 0 .11 1.153c1.302 1.058 3.879 3.722 3.55 5.206-.453 1.867-16.448 17.758-19.368 18.568a21.879 21.879 0 0 1-3.55.495c-1.782.15-3.07.26-3.646 1.016a1.373 1.373 0 0 0-.233 1.085c.192.934 1.179 1.703 2.33 2.596s2.125 1.634 2.344 2.39c.134.91.134 1.836 0 2.747-.165 1.785-.33 3.625.822 4.546 2.22 1.785 13.83 10.905 23.686 15.176 5.263 2.28 13.899 5.411 21.41 5.411 7.511 0 16.147-3.131 21.397-5.411 9.868-4.271 21.478-13.39 23.699-15.176 1.151-.92.987-2.747.822-4.546a8.972 8.972 0 0 1 0-2.747c.22-.756 1.371-1.662 2.344-2.39.973-.728 2.125-1.662 2.317-2.596a1.39 1.39 0 0 0-.233-1.085c-.699-.81-2.002-.92-3.77-1.016Z"/>
	</g>

</symbol>
<symbol id="icon-03" viewBox="0 0 203 76">
	<g clip-path="url(#icon-03-a)">
		<path fill="#C7D2E3" d="M85.576.268c6.046-.241 11.6 5.492 13.06 18.658 1.462 13.167 2.538 17.922-1.46 19.382-4 1.46-19.585 2.934-22.494-.362-2.91-3.295-3.986-18.296-1.807-25.61C75.054 5.023 79.518.522 85.576.268ZM70.151 15.283S61.077 1.193 56.546 3.027c-4.53 1.835-7.972 20.293-6.643 24.11 1.329 3.817 4.53 7.501 7.799 8.037 3.268.536 11.785-.362 11.785-.362a41.566 41.566 0 0 1-.904-9.885 53.624 53.624 0 0 1 1.568-9.644ZM48.202 14.185S38.583-1.366 34.916.094c-3.667 1.46-3.268 16.288-1.634 23.052 1.634 6.764 2.365 11.88 5.806 12.255s9.433-5.13 9.433-5.13a48.506 48.506 0 0 1-1.09-8.224 61.62 61.62 0 0 1 .771-7.862ZM30.067 13.662S22.254 3.603 20.26 4.876c-1.992 1.272-.717 12.443 1.33 16.461 2.045 4.019 2.656 8.787 5.314 9.376 1.697.291 3.438.163 5.075-.375a47.19 47.19 0 0 1-1.993-8.036 51.056 51.056 0 0 1 .08-8.64ZM18.6 19.301c-1.992-4.205-5.433-13.528-6.523-13.166-1.09.361.718 13.394 1.448 17.56.731 4.165 1.09 5.478 3.083 5.853s4.716 0 5.075-.55c.359-.548-3.082-9.697-3.082-9.697ZM6.298 6.322c-1.635.911-1.993 7.863-.731 12.243s3.813 7.139 5.088 6.59c1.276-.55.545-7.689-.371-11.52a19.764 19.764 0 0 0-3.986-7.313ZM98.092 46.733c2.179 1.835.173 23.039-4.172 25.61-4.344 2.572-5.088 1.34-7.799-2.384-2.71-3.724-7.812-21.43-4.172-23.038 3.64-1.608 16.143-.188 16.143-.188ZM61.263 44.724c2.657-1.835 14.88-.188 16.515 2.197 1.634 2.384 0 20.292-3.64 24.498-3.641 4.206-7.07 4.943-9.607.737-2.538-4.206-5.992-25.61-3.268-27.432ZM42.396 41.79c3.441-1.82 13.964 2.197 15.24 4.22 1.275 2.023 1.448 12.792.358 16.073-1.09 3.282-7.44 13.904-10.881 13.904s-5.315-10.796-5.447-18.11c-.133-7.313-2.71-14.251.73-16.086ZM29.336 41.067c2.179-.736 7.799.911 8.702 2.371.904 1.46.545 3.657.28 7.782-.266 4.126 1.262 5.479 1.089 6.577-.173 1.098-8.264 8.867-10.63 8.505-2.364-.361-4.17-7.675-3.267-14.077.903-6.403 1.647-10.434 3.826-11.158ZM16.276 39.969c-2.658 1.098-5.315 3.47-6.165 10.796-.85 7.327-.917 14.627 1.09 14.734 2.005.107 4.171-3.737 6.881-5.572 2.1-1.407 4.544-1.46 5.315-2.68.77-1.218-.359-6.12.452-8.96.81-2.84 2.816-6.403 2.272-7.126-.545-.723-9.845-1.192-9.845-1.192Z"/>
		<path fill="#C7D2E3" d="M7.028 35.401c-2.55.362-5.992 8.037-6.895 14.266-.904 6.228 2.99 8.68 5.314 7.393 2.325-1.285 1.329-5.358 3.548-11.144.996-2.531 4.982-6.496 4.716-7.594-.265-1.099-4.145-3.229-6.683-2.92ZM117.41.268c-6.045-.241-11.599 5.492-13.06 18.658-1.462 13.167-2.538 17.922 1.461 19.382 4 1.46 19.584 2.934 22.494-.362 2.91-3.295 3.986-18.296 1.807-25.61C127.933 5.023 123.455.522 117.41.268ZM132.862 15.283s9.075-14.09 13.605-12.256c4.531 1.835 7.972 20.293 6.643 24.11-1.328 3.817-4.53 7.501-7.799 8.037-3.268.536-11.785-.362-11.785-.362.688-3.247.991-6.566.904-9.885a54.9 54.9 0 0 0-1.568-9.644ZM154.784 14.185s9.62-15.551 13.287-14.091c3.667 1.46 3.255 16.288 1.634 23.052-1.621 6.764-2.365 11.88-5.806 12.255s-9.433-5.13-9.433-5.13a48.566 48.566 0 0 0 1.089-8.224 61.493 61.493 0 0 0-.771-7.862ZM172.92 13.662s7.812-10.059 9.805-8.786c1.993 1.272.718 12.443-1.328 16.461-2.046 4.019-2.724 8.787-5.315 9.376a10.546 10.546 0 0 1-5.075-.375A47.238 47.238 0 0 0 173 22.302a52.69 52.69 0 0 0-.08-8.64ZM184.346 19.301c2.006-4.205 5.447-13.528 6.537-13.166 1.089.361-.731 13.394-1.448 17.56-.718 4.165-1.09 5.478-3.083 5.853s-4.716 0-5.088-.55c-.372-.548 3.082-9.697 3.082-9.697ZM196.636 6.322c1.634.911 1.993 7.863.731 12.243-1.263 4.38-3.814 7.139-5.089 6.59-1.275-.55-.545-7.689.372-11.52a19.766 19.766 0 0 1 3.986-7.313ZM104.961 46.733c-2.179 1.835-.173 23.039 4.172 25.61 4.345 2.572 5.089 1.34 7.799-2.384s7.799-21.43 4.172-23.038c-3.627-1.608-16.143-.188-16.143-.188ZM141.724 44.724c-2.657-1.835-14.881-.188-16.515 2.197-1.634 2.384 0 20.292 3.627 24.498 3.627 4.206 7.082 4.943 9.62.737 2.537-4.206 5.992-25.61 3.268-27.432ZM160.59 41.79c-3.454-1.82-13.963 2.197-15.239 4.22-1.275 2.023-1.448 12.792-.359 16.073 1.09 3.282 7.441 13.904 10.882 13.904s5.314-10.796 5.447-18.11c.133-7.313 2.711-14.251-.731-16.086ZM173.651 41.067c-2.179-.736-7.799.911-8.703 2.371-.903 1.46-.544 3.657-.279 7.782.266 4.126-1.328 5.479-1.089 6.577.239 1.098 8.251 8.867 10.629 8.505 2.378-.361 4.172-7.675 3.268-14.077-.903-6.403-1.647-10.434-3.826-11.158ZM186.711 39.969c2.724 1.098 5.315 3.47 6.165 10.796.85 7.327.917 14.627-1.09 14.734-2.006.107-4.171-3.737-6.882-5.572-2.099-1.407-4.544-1.46-5.314-2.68-.771-1.218.358-6.12-.465-8.96-.824-2.84-2.804-6.403-2.259-7.126.545-.723 9.845-1.192 9.845-1.192Z"/>
		<path fill="#C7D2E3" d="M195.958 35.401c2.551.362 5.992 8.037 6.896 14.266.903 6.228-2.99 8.68-5.315 7.393-2.325-1.285-1.328-5.358-3.547-11.144-.996-2.531-4.982-6.496-4.717-7.594.266-1.099 4.146-3.229 6.683-2.92Z"/>
		<path fill="#fff" d="m194.045 19.328 3.189-.576-.465-2.598-3.189.576.213 1.165c-1.077.2-2.565.482-4.425.804l-.159-1.112-4.172.63.186 1.192c-1.515.254-3.189.509-4.996.79l-.172-2.143-5.78.509.213 2.478c-2.48.348-5.138.7-7.972 1.058l-.372-2.572-7.068 1.018.345 2.384c-3.494.389-7.188.764-11.054 1.125l-.159-2.812-8.411.468.16 3.041c-5.567.415-11.413.777-17.498 1.031V22.53h-9.752v3.577a410 410 0 0 1-11.586.134c-3.986 0-7.799 0-11.599-.134v-3.577h-9.805v3.188a516.276 516.276 0 0 1-16.528-1.004l.173-3.309-8.41-.468-.173 3.053a629.822 629.822 0 0 1-11.067-1.165l.372-2.585-7.082-1.018-.385 2.679c-2.83-.362-5.5-.737-7.972-1.098l.226-2.585-5.78-.51-.186 2.197c-1.806-.281-3.467-.562-4.982-.817l.186-1.219-4.172-.63-.16 1.099c-1.846-.348-3.32-.63-4.41-.857l.2-1.099-3.203-.576-.452 2.68 3.189.575.12-.723c1.102.228 2.59.509 4.437.857l-.226 1.527 4.172.616.2-1.34 5.035.845-.16 1.714 5.78.51.12-1.34c2.458.361 5.115.736 7.971 1.098l-.319 2.264 7.069 1.018.345-2.398c3.508.402 7.228.804 11.134 1.166l-.173 3.04 8.424.469.146-2.786c5.314.415 10.815.763 16.581 1.018v3.924h9.739v-3.59c3.8.099 7.666.148 11.599.148 3.986 0 7.785 0 11.585-.147v3.59h9.752v-3.912a538.452 538.452 0 0 0 17.538-1.031l.173 3.04 8.41-.468-.173-3.269c3.893-.348 7.613-.736 11.121-1.125l.372 2.599 7.068-1.018-.345-2.411a572.32 572.32 0 0 0 7.972-1.058l.132 1.446 5.767-.509-.147-1.781c1.821-.268 3.495-.55 5.023-.79l.212 1.42 4.172-.63-.226-1.5c1.86-.322 3.362-.603 4.438-.804l.106.59ZM196.636 48.367l4.597-1.58-1.329-3.764-4.597 1.58.452 1.34c-1.488.469-3.72 1.178-6.643 2.009l-.704-2.063-6.391 2.197.558 1.674c-2.338.63-4.929 1.34-7.719 1.956l-.213-1.808-6.643.803.292 2.518a323.316 323.316 0 0 1-10.708 2.17l-.266-2.317-8.45 1.005.319 2.759c-3.401.55-6.936 1.072-10.563 1.527l-.398-3.442-8.464 1.004.399 3.416c-4.225.428-8.57.79-13.021 1.044v-3.402h-9.22v3.804c-2.352 0-4.717.094-7.108.094-2.06 0-4.092 0-6.125-.08v-4.019h-9.088v3.75a294.567 294.567 0 0 1-12.741-.977l.451-3.804-8.463-1.005-.452 3.871a333.925 333.925 0 0 1-10.629-1.486l.372-3.242-8.45-1.005-.332 2.827a370.92 370.92 0 0 1-10.709-2.143l.36-3.054-6.644-.79-.266 2.357c-2.843-.67-5.46-1.34-7.865-1.956l.757-2.223-6.377-2.277-.89 2.679a338.997 338.997 0 0 1-6.643-1.996l.65-1.929-4.596-1.594-1.33 3.764 4.598 1.58.372-1.071c1.62.509 3.853 1.206 6.643 1.996l-.624 1.835 6.39 2.21.758-2.25c2.444.643 5.128 1.34 7.971 1.995l-.265 2.331 6.71.79.185-1.62c3.357.723 6.927 1.433 10.709 2.13l-.386 3.294 8.45 1.005.346-2.88a304.9 304.9 0 0 0 10.563 1.487l-.266 2.25 8.463 1.005.266-2.318c4.172.416 8.463.75 12.834.978v2.947h9.088v-2.585c2.033 0 4.066.067 6.125.067 2.392 0 4.756 0 7.108-.094v2.92h9.221v-3.349c4.473-.267 8.844-.62 13.113-1.058l.319 2.68 8.45-1.005-.305-2.68c3.627-.455 7.161-.977 10.629-1.526l.398 3.362 8.45-1.005-.438-3.804c3.773-.71 7.347-1.433 10.629-2.17l.252 2.17 6.643-.79-.332-2.893c2.857-.683 5.501-1.34 7.892-1.983l.943 2.786 6.391-2.196-.81-2.398c2.896-.844 5.141-1.54 6.643-2.022l.704 1.687Z"/>
	</g>

</symbol>
<symbol id="icon-04" viewBox="0 0 82 121">
	<g clip-path="url(#icon-04-a)">
		<path fill="#C7D2E3" d="M76.178 47.16c4.746-14.438 11.215-34.213-2.13-42.61A26.125 26.125 0 0 0 59.92.022c-5.086 0-9.304 1.787-12.71 3.223-2.405 1.02-4.492 1.907-6.216 1.907-1.725 0-3.812-.887-6.229-1.907C31.383 1.81 27.154.022 22.08.022A26.191 26.191 0 0 0 7.942 4.55c-13.357 8.397-6.865 28.172-2.197 42.61 1.67 5.075 3.109 9.46 3.372 12.31.25 5.281.085 10.574-.494 15.83-.67 8.539-1.373 17.374.55 24.412 3.229 11.828 13.642 20.521 14.081 20.883a1.823 1.823 0 0 0 2.836-.647c.155-.343.2-.726.13-1.096 0-.209-3.998-21.53.956-35.156 4.12-11.324 11.16-17.254 13.764-17.254 2.603 0 9.633 5.93 13.763 17.254 4.954 13.615 1 34.947.956 35.156a1.858 1.858 0 0 0 .868 1.918 1.82 1.82 0 0 0 2.098-.175c.44-.362 10.853-9.055 14.093-20.883 1.911-7.038 1.22-15.873.527-24.424-.45-5.799-.89-11.29-.472-15.818.308-2.872 1.746-7.257 3.405-12.31Z"/>
		<path fill="#fff" d="M57.46 29.093H46.915V18.581h-11.83v10.512H24.54V40.9h10.545v10.523h11.83V40.9H57.46V29.094Z"/>
	</g>

</symbol>
<symbol id="icon-05" viewBox="0 0 121 125">
	<path fill="#E9D0B7" d="M37 50ZM80 57ZM78 59c-.641.348-1.32.674-2 1 .68-.326 1.359-.652 2-1ZM43 57a38.652 38.652 0 0 1-2-2 26.917 26.917 0 0 0 2 2ZM41 55Z"/>
	<path fill="#C7D2E3" d="M60.64 65.999c4.114-.012 8.152-1.19 11.702-3.413.436-.273.862-.557 1.276-.865l.362-.25c.479-.352.947-.717 1.394-1.137l.308-.274c.383-.34.766-.682 1.128-1.046l.319-.307c.425-.432.83-.876 1.234-1.331.106-.114.202-.25.308-.364.33-.398.66-.797.968-1.206l.277-.353c.362-.5.716-1.012 1.064-1.536l.287-.455c.287-.443.553-.898.819-1.365.074-.125.149-.25.213-.375a36.45 36.45 0 0 0 .872-1.706c.085-.171.16-.353.244-.535.235-.5.447-1.013.66-1.536.053-.125.106-.239.149-.352.234-.615.457-1.24.66-1.866.036-.09.068-.18.095-.273.553-2.799-10.01.694-24.466.694-14.456 0-25.317-4.266-24.466-.774v.125l.106.273c.202.637.426 1.263.66 1.866l.127.33c.224.535.447 1.058.681 1.57.085.182.16.352.245.523.276.58.564 1.138.872 1.718l.191.341c.267.478.554.944.84 1.41.097.137.182.285.278.433.34.523.702 1.047 1.063 1.547l.245.319c.319.432.66.841 1 1.24l.287.352c.404.467.82.91 1.255 1.343l.287.295 1.15 1.058.297.262c.458.387.926.762 1.404 1.138.117.09.234.159.34.25.426.296.862.591 1.298.864h.054c3.615 2.25 7.731 3.413 11.914 3.368ZM72.721 18c-.8 2.687-2.478 4.967-4.721 6.417 7.103 4.96 15.11 8.748 20.735 9.46.75.104 1.508.142 2.265.114a72.835 72.835 0 0 0-1.33-10.802A54.698 54.698 0 0 0 72.722 18Z"/>
	<path fill="#C7D2E3" d="M85 14.838C79.774 5.892 70.987 0 61 0c-9.988 0-18.764 5.913-23.968 14.827a69.584 69.584 0 0 1 13.71-3.13 10.915 10.915 0 0 0-.65 3.685c0 1.049.154 2.093.455 3.098-.054.087-.098.184-.14.26-10.822 1.577-16.86 5.055-16.935 5.099l-.184.087A39.062 39.062 0 0 0 32 33.84c.755.184 1.54.21 2.305.076 4.945-.75 11.437-6.936 16.23-15.404a10.968 10.968 0 0 0 3.904 5.612 10.886 10.886 0 0 0 6.455 2.193c2.33.02 4.605-.707 6.493-2.079a10.966 10.966 0 0 0 4-5.54c.336-1.074.507-2.192.51-3.316a11.056 11.056 0 0 0-.65-3.696 73.098 73.098 0 0 1 13.645 3.01l.108.142Zm-24 3.424a2.858 2.858 0 0 1-1.59-.49 2.893 2.893 0 0 1-.423-4.43 2.864 2.864 0 0 1 3.123-.62c.524.218.97.587 1.285 1.06a2.89 2.89 0 0 1-1.295 4.264c-.349.144-.723.218-1.1.216Z"/>
	<path fill="#fff" d="M62 15.011a3.445 3.445 0 0 0-.417-1.67 2.665 2.665 0 0 0-1.12-1.11 2.116 2.116 0 0 0-1.445-.175c-.486.115-.932.4-1.282.819-.351.419-.59.953-.687 1.536a3.56 3.56 0 0 0 .14 1.734 2.95 2.95 0 0 0 .921 1.349c.411.33.895.506 1.39.506.661 0 1.296-.314 1.764-.875.469-.56.733-1.32.736-2.114Z"/>
	<path fill="#C7D2E3" d="M115.22 97.326v-.087l-38.654-9.065-.778-.174-15.322 4.445L45.156 88l-.249.055-39.184 9.184v.087L0 125h121l-5.78-27.674Zm-58.246 8.477L45.245 88.12l11.717 12.311.62-1.383 1.532 1.471-2.14 5.284Zm6.388-6.755.63 1.383 11.785-12.398-11.796 17.77-2.152-5.284 1.533-1.471Z"/>
</symbol>
<symbol id="icon-06" viewBox="0 0 199 93">
	<g clip-path="url(#icon-06-a)">
		<path fill="#fff" d="M153.893 69.086 83.58 79.714 14.593 43.843 2.653 27.9 43.78 17.271l83.58-5.314L197.673 27.9l-43.78 41.186Z"/>
		<path fill="#C7D2E3" d="M98.209 20.776c33.506 0 92.401 6.67 100.777 5.445a154.722 154.722 0 0 1-25.963-11.204C157.992 6.753 144.327-.763 128.544.04c-14.73.694-26.837 10.497-28.45 11.844C98.482 10.524 86.43.735 71.631.041 55.807-.722 42.238 6.848 27.166 15.017A153.464 153.464 0 0 1 .04 26.575c10.754 1.539 64.675-5.8 98.168-5.8ZM191.867 31.599c-6.354 2.546-39.628 39.169-92.196 39.169-52.569 0-84.093-34.921-92.92-38.434 1.462 2.206 24.596 60.652 93.015 60.652 68.42 0 93.768-60.897 93.768-60.897l-1.667-.49Z"/>
		<path fill="#C7D2E3" d="m12.64 38.338 15.564.871 15.933.83c2.91.137 5.917.246 8.978.423 3.06.177 6.163.3 9.278.395l9.265.381c3.06.163 6.067.19 8.991.286l8.404.286c2.733.109 5.193.163 7.53.19 4.673.069 8.567.245 11.287.313 2.719.069 4.29.191 4.29.191l-4.263.34c-2.733.164-6.614.49-11.3.722l-3.65.204H89.04l-8.432.082c-2.924 0-5.957.109-9.032 0l-9.306-.3c-3.115-.122-6.23-.258-9.305-.49-3.075-.231-6.081-.435-8.992-.653-2.91-.218-5.725-.545-8.404-.803a172.483 172.483 0 0 1-7.502-.872c-4.646-.585-8.5-1.211-11.205-1.647-1.366-.204-2.391-.409-3.115-.545l-1.107-.204Z"/>
	</g>

</symbol>
<symbol id="location" viewBox="0 0 16 20">
	<path fill="#838383" d="M8 .833A7.333 7.333 0 0 0 .667 8.167c0 5.701 4.629 5.655 5.738 8.965l.468 1.411c.13.39.505.645.916.624h.514a.917.917 0 0 0 .916-.624l.468-1.411c1.063-3.31 5.646-3.264 5.646-8.965A7.333 7.333 0 0 0 8 .833Zm0 10.084a2.75 2.75 0 1 1 0-5.5 2.75 2.75 0 0 1 0 5.5Z"/>
</symbol>
<symbol id="menu-nav" viewBox="0 0 172 172">
	<g clip-path="url(#menu-nav-a)">
		<path d="M34.4 13.76c-11.358 0-20.64 9.282-20.64 20.64s9.282 20.64 20.64 20.64 20.64-9.282 20.64-20.64-9.282-20.64-20.64-20.64Zm51.6 0c-11.358 0-20.64 9.282-20.64 20.64S74.642 55.04 86 55.04s20.64-9.282 20.64-20.64S97.358 13.76 86 13.76Zm51.6 0c-11.358 0-20.64 9.282-20.64 20.64s9.282 20.64 20.64 20.64 20.64-9.282 20.64-20.64-9.282-20.64-20.64-20.64ZM34.4 20.64c7.64 0 13.76 6.12 13.76 13.76S42.04 48.16 34.4 48.16 20.64 42.04 20.64 34.4s6.12-13.76 13.76-13.76Zm51.6 0c7.64 0 13.76 6.12 13.76 13.76S93.64 48.16 86 48.16 72.24 42.04 72.24 34.4 78.36 20.64 86 20.64Zm51.6 0c7.64 0 13.76 6.12 13.76 13.76s-6.12 13.76-13.76 13.76-13.76-6.12-13.76-13.76 6.12-13.76 13.76-13.76ZM34.4 65.36c-11.358 0-20.64 9.282-20.64 20.64s9.282 20.64 20.64 20.64S55.04 97.358 55.04 86 45.758 65.36 34.4 65.36Zm51.6 0c-11.358 0-20.64 9.282-20.64 20.64s9.282 20.64 20.64 20.64 20.64-9.282 20.64-20.64S97.358 65.36 86 65.36Zm51.6 0c-11.358 0-20.64 9.282-20.64 20.64s9.282 20.64 20.64 20.64 20.64-9.282 20.64-20.64-9.282-20.64-20.64-20.64ZM34.4 72.24c7.64 0 13.76 6.12 13.76 13.76S42.04 99.76 34.4 99.76 20.64 93.64 20.64 86s6.12-13.76 13.76-13.76Zm51.6 0c7.64 0 13.76 6.12 13.76 13.76S93.64 99.76 86 99.76 72.24 93.64 72.24 86 78.36 72.24 86 72.24Zm51.6 0c7.64 0 13.76 6.12 13.76 13.76s-6.12 13.76-13.76 13.76-13.76-6.12-13.76-13.76 6.12-13.76 13.76-13.76ZM34.4 116.96c-11.358 0-20.64 9.282-20.64 20.64s9.282 20.64 20.64 20.64 20.64-9.282 20.64-20.64-9.282-20.64-20.64-20.64Zm51.6 0c-11.358 0-20.64 9.282-20.64 20.64s9.282 20.64 20.64 20.64 20.64-9.282 20.64-20.64-9.282-20.64-20.64-20.64Zm51.6 0c-11.358 0-20.64 9.282-20.64 20.64s9.282 20.64 20.64 20.64 20.64-9.282 20.64-20.64-9.282-20.64-20.64-20.64Zm-103.2 6.88c7.64 0 13.76 6.12 13.76 13.76s-6.12 13.76-13.76 13.76-13.76-6.12-13.76-13.76 6.12-13.76 13.76-13.76Zm51.6 0c7.64 0 13.76 6.12 13.76 13.76S93.64 151.36 86 151.36s-13.76-6.12-13.76-13.76 6.12-13.76 13.76-13.76Zm51.6 0c7.64 0 13.76 6.12 13.76 13.76s-6.12 13.76-13.76 13.76-13.76-6.12-13.76-13.76 6.12-13.76 13.76-13.76Z"/>
	</g>

</symbol>
<symbol id="phone" viewBox="0 0 24 24">
	<g clip-path="url(#phone-a)">
		<path fill="#838383" d="M17 21a10.07 10.07 0 0 1-4.74-1.19l-.45-.25a18 18 0 0 1-7.33-7.33l-.25-.45A10.07 10.07 0 0 1 3 7v-.67a2 2 0 0 1 .59-1.42l1.69-1.69a.75.75 0 0 1 1.18.15l2.25 3.86a1 1 0 0 1-.16 1.21l-1.89 1.89a.5.5 0 0 0-.09.59l.35.66a13.53 13.53 0 0 0 5.5 5.49l.66.36a.5.5 0 0 0 .59-.09l1.89-1.89a1 1 0 0 1 1.21-.16l3.86 2.25a.75.75 0 0 1 .15 1.18l-1.69 1.69a2 2 0 0 1-1.42.59H17Z"/>
	</g>

</symbol>
<symbol id="time" viewBox="0 0 17 17">
	<path fill="#838383" d="M8.5 0a8.5 8.5 0 1 0 0 17 8.5 8.5 0 0 0 0-17Zm0 15.3a6.8 6.8 0 1 1 0-13.6 6.8 6.8 0 0 1 0 13.6Zm.748-7.106V3.825a.425.425 0 0 0-.425-.425h-.646a.425.425 0 0 0-.425.425v4.811a.45.45 0 0 0 .128.298l3.4 3.4a.434.434 0 0 0 .603 0l.45-.451a.434.434 0 0 0 0-.603L9.248 8.194Z"/>
</symbol>
</svg>