<svg width="86" height="121" viewBox="0 0 86 121" fill="none" xmlns="http://www.w3.org/2000/svg">
<g clip-path="url(#clip0_34_138)">
<path d="M75.6302 7.94002C71.8552 5.37182 67.415 3.93791 62.8408 3.80981C58.3012 3.80981 54.4298 5.43445 51.0193 6.87601C48.231 8.02011 45.5809 9.16421 42.9539 9.16421C40.3269 9.16421 37.7229 8.02011 34.8885 6.87601C31.4319 5.43445 27.6182 3.80981 23.0785 3.80981C18.5037 3.93468 14.0626 5.36888 10.2891 7.94002C-1.23287 15.125 5.08119 34.1399 9.65541 47.9835C10.0817 49.2878 10.4965 50.5463 10.8882 51.7705H74.9389C75.3307 50.5463 75.7454 49.2878 76.1832 47.9721C80.8381 34.1399 87.0946 15.125 75.6302 7.94002Z" fill="white"/>
<path d="M77.6696 4.72518C73.2838 1.78108 68.1338 0.159915 62.8408 0.057251C57.5177 0.057251 53.0817 1.92214 49.5329 3.42091C46.9866 4.48492 44.7974 5.41163 43 5.41163C41.2026 5.41163 39.0019 4.48492 36.467 3.42091C32.9067 1.92214 28.4823 0.057251 23.1592 0.057251C17.8564 0.174639 12.7016 1.81592 8.31887 4.78239C-5.68033 13.5462 1.12915 34.1857 6.0836 49.2535C6.38317 50.1459 6.65969 51.004 6.93622 51.8621H6.55601V76.9293H36.7551V82.3295H15.5086V88.6792H36.7551V93.1183H20.6243V99.4681H36.7551V103.919H27.0421V110.268H36.7551V114.708H33.817V121.057H52.1484V114.708H49.2219V110.268H58.9233V103.919H49.2219V99.4681H65.295V93.1183H49.2334V88.6792H70.4914V82.3295H49.2334V76.9293H79.444V51.8049H79.0523C79.3288 50.9468 79.6168 50.0887 79.9049 49.1963C84.8709 34.1285 91.6688 13.489 77.6696 4.72518ZM76.2639 48.0065C75.8261 49.3222 75.4113 50.5807 75.0196 51.8049H10.9689C10.5772 50.5807 10.1624 49.3222 9.73605 48.0179C5.12726 34.14 -1.09459 15.125 10.3698 7.97442C14.1433 5.40329 18.5844 3.96908 23.1592 3.84422C27.6988 3.84422 31.5587 5.46885 34.9692 6.91042C37.769 8.05451 40.4191 9.19862 43.0346 9.19862C45.6501 9.19862 48.2655 8.05451 51.1 6.91042C54.5565 5.46885 58.3818 3.84422 62.9215 3.84422C67.4957 3.97231 71.9359 5.40623 75.7109 7.97442C87.0946 15.125 80.8381 34.14 76.2639 48.0065Z" fill="#C7D2E3"/>
</g>
<defs>
<clipPath id="clip0_34_138">
<rect width="86" height="121" fill="white"/>
</clipPath>
</defs>
</svg>
