<svg width="82" height="121" viewBox="0 0 82 121" fill="none" xmlns="http://www.w3.org/2000/svg">
<g clip-path="url(#clip0_34_208)">
<path d="M76.1782 47.1594C80.9235 32.7223 87.3934 12.9466 74.0471 4.54958C69.8767 1.70789 64.9695 0.135153 59.921 0.0222168C54.8351 0.0222168 50.617 1.80905 47.2118 3.24509C44.8062 4.26456 42.7191 5.15249 40.9945 5.15249C39.2699 5.15249 37.1829 4.26456 34.7663 3.24509C31.383 1.80905 27.1539 0.0222168 22.079 0.0222168C17.0274 0.136799 12.1171 1.7093 7.94187 4.54958C-5.4154 12.9466 1.0765 32.7223 5.74495 47.1594C7.41461 52.2349 8.85359 56.6197 9.11722 59.4698C9.36776 64.7511 9.20248 70.0438 8.62291 75.2992C7.95285 83.8387 7.24983 92.6742 9.17214 99.7119C12.4016 111.54 22.815 120.233 23.2544 120.595C23.5805 120.869 23.9925 121.02 24.4188 121.022C24.7466 121.02 25.0684 120.934 25.3525 120.77C25.6773 120.578 25.9349 120.291 26.0902 119.948C26.2455 119.605 26.2909 119.222 26.2202 118.852C26.2202 118.643 22.2218 97.3221 27.1759 83.6962C31.2951 72.3723 38.3362 66.4418 40.9396 66.4418C43.5429 66.4418 50.5731 72.3723 54.7033 83.6962C59.6573 97.3112 55.7029 118.643 55.659 118.852C55.593 119.222 55.6406 119.603 55.7955 119.945C55.9503 120.287 56.2052 120.575 56.5267 120.77C56.8517 120.961 57.2279 121.047 57.6037 121.015C57.9794 120.984 58.3362 120.837 58.6248 120.595C59.0642 120.233 69.4776 111.54 72.718 99.7119C74.6293 92.6742 73.9373 83.8387 73.2453 75.2882C72.7949 69.4892 72.3555 63.9972 72.7729 59.4698C73.0805 56.5978 74.5195 52.2129 76.1782 47.1594Z" fill="#C7D2E3"/>
<path d="M57.4604 29.0935H46.9152V18.5808H35.0848V29.0935H24.5396V40.8997H35.0848V51.4234H46.9152V40.8997H57.4604V29.0935Z" fill="white"/>
</g>
<defs>
<clipPath id="clip0_34_208">
<rect width="82" height="121" fill="white"/>
</clipPath>
</defs>
</svg>
