<svg width="203" height="76" viewBox="0 0 203 76" fill="none" xmlns="http://www.w3.org/2000/svg">
<g clip-path="url(#clip0_34_141)">
<path d="M85.5764 0.267906C91.6216 0.0268063 97.1753 5.75961 98.6368 18.9263C100.098 32.0931 101.174 36.8481 97.1753 38.3081C93.1762 39.7681 77.5914 41.2415 74.6818 37.9464C71.7721 34.6514 70.6958 19.6497 72.8748 12.3363C75.0537 5.02294 79.5179 0.5224 85.5764 0.267906Z" fill="#C7D2E3"/>
<path d="M70.1511 15.2831C70.1511 15.2831 61.0767 1.19211 56.5461 3.02715C52.0155 4.86219 48.5744 23.3197 49.903 27.1371C51.2316 30.9545 54.4336 34.638 57.702 35.1738C60.9704 35.7096 69.4868 34.8121 69.4868 34.8121C68.792 31.5658 68.4886 28.2467 68.5834 24.927C68.8115 21.6707 69.3363 18.4425 70.1511 15.2831Z" fill="#C7D2E3"/>
<path d="M48.2024 14.1848C48.2024 14.1848 38.5832 -1.3662 34.9162 0.0937963C31.2492 1.55379 31.6478 16.3815 33.282 23.1456C34.9162 29.9098 35.6469 35.0265 39.088 35.4015C42.5292 35.7765 48.5213 30.2715 48.5213 30.2715C47.924 27.5668 47.5595 24.8152 47.4318 22.0473C47.5202 19.4124 47.7777 16.7861 48.2024 14.1848Z" fill="#C7D2E3"/>
<path d="M30.0667 13.6623C30.0667 13.6623 22.2544 3.6031 20.2614 4.87557C18.2685 6.14804 19.544 17.319 21.5901 21.3373C23.6361 25.3556 24.2473 30.124 26.9046 30.7134C28.6015 31.0045 30.3432 30.8759 31.9799 30.3384C31.0817 27.724 30.4147 25.0347 29.987 22.3017C29.7694 19.4249 29.7961 16.5346 30.0667 13.6623Z" fill="#C7D2E3"/>
<path d="M18.6007 19.3014C16.6078 15.0955 13.1667 5.77297 12.0772 6.13462C10.9877 6.49627 12.7946 19.529 13.5254 23.6947C14.2561 27.8604 14.6148 29.173 16.6078 29.5481C18.6007 29.9231 21.3244 29.5481 21.6831 28.9989C22.0418 28.4497 18.6007 19.3014 18.6007 19.3014Z" fill="#C7D2E3"/>
<path d="M6.29763 6.32214C4.66342 7.23296 4.30471 14.1846 5.5669 18.5646C6.82909 22.9446 9.38007 25.7039 10.6555 25.1547C11.931 24.6055 11.2002 17.4663 10.2835 13.6355C9.48765 10.9389 8.12859 8.44532 6.29763 6.32214Z" fill="#C7D2E3"/>
<path d="M98.0922 46.7332C100.271 48.5682 98.2649 69.7716 93.9203 72.3434C89.5757 74.9151 88.8317 73.6828 86.1213 69.9592C83.4109 66.2355 78.309 48.5281 81.9494 46.9208C85.5898 45.3134 98.0922 46.7332 98.0922 46.7332Z" fill="#C7D2E3"/>
<path d="M61.2627 44.724C63.92 42.889 76.1433 44.5365 77.7775 46.9207C79.4117 49.3049 77.7775 67.2132 74.1371 71.4191C70.4967 75.6249 67.0688 76.3616 64.5312 72.1558C61.9935 67.9499 58.5391 46.5456 61.2627 44.724Z" fill="#C7D2E3"/>
<path d="M42.3962 41.7907C45.8374 39.9691 56.3601 43.9874 57.6356 46.01C58.911 48.0326 59.0838 58.8017 57.9943 62.0833C56.9048 65.3649 50.554 75.9867 47.1129 75.9867C43.6718 75.9867 41.7984 65.1908 41.6655 57.8774C41.5326 50.5641 38.9551 43.6258 42.3962 41.7907Z" fill="#C7D2E3"/>
<path d="M29.336 41.0674C31.5149 40.3307 37.135 41.9781 38.0384 43.4381C38.9419 44.8981 38.5832 47.0948 38.3175 51.2203C38.0518 55.3458 39.5796 56.6987 39.4069 57.797C39.2342 58.8954 31.1429 66.6641 28.7779 66.3024C26.413 65.9408 24.6061 58.6274 25.5096 52.2249C26.413 45.8223 27.1571 41.7907 29.336 41.0674Z" fill="#C7D2E3"/>
<path d="M16.2756 39.969C13.6183 41.0673 10.9611 43.4381 10.1107 50.7649C9.26043 58.0917 9.19401 65.3916 11.2002 65.4988C13.2064 65.6059 15.3721 61.7617 18.0825 59.9266C20.1817 58.5202 22.6264 58.4667 23.397 57.2478C24.1676 56.0289 23.0383 51.1265 23.8487 48.2869C24.6592 45.4473 26.6653 41.8844 26.1206 41.1611C25.5759 40.4378 16.2756 39.969 16.2756 39.969Z" fill="#C7D2E3"/>
<path d="M7.02834 35.4015C4.47739 35.7631 1.03625 43.4382 0.132792 49.6666C-0.770671 55.895 3.12219 58.3462 5.44728 57.0603C7.77236 55.7745 6.77596 51.7025 8.99475 45.9162C9.99122 43.3846 13.9771 39.4198 13.7113 38.3215C13.4456 37.2231 9.566 35.0934 7.02834 35.4015Z" fill="#C7D2E3"/>
<path d="M117.41 0.267906C111.365 0.0268063 105.811 5.75961 104.35 18.9263C102.888 32.0931 101.812 36.8481 105.811 38.3081C109.811 39.7681 125.395 41.2415 128.305 37.9464C131.215 34.6514 132.291 19.6497 130.112 12.3363C127.933 5.02294 123.455 0.5224 117.41 0.267906Z" fill="#C7D2E3"/>
<path d="M132.862 15.2831C132.862 15.2831 141.937 1.19211 146.467 3.02715C150.998 4.86219 154.439 23.3197 153.11 27.1371C151.782 30.9545 148.58 34.638 145.311 35.1738C142.043 35.7096 133.526 34.8121 133.526 34.8121C134.214 31.5646 134.517 28.2464 134.43 24.927C134.195 21.6715 133.67 18.4439 132.862 15.2831Z" fill="#C7D2E3"/>
<path d="M154.784 14.1848C154.784 14.1848 164.404 -1.3662 168.071 0.0937963C171.738 1.55379 171.326 16.3815 169.705 23.1456C168.084 29.9098 167.34 35.0265 163.899 35.4015C160.458 35.7765 154.466 30.2715 154.466 30.2715C155.063 27.5668 155.427 24.8152 155.555 22.0473C155.467 19.4124 155.209 16.7861 154.784 14.1848Z" fill="#C7D2E3"/>
<path d="M172.92 13.6623C172.92 13.6623 180.732 3.6031 182.725 4.87557C184.718 6.14804 183.443 17.319 181.397 21.3373C179.351 25.3556 178.673 30.124 176.082 30.7134C174.385 31.0045 172.644 30.8759 171.007 30.3384C171.905 27.724 172.572 25.0347 173 22.3017C173.21 19.4247 173.183 16.535 172.92 13.6623Z" fill="#C7D2E3"/>
<path d="M184.346 19.3014C186.352 15.0955 189.793 5.77297 190.883 6.13462C191.972 6.49627 190.152 19.529 189.435 23.6947C188.717 27.8604 188.345 29.173 186.352 29.5481C184.359 29.9231 181.636 29.5481 181.264 28.9989C180.892 28.4497 184.346 19.3014 184.346 19.3014Z" fill="#C7D2E3"/>
<path d="M196.636 6.32214C198.27 7.23296 198.629 14.1846 197.367 18.5646C196.104 22.9446 193.553 25.7039 192.278 25.1547C191.003 24.6055 191.733 17.4663 192.65 13.6355C193.446 10.9389 194.805 8.44532 196.636 6.32214Z" fill="#C7D2E3"/>
<path d="M104.961 46.7332C102.782 48.5682 104.788 69.7716 109.133 72.3434C113.478 74.9151 114.222 73.6828 116.932 69.9592C119.642 66.2355 124.731 48.5281 121.104 46.9208C117.477 45.3134 104.961 46.7332 104.961 46.7332Z" fill="#C7D2E3"/>
<path d="M141.724 44.724C139.067 42.889 126.843 44.5365 125.209 46.9207C123.575 49.3049 125.209 67.2132 128.836 71.4191C132.463 75.6249 135.918 76.3616 138.456 72.1558C140.993 67.9499 144.448 46.5456 141.724 44.724Z" fill="#C7D2E3"/>
<path d="M160.59 41.7907C157.136 39.9691 146.627 43.9874 145.351 46.01C144.076 48.0326 143.903 58.8017 144.992 62.0833C146.082 65.3649 152.433 75.9867 155.874 75.9867C159.315 75.9867 161.188 65.1908 161.321 57.8774C161.454 50.5641 164.032 43.6258 160.59 41.7907Z" fill="#C7D2E3"/>
<path d="M173.651 41.0674C171.472 40.3307 165.852 41.9781 164.948 43.4381C164.045 44.8981 164.404 47.0948 164.669 51.2203C164.935 55.3458 163.341 56.6987 163.58 57.797C163.819 58.8954 171.831 66.6641 174.209 66.3024C176.587 65.9408 178.381 58.6274 177.477 52.2249C176.574 45.8223 175.83 41.7907 173.651 41.0674Z" fill="#C7D2E3"/>
<path d="M186.711 39.969C189.435 41.0673 192.026 43.4381 192.876 50.7649C193.726 58.0917 193.793 65.3916 191.786 65.4988C189.78 65.6059 187.615 61.7617 184.904 59.9266C182.805 58.5202 180.36 58.4667 179.59 57.2478C178.819 56.0289 179.948 51.1265 179.125 48.2869C178.301 45.4473 176.321 41.8844 176.866 41.1611C177.411 40.4378 186.711 39.969 186.711 39.969Z" fill="#C7D2E3"/>
<path d="M195.958 35.4015C198.509 35.7631 201.95 43.4382 202.854 49.6666C203.757 55.895 199.864 58.3462 197.539 57.0603C195.214 55.7745 196.211 51.7025 193.992 45.9162C192.996 43.3846 189.01 39.4198 189.275 38.3215C189.541 37.2231 193.421 35.0934 195.958 35.4015Z" fill="#C7D2E3"/>
<path d="M194.045 19.3282L197.234 18.7522L196.769 16.1537L193.58 16.7296L193.793 17.8949C192.716 18.0959 191.228 18.3772 189.368 18.6987L189.209 17.5869L185.037 18.2165L185.223 19.4085C183.708 19.663 182.034 19.9175 180.227 20.1988L180.055 18.0558L174.275 18.5647L174.488 21.0427C172.008 21.3909 169.35 21.7436 166.516 22.1008L166.144 19.5291L159.076 20.5471L159.421 22.9313C155.927 23.3197 152.233 23.6948 148.367 24.0564L148.208 21.2436L139.797 21.7124L139.957 24.753C134.39 25.1682 128.544 25.5298 122.459 25.7843V22.5295H112.707V26.1057C108.925 26.204 105.063 26.2487 101.121 26.2397C97.1354 26.2397 93.3223 26.2397 89.5225 26.1057V22.5295H79.7172V25.7173C73.9643 25.4628 68.4505 25.1146 63.1892 24.7127L63.3619 21.4044L54.9517 20.9355L54.779 23.9895C50.9127 23.6144 47.2059 23.226 43.7116 22.8242L44.0836 20.239L37.002 19.2211L36.6168 21.9C33.7868 21.5383 31.1163 21.1632 28.645 20.8016L28.8709 18.2165L23.0914 17.7075L22.9054 19.9041C21.0985 19.6228 19.4377 19.3416 17.9231 19.0871L18.1091 17.8682L13.9372 17.2386L13.7778 18.337C11.931 17.9887 10.4562 17.7074 9.36674 17.4797L9.56606 16.3815L6.36404 15.8054L5.91235 18.4843L9.101 19.0603L9.22061 18.337C10.3234 18.5647 11.8115 18.846 13.6582 19.1943L13.4323 20.7212L17.6042 21.3373L17.8035 19.9979L22.839 20.8417L22.6795 22.5563L28.459 23.0653L28.5786 21.7258C31.0366 22.0875 33.6938 22.4625 36.5504 22.8242L36.2315 25.0878L43.2998 26.1057L43.6451 23.7082C47.1527 24.11 50.8728 24.5118 54.779 24.8735L54.6063 27.914L63.0298 28.3828L63.1759 25.5967C68.4904 26.012 73.9909 26.3602 79.7571 26.6147V30.5393H89.4959V26.9496C93.2957 27.0478 97.1621 27.097 101.095 27.097C105.081 27.097 108.88 27.0969 112.68 26.9496V30.5393H122.432V26.6281C128.531 26.3736 134.39 26.012 139.97 25.5967L140.143 28.6373L148.553 28.1685L148.38 24.9003C152.273 24.552 155.993 24.1636 159.501 23.7751L159.873 26.3736L166.941 25.3557L166.596 22.9447C169.43 22.5875 172.087 22.2348 174.568 21.8865L174.7 23.3331L180.467 22.8242L180.32 21.0427C182.141 20.7748 183.815 20.4935 185.343 20.2524L185.555 21.6722L189.727 21.0427L189.501 19.5425C191.361 19.2211 192.863 18.9397 193.939 18.7388L194.045 19.3282Z" fill="white"/>
<path d="M196.636 48.3672L201.233 46.7867L199.904 43.0228L195.307 44.6034L195.759 45.9428C194.271 46.4116 192.039 47.1215 189.116 47.952L188.412 45.8893L182.021 48.086L182.579 49.7603C180.241 50.3898 177.65 51.0997 174.86 51.7158L174.647 49.9076L168.004 50.7112L168.296 53.2294C164.948 53.9706 161.379 54.6938 157.588 55.3993L157.322 53.0821L148.872 54.0867L149.191 56.8459C145.79 57.3951 142.255 57.9175 138.628 58.3729L138.23 54.9305L129.766 55.9351L130.165 59.3507C125.94 59.7793 121.595 60.141 117.144 60.3955V56.9932H107.924V60.7973C105.572 60.7973 103.207 60.8911 100.816 60.8911C98.7564 60.8911 96.7236 60.8911 94.6908 60.8107V56.7924H85.603V60.5428C81.254 60.3017 77.0069 59.9758 72.8616 59.565L73.3133 55.761L64.85 54.7564L64.3982 58.6274C60.7711 58.1854 57.2369 57.6764 53.7692 57.1406L54.1413 53.8991L45.6913 52.8945L45.3591 55.7208C41.5858 55.0243 38.0118 54.301 34.6504 53.5777L35.0091 50.5238L28.366 49.7335L28.1003 52.0909C25.2571 51.4212 22.6397 50.7514 20.2349 50.1353L20.9922 47.9118L14.6148 45.6348L13.7247 48.3137C10.9478 47.51 8.71576 46.8269 7.08155 46.3179L7.73256 44.3891L3.13551 42.7952L1.80688 46.559L6.40394 48.1395L6.77591 47.068C8.39683 47.577 10.6289 48.2735 13.419 49.0637L12.7946 50.8988L19.1853 53.1089L19.9426 50.8586C22.3873 51.5016 25.0711 52.1981 27.9143 52.8544L27.6486 55.185L34.3581 55.9753L34.5441 54.3546C37.9011 55.0779 41.4707 55.7877 45.2528 56.4842L44.8675 59.7793L53.3175 60.7839L53.663 57.9041C57.0643 58.4399 60.5984 58.9489 64.2256 59.3909L63.9598 61.6411L72.4231 62.6457L72.6889 60.3285C76.8607 60.7437 81.1521 61.0786 85.5233 61.3063V64.2531H94.6111V61.668C96.6439 61.668 98.6767 61.7349 100.736 61.7349C103.128 61.7349 105.492 61.7349 107.844 61.6411V64.5611H117.065V61.2125C121.538 60.9446 125.909 60.5919 130.178 60.1544L130.497 62.8333L138.947 61.8287L138.642 59.1498C142.269 58.6944 145.803 58.172 149.271 57.6228L149.669 60.9848L158.119 59.9802L157.681 56.1762C161.454 55.4663 165.028 54.743 168.31 54.0063L168.562 56.1762L175.205 55.386L174.873 52.4927C177.73 51.8096 180.374 51.1533 182.765 50.5104L183.708 53.2964L190.099 51.0997L189.289 48.7021C192.185 47.8582 194.43 47.1618 195.932 46.6796L196.636 48.3672Z" fill="white"/>
</g>
<defs>
<clipPath id="clip0_34_141">
<rect width="203" height="76" fill="white"/>
</clipPath>
</defs>
</svg>
