<svg width="121" height="125" viewBox="0 0 121 125" fill="none" xmlns="http://www.w3.org/2000/svg">
<path d="M37 50C36.6563 49.3478 36.3281 48.6812 36 48C36.3281 48.6812 36.6563 49.3478 37 50Z" fill="#E9D0B7"/>
<path d="M80 57C79.3448 57.6838 78.6897 58.3504 78 59C78.6897 58.3504 79.3448 57.6838 80 57Z" fill="#E9D0B7"/>
<path d="M78 59C77.3585 59.3478 76.6792 59.6739 76 60C76.6792 59.6739 77.3585 59.3478 78 59Z" fill="#E9D0B7"/>
<path d="M43 57C42.3192 56.3578 41.6383 55.6973 41 55C41.6383 55.6973 42.2766 56.3578 43 57Z" fill="#E9D0B7"/>
<path d="M41 55C40.3 54.3529 39.62 53.6765 39 53C39.62 53.6765 40.3 54.3529 41 55Z" fill="#E9D0B7"/>
<path d="M60.6407 65.9987C64.7545 65.9865 68.7919 64.809 72.3419 62.586C72.778 62.313 73.2035 62.0285 73.6184 61.7214L73.9801 61.4711C74.4588 61.1185 74.9268 60.7544 75.3736 60.3335L75.6821 60.0605C76.065 59.7192 76.448 59.378 76.8097 59.014L77.1288 58.7068C77.5543 58.2745 77.9585 57.8309 78.3627 57.3758C78.4691 57.2621 78.5648 57.1255 78.6712 57.0118C79.001 56.6136 79.3307 56.2155 79.6392 55.8059L79.9158 55.4533C80.2775 54.9527 80.632 54.4408 80.9795 53.9175L81.2668 53.4625C81.554 53.0188 81.8199 52.5638 82.0858 52.0974C82.1603 51.9722 82.2348 51.8471 82.2986 51.722C82.6071 51.1646 82.8943 50.5844 83.1709 50.0156C83.256 49.845 83.3304 49.6629 83.4155 49.4809C83.6496 48.9804 83.8623 48.4685 84.0751 47.9452C84.1282 47.82 84.1814 47.7063 84.224 47.5925C84.458 46.9782 84.6814 46.3525 84.8835 45.7269C84.9201 45.6378 84.952 45.5467 84.9792 45.4539C85.5324 42.6554 74.9694 46.1478 60.513 46.1478C46.0567 46.1478 35.1958 41.8818 36.0468 45.3742C36.0468 45.3742 36.0468 45.4539 36.0468 45.4994L36.1532 45.7724C36.3553 46.4094 36.5786 47.0351 36.8127 47.638L36.9403 47.9679C37.1637 48.5026 37.3871 49.0259 37.6211 49.5378C37.7062 49.7198 37.7807 49.8904 37.8658 50.0611C38.1424 50.6413 38.4296 51.1987 38.7381 51.7789L38.9295 52.1202C39.1955 52.5979 39.4827 53.0643 39.7699 53.5308C39.8656 53.6673 39.9507 53.8152 40.0465 53.963C40.3869 54.4863 40.7486 55.0096 41.1102 55.5102L41.3549 55.8287C41.674 56.261 42.0144 56.6705 42.3548 57.0686L42.642 57.4213C43.0463 57.8877 43.4611 58.3314 43.8972 58.7637L44.1844 59.0594L45.3333 60.1174L45.6312 60.379C46.0886 60.7658 46.5566 61.1412 47.0353 61.5166C47.1523 61.6076 47.2693 61.6759 47.3757 61.7669C47.8012 62.0627 48.2373 62.3585 48.6735 62.6315H48.7267C52.3422 64.8803 56.4583 66.0437 60.6407 65.9987Z" fill="#C7D2E3"/>
<path d="M72.7212 18C71.9209 20.6867 70.2429 22.9674 68 24.4171C75.1031 29.3763 83.11 33.1646 88.7351 33.8764C89.4859 33.9807 90.2434 34.0191 91 33.9912C90.8264 30.3577 90.3819 26.7452 89.6708 23.1888C84.299 20.5364 78.5831 18.7866 72.7212 18Z" fill="#C7D2E3"/>
<path d="M85 14.838C79.7736 5.89174 70.9871 0 60.9996 0C51.012 0 42.2364 5.9135 37.0316 14.8272C41.4852 13.3231 46.0784 12.2742 50.7415 11.6965C50.3147 12.8779 50.095 14.1247 50.0923 15.3816C50.0929 16.431 50.246 17.4747 50.5467 18.4796C50.4926 18.5666 50.4494 18.6644 50.4061 18.7405C39.5853 20.3167 33.5474 23.7952 33.4716 23.8387L33.2877 23.9257C32.4357 27.1609 32.0029 30.493 32 33.8395C32.7549 34.0238 33.5395 34.0497 34.3048 33.9156C39.2499 33.1655 45.7424 26.9803 50.5359 18.5122C51.2077 20.7531 52.5753 22.7195 54.439 24.1237C56.3026 25.528 58.5645 26.2966 60.894 26.3173C63.2235 26.3379 65.4986 25.6095 67.3866 24.2385C69.2746 22.8675 70.6765 20.9257 71.3875 18.6971C71.7228 17.6241 71.8943 16.5062 71.8961 15.3816C71.8918 14.1213 71.6722 12.8712 71.2468 11.6856C75.8801 12.2511 80.4492 13.2594 84.8918 14.6967L85 14.838ZM60.9996 18.2622C60.4329 18.2601 59.8796 18.0893 59.4095 17.7715C58.9393 17.4536 58.5735 17.003 58.3581 16.4764C58.1427 15.9499 58.0875 15.371 58.1993 14.813C58.3112 14.2549 58.5852 13.7426 58.9866 13.3409C59.3881 12.9391 59.899 12.6658 60.455 12.5555C61.0109 12.4452 61.5869 12.5029 62.1102 12.7213C62.6336 12.9396 63.0808 13.3088 63.3954 13.7823C63.71 14.2558 63.8779 14.8123 63.8779 15.3816C63.8779 15.7608 63.8034 16.1363 63.6586 16.4865C63.5138 16.8367 63.3016 17.1547 63.0342 17.4223C62.7668 17.69 62.4494 17.902 62.1003 18.0461C61.7511 18.1902 61.3771 18.2636 60.9996 18.2622Z" fill="#C7D2E3"/>
<path d="M62 15.0113C62.0018 14.4175 61.8568 13.8363 61.5832 13.3415C61.3097 12.8467 60.9199 12.4604 60.4632 12.2316C60.0066 12.0028 59.5036 11.9418 59.018 12.0563C58.5325 12.1708 58.0861 12.4556 57.7356 12.8747C57.385 13.2938 57.146 13.8283 57.0487 14.4106C56.9515 14.9928 57.0004 15.5966 57.1894 16.1454C57.3783 16.6943 57.6988 17.1635 58.1101 17.4936C58.5214 17.8238 59.0051 18 59.5 18C60.1614 18 60.7959 17.6855 61.2644 17.1253C61.733 16.5652 61.9975 15.805 62 15.0113Z" fill="white"/>
<path d="M115.22 97.3263V97.2391L76.5657 88.1743L75.7884 88L60.4662 92.4452L45.1553 88L44.9074 88.0545L5.72326 97.2391V97.3263L0 125H121L115.22 97.3263ZM56.9737 105.803L45.2454 88.1199L56.9624 100.431L57.582 99.0477L59.1143 100.519L56.9737 105.803ZM63.3616 99.0477L63.9925 100.431L75.7771 88.0327L63.9813 105.803L61.8294 100.519L63.3616 99.0477Z" fill="#C7D2E3"/>
</svg>
