<svg width="199" height="93" viewBox="0 0 199 93" fill="none" xmlns="http://www.w3.org/2000/svg">
<g clip-path="url(#clip0_34_168)">
<path d="M153.893 69.0857L83.58 79.7143L14.5933 43.8429L2.65332 27.9L43.78 17.2714L127.36 11.9572L197.673 27.9L153.893 69.0857Z" fill="white"/>
<path d="M98.2087 20.7756C131.715 20.7756 190.61 27.4467 198.986 26.2214C190.006 23.286 181.315 19.5354 173.023 15.0167C157.992 6.75277 144.327 -0.762384 128.544 0.040866C113.814 0.735201 101.707 10.5376 100.094 11.8854C98.482 10.524 86.4297 0.735201 71.6307 0.040866C55.8069 -0.721541 42.2378 6.84807 27.1656 15.0167C18.5184 19.7302 9.43476 23.601 0.0410156 26.5753C10.7952 28.1138 64.7163 20.7756 98.2087 20.7756Z" fill="#C7D2E3"/>
<path d="M191.867 31.599C185.513 34.1449 152.239 70.7677 99.6708 70.7677C47.1025 70.7677 15.5779 35.8467 6.75043 32.3342C8.21256 34.5397 31.347 92.9863 99.7665 92.9863C168.186 92.9863 193.534 32.0891 193.534 32.0891L191.867 31.599Z" fill="#C7D2E3"/>
<path d="M12.6399 38.3381L28.2041 39.2095L44.1372 40.0399C47.0478 40.1761 50.054 40.285 53.1149 40.462C56.1758 40.639 59.2777 40.7615 62.3933 40.8568L71.658 41.238C74.7189 41.4014 77.7252 41.4286 80.6494 41.5239L89.0533 41.8098C91.7862 41.9187 94.2459 41.9732 96.5825 42.0004C101.256 42.0685 105.15 42.2455 107.87 42.3135C110.589 42.3816 112.16 42.5041 112.16 42.5041L107.897 42.8445C105.164 43.0079 101.283 43.3346 96.5962 43.5661L92.9477 43.7703C91.6906 43.7703 90.3787 43.7703 89.0396 43.7703L80.6084 43.852C77.6842 43.852 74.6506 43.9609 71.576 43.852L62.2703 43.5525C59.1548 43.4299 56.0392 43.2938 52.9646 43.0623C49.89 42.8309 46.8838 42.6267 43.9732 42.4088C41.0626 42.191 38.2477 41.8643 35.5694 41.6056C32.8911 41.3469 30.3768 41.061 28.0674 40.7343C23.4214 40.1489 19.5679 39.5226 16.8623 39.0869C15.4958 38.8827 14.471 38.6785 13.7467 38.5424L12.6399 38.3381Z" fill="#C7D2E3"/>
</g>
<defs>
<clipPath id="clip0_34_168">
<rect width="199" height="93" fill="white"/>
</clipPath>
</defs>
</svg>
