<svg width="136" height="116" viewBox="0 0 136 116" fill="none" xmlns="http://www.w3.org/2000/svg">
<g clip-path="url(#clip0_34_173)">
<path d="M135.411 44.1421H135.178C135.001 44.142 134.83 44.1977 134.687 44.3013C134.544 44.4049 134.437 44.5511 134.383 44.7189C134.383 44.7189 132.587 50.4461 128.612 50.4461C125.994 50.4461 119.017 44.0871 114.357 39.8844C110.587 36.4783 108.723 34.8165 107.764 34.583C107.532 34.5182 107.292 34.4859 107.051 34.4868C104.652 34.4868 103.076 37.6045 103.007 37.7419C102.911 37.9373 102.894 38.1629 102.96 38.3707C103.027 38.5784 103.172 38.7519 103.364 38.8543C103.48 38.9077 103.606 38.9358 103.734 38.9367C103.887 38.9363 104.037 38.8938 104.167 38.8138C104.298 38.7339 104.404 38.6197 104.474 38.4836C104.474 38.4836 105.694 36.135 107.078 36.135H107.366C109.465 37.6055 111.432 39.2552 113.247 41.0656C120.1 47.2873 125.583 52.0531 128.612 52.0531C133.807 52.0531 135.877 45.4606 135.959 45.1859C135.995 45.0814 136.009 44.9706 136 44.8605C135.992 44.7504 135.961 44.6432 135.91 44.5454C135.858 44.4476 135.788 44.3614 135.702 44.2921C135.616 44.2227 135.517 44.1717 135.411 44.1421Z" fill="#C7D2E3"/>
<path d="M1.63111 44.6777C1.57878 44.5109 1.4749 44.3652 1.33445 44.2615C1.19401 44.1578 1.02426 44.1015 0.849809 44.1008C0.768086 44.0877 0.684817 44.0877 0.603094 44.1008C0.396964 44.1644 0.223972 44.3065 0.12142 44.4966C0.0188676 44.6867 -0.00502988 44.9096 0.0548262 45.1172C0.150775 45.4056 2.20679 51.9843 7.40171 51.9843C10.4172 51.9843 15.9137 47.2323 22.7672 40.9969C24.5885 39.1885 26.5603 37.5391 28.6611 36.0663C28.752 36.0519 28.8445 36.0519 28.9353 36.0663C30.306 36.0663 31.5396 38.3873 31.5533 38.4148C31.6186 38.5519 31.7218 38.6675 31.8505 38.7478C31.9792 38.8281 32.1281 38.8698 32.2798 38.8681C32.4075 38.8671 32.5337 38.839 32.6499 38.7857C32.8421 38.6831 32.9876 38.5104 33.0565 38.3034C33.1253 38.0964 33.1122 37.8708 33.0199 37.6732C32.9377 37.5358 31.3614 34.4182 28.9079 34.4182C28.6714 34.4163 28.436 34.4487 28.2088 34.5143C27.2356 34.7478 25.3852 36.4096 21.6158 39.8157C16.9828 44.0184 9.97864 50.3774 7.34691 50.3774C3.39932 50.4049 1.63111 44.7463 1.63111 44.6777Z" fill="#C7D2E3"/>
<path d="M112.191 42.1643C110.56 40.6948 107.942 38.305 107.01 37.6732C106.529 38.0477 106.129 38.5146 105.831 39.0466C105.552 39.6011 105.065 40.0222 104.477 40.2179C103.888 40.4135 103.247 40.3676 102.692 40.0904C102.137 39.8053 101.716 39.3123 101.521 38.7184C101.326 38.1245 101.373 37.4776 101.65 36.9178C102.007 36.2448 103.898 32.7975 107.051 32.7975C107.416 32.8018 107.779 32.8478 108.134 32.9348C109.436 33.2645 111.012 34.6379 115.371 38.5934L117.413 40.4338C121.745 41.5463 127.817 43.8262 128.626 42.7412C129.859 41.1068 118.784 25.9029 118.784 20.9723C118.784 16.0417 133.135 15.2176 134.369 13.5695C135.603 11.9214 125.761 8.6389 124.116 7.41654C122.471 6.19419 126.583 1.24982 122.485 0.0137282C118.387 -1.22236 112.232 5.76838 99.1009 19.7362C88.2862 31.2455 72.1258 34.0061 68 34.0061C63.8742 34.0061 47.7 31.2593 36.8853 19.7362C23.7678 5.76838 17.6134 -1.22236 13.515 0.0137282C9.41665 1.24982 13.515 6.18045 11.8702 7.41654C10.2253 8.65263 0.397472 11.9214 1.61739 13.5695C2.8373 15.2176 17.2021 16.0417 17.2021 20.9723C17.2021 25.9029 6.12696 41.1068 7.36059 42.7412C8.16929 43.8262 14.214 41.5463 18.5866 40.4338L20.6289 38.5934C24.9877 34.6379 26.5503 33.2645 27.8524 32.9348C28.2071 32.8486 28.5704 32.8026 28.9353 32.7975C32.0879 32.7975 33.9931 36.2036 34.3495 36.9178C34.6258 37.4773 34.6698 38.1235 34.4721 38.7154C34.2743 39.3073 33.8508 39.7967 33.2941 40.0767C32.9676 40.2285 32.6123 40.3081 32.2523 40.3102C31.8194 40.3116 31.3946 40.1914 31.0264 39.9632C30.6581 39.735 30.3611 39.4079 30.1689 39.0191C29.8797 38.4853 29.483 38.0176 29.0038 37.6457C28.0717 38.2775 25.44 40.6536 23.7815 42.1643C22.4108 43.4416 21.0401 44.6365 19.7928 45.7352C16.366 50.1027 11.5686 55.6514 12.2951 57.2171C13.5287 59.6893 21.7254 56.8051 23.3703 60.5134C25.0151 64.2216 18.8607 76.5276 19.6831 78.9998C19.7647 79.2569 19.9412 79.4731 20.1766 79.6041L21.1772 79.5217C22.2751 79.4602 23.3662 79.3086 24.4394 79.0684C26.893 78.2856 41.2304 64.2079 42.7107 61.6121C42.0209 60.1644 40.9908 58.9061 39.7089 57.945C39.2284 57.5527 38.9226 56.9856 38.8584 56.3678C38.7942 55.7501 38.9768 55.132 39.3662 54.6488C39.7603 54.1664 40.3286 53.8597 40.9473 53.7954C41.5661 53.7311 42.1852 53.9144 42.6696 54.3054C43.9581 55.363 48.1524 59.0712 47.3026 62.6559C46.6857 65.4028 34.281 77.7636 28.2225 82.1174C28.3733 85.3312 27.0985 89.9048 29.1135 90.9074C31.567 92.1435 35.2541 88.449 37.7214 90.4954C40.1886 92.5418 40.9973 101.593 45.0957 103.653C49.1941 105.713 53.7174 98.3102 57.8157 99.9446C59.7621 100.727 64.0798 106.812 68.3427 106.812C72.3725 106.812 76.3612 100.673 78.2116 99.9446C82.3237 98.3102 86.8196 105.699 90.918 103.653C95.0163 101.606 95.8387 92.5555 98.306 90.4954C100.773 88.4352 104.447 92.1435 106.914 90.9074C108.929 89.9048 107.654 85.3312 107.791 82.1174C101.692 77.8186 89.3553 65.4715 88.6974 62.6834C87.9024 59.085 92.0419 55.3767 93.3441 54.3329C93.7571 53.9926 94.276 53.808 94.8107 53.811C95.1599 53.8092 95.505 53.886 95.8205 54.0357C96.136 54.1855 96.414 54.4044 96.6337 54.6763C97.0232 55.1594 97.2058 55.7775 97.1416 56.3952C97.0774 57.013 96.7715 57.5802 96.291 57.9725C95.0173 58.9421 93.989 60.1982 93.2892 61.6396C94.7696 64.2354 109.107 78.313 111.561 79.0822C112.641 79.3336 113.742 79.4899 114.85 79.5491L115.823 79.6315C115.944 79.5698 116.051 79.4846 116.138 79.3808C116.225 79.277 116.291 79.1567 116.331 79.0272C117.153 76.555 110.999 64.2354 112.643 60.5408C114.288 56.8463 122.485 59.7168 123.705 57.2446C124.486 55.6789 119.593 50.1302 116.221 45.7765C114.96 44.664 113.617 43.4554 112.191 42.1643Z" fill="#C7D2E3"/>
<path d="M114.713 81.1148C113.518 81.0483 112.331 80.883 111.163 80.6204C108.216 79.8101 92.2338 63.9195 91.7815 62.0516C91.4525 60.5683 94.0294 57.9313 95.3316 56.8463C95.427 56.783 95.5082 56.7003 95.57 56.6037C95.6318 56.5071 95.6727 56.3987 95.6902 56.2854C95.7077 56.172 95.7014 56.0562 95.6717 55.9454C95.642 55.8347 95.5895 55.7313 95.5176 55.642C95.4458 55.5527 95.3561 55.4794 95.2543 55.4268C95.1525 55.3742 95.041 55.3435 94.9267 55.3367C94.8124 55.3298 94.698 55.347 94.5907 55.387C94.4834 55.427 94.3856 55.489 94.3036 55.5691C93.8101 55.9673 89.5472 59.5383 90.1915 62.4362C90.8357 65.3341 107.517 81.3483 110.752 82.2273C112.012 82.526 113.297 82.7144 114.59 82.7904C115.37 82.8199 116.145 82.9211 116.906 83.0926C116.416 83.6047 115.874 84.065 115.289 84.466C114.021 85.2374 113.006 86.3643 112.369 87.7073C112.182 88.8073 112.182 89.931 112.369 91.031C112.465 92.1847 112.616 93.7779 112.15 94.1487C109.957 95.9067 98.4431 104.903 88.8482 109.092C82.4197 111.838 74.127 114.366 68.0959 114.366C62.0649 114.366 53.7585 111.88 47.3437 109.092C37.6666 104.903 26.2213 95.9067 24.0419 94.1487C23.5896 93.7779 23.7267 92.1847 23.8363 91.031C24.0014 89.9272 23.9782 88.8033 23.7678 87.7073C23.1414 86.362 22.1299 85.2338 20.8619 84.466C20.2732 84.0647 19.7267 83.6046 19.2308 83.0926C19.9923 82.9221 20.7676 82.8209 21.5473 82.7904C22.8407 82.7166 24.125 82.5282 25.3852 82.2273C28.6063 81.3483 45.3013 65.2517 45.9456 62.4362C46.5898 59.6207 42.3132 55.9948 41.8335 55.5691C41.7512 55.4983 41.6553 55.4451 41.5517 55.4129C41.4481 55.3806 41.339 55.3699 41.2312 55.3815C41.1233 55.3931 41.0189 55.4267 40.9245 55.4802C40.8301 55.5337 40.7476 55.606 40.6821 55.6926C40.5451 55.8607 40.4798 56.0761 40.5004 56.2921C40.5209 56.5081 40.6256 56.7072 40.7918 56.8463C42.0939 57.9039 44.6708 60.5683 44.3419 62.0516C43.8895 63.9195 27.8936 79.8101 24.974 80.6204C23.8061 80.882 22.6188 81.0474 21.4239 81.1148C19.642 81.2659 18.3536 81.3758 17.7779 82.1312C17.6658 82.2858 17.5872 82.4622 17.5471 82.649C17.507 82.8359 17.5062 83.0291 17.5448 83.2162C17.7367 84.1502 18.7236 84.9192 19.875 85.8119C21.0264 86.7047 21.9996 87.4463 22.2189 88.2017C22.3532 89.1124 22.3532 90.0379 22.2189 90.9486C22.0544 92.734 21.8899 94.5744 23.0413 95.4946C25.2618 97.2801 36.8716 106.4 46.7269 110.671C51.9903 112.951 60.6257 116.082 68.1371 116.082C75.6484 116.082 84.2838 112.951 89.5336 110.671C99.4025 106.4 111.012 97.2801 113.233 95.4946C114.384 94.5744 114.22 92.7478 114.055 90.9486C113.914 90.0384 113.914 89.1118 114.055 88.2017C114.275 87.4463 115.426 86.5399 116.399 85.8119C117.372 85.084 118.524 84.1502 118.716 83.2162C118.754 83.0291 118.753 82.8359 118.713 82.649C118.673 82.4622 118.595 82.2858 118.483 82.1312C117.784 81.3208 116.481 81.211 114.713 81.1148Z" fill="#C7D2E3"/>
</g>
<defs>
<clipPath id="clip0_34_173">
<rect width="136" height="116" fill="white"/>
</clipPath>
</defs>
</svg>
