<svg width="16" height="20" viewBox="0 0 16 20" fill="none" xmlns="http://www.w3.org/2000/svg">
<path d="M8.00002 0.833313C3.94993 0.833313 0.666687 4.11656 0.666687 8.16665C0.666687 13.8683 5.29585 13.8225 6.40502 17.1316L6.87252 18.5433C7.0036 18.9332 7.37838 19.1881 7.78919 19.1666H8.30252C8.71333 19.1881 9.08811 18.9332 9.21919 18.5433L9.68669 17.1316C10.75 13.8225 15.3334 13.8683 15.3334 8.16665C15.3334 4.11656 12.0501 0.833313 8.00002 0.833313ZM8.00002 10.9166C6.48124 10.9166 5.25002 9.68543 5.25002 8.16665C5.25002 6.64786 6.48124 5.41665 8.00002 5.41665C9.5188 5.41665 10.75 6.64786 10.75 8.16665C10.75 8.89599 10.4603 9.59547 9.94456 10.1112C9.42884 10.6269 8.72937 10.9166 8.00002 10.9166Z" fill="#838383"/>
</svg>
