<svg viewBox="0 0 172 172" xmlns="http://www.w3.org/2000/svg">
<g clip-path="url(#clip0_615_2)">
<path d="M34.4 13.76C23.0416 13.76 13.76 23.0416 13.76 34.4C13.76 45.7584 23.0416 55.04 34.4 55.04C45.7584 55.04 55.04 45.7584 55.04 34.4C55.04 23.0416 45.7584 13.76 34.4 13.76V13.76ZM86 13.76C74.6416 13.76 65.36 23.0416 65.36 34.4C65.36 45.7584 74.6416 55.04 86 55.04C97.3584 55.04 106.64 45.7584 106.64 34.4C106.64 23.0416 97.3584 13.76 86 13.76V13.76ZM137.6 13.76C126.242 13.76 116.96 23.0416 116.96 34.4C116.96 45.7584 126.242 55.04 137.6 55.04C148.958 55.04 158.24 45.7584 158.24 34.4C158.24 23.0416 148.958 13.76 137.6 13.76V13.76ZM34.4 20.64C42.0402 20.64 48.16 26.7598 48.16 34.4C48.16 42.0402 42.0402 48.16 34.4 48.16C26.7598 48.16 20.64 42.0402 20.64 34.4C20.64 26.7598 26.7598 20.64 34.4 20.64ZM86 20.64C93.6402 20.64 99.76 26.7598 99.76 34.4C99.76 42.0402 93.6402 48.16 86 48.16C78.3598 48.16 72.24 42.0402 72.24 34.4C72.24 26.7598 78.3598 20.64 86 20.64ZM137.6 20.64C145.24 20.64 151.36 26.7598 151.36 34.4C151.36 42.0402 145.24 48.16 137.6 48.16C129.96 48.16 123.84 42.0402 123.84 34.4C123.84 26.7598 129.96 20.64 137.6 20.64ZM34.4 65.36C23.0416 65.36 13.76 74.6416 13.76 86C13.76 97.3584 23.0416 106.64 34.4 106.64C45.7584 106.64 55.04 97.3584 55.04 86C55.04 74.6416 45.7584 65.36 34.4 65.36ZM86 65.36C74.6416 65.36 65.36 74.6416 65.36 86C65.36 97.3584 74.6416 106.64 86 106.64C97.3584 106.64 106.64 97.3584 106.64 86C106.64 74.6416 97.3584 65.36 86 65.36ZM137.6 65.36C126.242 65.36 116.96 74.6416 116.96 86C116.96 97.3584 126.242 106.64 137.6 106.64C148.958 106.64 158.24 97.3584 158.24 86C158.24 74.6416 148.958 65.36 137.6 65.36V65.36ZM34.4 72.24C42.0402 72.24 48.16 78.3598 48.16 86C48.16 93.6402 42.0402 99.76 34.4 99.76C26.7598 99.76 20.64 93.6402 20.64 86C20.64 78.3598 26.7598 72.24 34.4 72.24ZM86 72.24C93.6402 72.24 99.76 78.3598 99.76 86C99.76 93.6402 93.6402 99.76 86 99.76C78.3598 99.76 72.24 93.6402 72.24 86C72.24 78.3598 78.3598 72.24 86 72.24ZM137.6 72.24C145.24 72.24 151.36 78.3598 151.36 86C151.36 93.6402 145.24 99.76 137.6 99.76C129.96 99.76 123.84 93.6402 123.84 86C123.84 78.3598 129.96 72.24 137.6 72.24ZM34.4 116.96C23.0416 116.96 13.76 126.242 13.76 137.6C13.76 148.958 23.0416 158.24 34.4 158.24C45.7584 158.24 55.04 148.958 55.04 137.6C55.04 126.242 45.7584 116.96 34.4 116.96V116.96ZM86 116.96C74.6416 116.96 65.36 126.242 65.36 137.6C65.36 148.958 74.6416 158.24 86 158.24C97.3584 158.24 106.64 148.958 106.64 137.6C106.64 126.242 97.3584 116.96 86 116.96V116.96ZM137.6 116.96C126.242 116.96 116.96 126.242 116.96 137.6C116.96 148.958 126.242 158.24 137.6 158.24C148.958 158.24 158.24 148.958 158.24 137.6C158.24 126.242 148.958 116.96 137.6 116.96V116.96ZM34.4 123.84C42.0402 123.84 48.16 129.96 48.16 137.6C48.16 145.24 42.0402 151.36 34.4 151.36C26.7598 151.36 20.64 145.24 20.64 137.6C20.64 129.96 26.7598 123.84 34.4 123.84V123.84ZM86 123.84C93.6402 123.84 99.76 129.96 99.76 137.6C99.76 145.24 93.6402 151.36 86 151.36C78.3598 151.36 72.24 145.24 72.24 137.6C72.24 129.96 78.3598 123.84 86 123.84V123.84ZM137.6 123.84C145.24 123.84 151.36 129.96 151.36 137.6C151.36 145.24 145.24 151.36 137.6 151.36C129.96 151.36 123.84 145.24 123.84 137.6C123.84 129.96 129.96 123.84 137.6 123.84V123.84Z"/>
</g>
<defs>
<clipPath id="clip0_615_2">
<rect width="172" height="172"/>
</clipPath>
</defs>
</svg>
