<svg width="17" height="17" viewBox="0 0 17 17" fill="none" xmlns="http://www.w3.org/2000/svg">
<path d="M8.5 0C3.80558 0 0 3.80558 0 8.5C0 13.1944 3.80558 17 8.5 17C13.1944 17 17 13.1944 17 8.5C17 6.24566 16.1045 4.08365 14.5104 2.48959C12.9163 0.895533 10.7543 0 8.5 0ZM8.5 15.3C4.74446 15.3 1.7 12.2555 1.7 8.5C1.7 4.74446 4.74446 1.7 8.5 1.7C12.2555 1.7 15.3 4.74446 15.3 8.5C15.3 10.3035 14.5836 12.0331 13.3083 13.3083C12.0331 14.5836 10.3035 15.3 8.5 15.3ZM9.248 8.194V3.825C9.248 3.59028 9.05772 3.4 8.823 3.4H8.177C7.94228 3.4 7.752 3.59028 7.752 3.825V8.636C7.75618 8.74754 7.80161 8.85355 7.8795 8.9335L11.2795 12.3335C11.4476 12.4965 11.7149 12.4965 11.883 12.3335L12.3335 11.883C12.4965 11.7149 12.4965 11.4476 12.3335 11.2795L9.248 8.194Z" fill="#838383"/>
</svg>
