<svg width="172" height="273" viewBox="0 0 172 273" fill="none" xmlns="http://www.w3.org/2000/svg">
<g opacity="0.8">
<path d="M79.878 158.039C81.4838 158.114 86.3085 156.902 91.6017 158.842C98.4411 161.355 101.385 164.574 102.24 166.395C106.366 175.159 106.604 182.429 108.789 195.245C108.789 195.245 111.272 209.517 116.097 230.547C118.848 242.523 127.605 273.528 135.649 272.993C151.261 271.96 153.982 145.008 154.026 133.984C153.724 131.717 153.724 129.42 154.026 127.153C154.646 123.459 156.12 119.962 158.331 116.939C163.49 109.505 171.928 81.5621 171.995 54.8754C172.039 36.9752 172.091 17.1943 158.71 6.85407C151.774 1.49442 144.042 0.8477 136.504 0.215841C114.127 -1.66487 107.429 9.38893 84.2121 8.46716C69.039 7.86504 61.7832 7.6792 55.9028 9.95389C25.5639 21.5801 58.5419 157.058 79.878 158.039Z" fill="white"/>
<path d="M50.0372 1.34572C50.394 0.357045 63.9168 7.3967 81.9224 7.98395C103.035 8.68271 122.751 0.297584 123.301 1.72484C123.747 2.87706 109.533 9.04699 97.5787 11.5001C83.2085 14.4735 71.2767 10.4965 64.5562 8.27388C56.8469 5.7167 49.777 2.05191 50.0372 1.34572Z" fill="white"/>
<path d="M85.2752 231.603C93.5237 231.603 100.21 224.916 100.21 216.668C100.21 208.421 93.5237 201.734 85.2752 201.734C77.0266 201.734 70.3399 208.421 70.3399 216.668C70.3399 224.916 77.0266 231.603 85.2752 231.603Z" fill="white"/>
<path d="M154.011 135.53C153.976 132.61 154.148 129.692 154.524 126.796C155.097 123.54 158.695 116.389 158.695 116.389L147.031 122.804L154.011 135.523" fill="white"/>
<path d="M92.1295 158.039C90.5237 158.114 85.6915 156.902 80.3984 158.842C73.5663 161.355 70.615 164.574 69.7601 166.395C65.6415 175.159 65.3962 182.429 63.2106 195.245C63.2106 195.245 60.735 209.517 55.9102 230.547C53.1595 242.523 44.4021 273.528 36.3583 272.993C20.7465 271.96 18.0256 145.008 17.9736 133.984C18.2806 131.717 18.2806 129.419 17.9736 127.153C17.3557 123.46 15.8844 119.963 13.6767 116.939C8.51735 109.505 0.0795541 81.5621 0.00521237 54.8754C-0.0393927 36.9752 -0.0914284 17.1943 13.2975 6.85407C20.2336 1.49442 27.9651 0.8477 35.5034 0.215841C57.8802 -1.66487 64.571 9.38893 87.7953 8.46716C102.968 7.86504 110.217 7.6792 116.105 9.95389C146.444 21.5801 113.458 157.058 92.1295 158.039Z" fill="white"/>
<path d="M17.9885 135.53C18.0238 132.611 17.8549 129.692 17.483 126.796C16.9105 123.54 13.305 116.389 13.305 116.389L24.9766 122.804L17.9885 135.523" fill="white"/>
</g>
</svg>
