<?xml version="1.0" encoding="UTF-8"?> <svg xmlns="http://www.w3.org/2000/svg" width="122" height="60" viewBox="0 0 122 60" fill="none"> <path fill-rule="evenodd" clip-rule="evenodd" d="M17.8956 19.517C18.3306 20.484 19.0426 21.476 20.9916 22.815C21.4236 23.115 21.9046 23.738 21.5416 24.615C21.1716 25.491 20.4866 26.735 20.8946 27.222C21.3076 27.706 22.7756 27.959 23.9686 27.477C23.9686 27.477 24.2186 28.235 24.6576 28.721C24.6576 28.721 24.4506 29.139 23.7636 28.928C23.7636 28.928 24.0136 29.551 23.6686 30.221C23.6686 30.221 22.8686 30.083 22.5246 29.343C22.5246 29.343 22.2016 29.919 21.5606 30.127C21.5606 30.127 21.0336 29.853 21.1506 28.787C21.1506 28.787 20.7586 29.736 19.5696 29.895C19.5696 29.895 18.8796 29.02 19.7736 27.844C19.7736 27.844 19.1316 28.421 17.9666 28.144C17.9666 28.144 17.7806 27.544 18.8336 26.714C18.8336 26.714 17.6416 26.667 17.1846 25.652C17.1846 25.652 17.6886 25.028 18.9246 25.168C18.9246 25.168 17.7806 24.913 17.5276 23.529C17.5276 23.529 18.3526 22.999 19.6596 23.852C19.6596 23.852 19.4276 23.415 18.8796 22.977C18.3306 22.537 17.6646 21.315 17.8956 19.517V19.517ZM22.6926 33.431C22.5314 33.2194 22.3971 32.9886 22.2926 32.744C22.4986 34.422 22.5696 35.553 23.4706 36.64C23.4706 36.64 24.0136 35.913 23.6646 34.147C23.4921 34.0966 23.3285 34.0196 23.1796 33.919C23.1796 33.919 23.3846 34.636 23.2546 35.357C23.2546 35.357 22.9326 35.121 22.6926 33.431ZM21.1346 33.257C20.9784 33.0567 20.8367 32.8455 20.7106 32.625C20.6366 33.6 20.3796 36.163 21.2336 36.967C21.2336 36.967 21.8196 36.536 22.0236 32.794C21.9006 33.004 21.6836 33.227 21.5766 33.349C21.5766 33.349 21.7196 34.536 21.2966 35.374C21.2966 35.374 20.8736 35.05 21.1346 33.257ZM19.0996 35.217C19.8146 34.352 20.0316 31.761 20.0316 31.761C20.1316 31.693 20.2296 31.621 20.3326 31.54C20.3686 31.506 20.4106 31.473 20.4476 31.436C20.4476 31.529 20.4516 31.628 20.4616 31.726C20.3576 33.286 20.2356 34.892 19.7516 35.692C19.2776 36.477 18.4046 36.883 18.4046 36.883C17.5896 35.42 18.5746 33.458 19.4046 32.093C19.5046 32.055 19.6076 32.006 19.7136 31.953C19.4236 33.003 18.8706 34.253 19.0996 35.216V35.217ZM17.0716 30.719C17.0663 30.8835 17.0963 31.0471 17.1596 31.199C16.4746 31.875 15.9676 32.522 14.9536 33.939C13.9386 35.357 12.3306 35.414 12.3306 35.414C12.4866 34.265 12.7956 33.358 13.6576 32.379C14.5176 31.401 15.6176 30.506 16.4256 29.915C16.7083 30.0397 17.0222 30.0753 17.3256 30.017C17.2296 30.1416 17.1593 30.284 17.1186 30.436C16.5046 30.789 14.7286 31.696 14.0086 33.159C14.0086 33.159 15.1326 32.801 17.0716 30.719V30.719ZM15.7996 29.29L15.8646 29.168C15.8906 29.128 15.9106 29.092 15.9386 29.058C15.2766 29.315 12.9236 30.209 12.1626 30.605C11.4006 31.005 10.2976 31.905 9.69962 33.738C9.69962 33.738 11.2876 33.88 12.5976 32.79C13.9096 31.695 15.4376 30.173 16.0896 29.69C16.0334 29.6388 15.9828 29.5818 15.9386 29.52C15.9386 29.52 14.1636 31.1 12.2886 31.784C12.2886 31.784 12.6886 31.05 13.4316 30.519C14.3336 29.874 15.0096 29.657 15.7996 29.29ZM14.4516 28.207C14.4776 28.144 14.5036 28.084 14.5316 28.028C13.7536 28.186 11.8146 28.421 10.9456 28.687C10.0796 28.957 8.51162 29.594 7.58062 31.382C7.58062 31.382 8.94662 31.805 11.5236 30.586C14.1006 29.364 14.9096 29.11 15.4006 28.979C15.1133 28.9618 14.8343 28.8753 14.5876 28.727C13.5596 29.189 12.1846 29.733 10.8196 29.77C10.8196 29.77 11.4906 29.292 12.1996 28.99C12.9656 28.67 13.8096 28.375 14.4516 28.207V28.207ZM14.5186 26.923C14.7696 27.042 14.9636 27.101 15.2936 27.135C15.1136 27.253 14.9436 27.401 14.7916 27.601C13.8826 27.865 12.3326 28.152 9.77762 28.338C7.22562 28.521 5.86162 28.051 5.86162 28.051C6.75162 27.503 8.17162 26.947 9.13162 26.761C10.0916 26.573 12.6116 26.595 13.7166 26.443C13.7286 26.456 13.8626 26.565 14.0806 26.697C13.1506 26.781 11.1706 26.873 10.1506 27.397C10.1506 27.397 12.0346 27.648 14.5186 26.923ZM14.3256 25.444C14.4556 25.368 14.6096 25.291 14.8006 25.22C13.5066 24.827 11.7326 24.196 9.05862 24.022C7.09962 23.892 5.68662 24.006 4.95362 24.196C4.95362 24.196 6.73962 25.461 8.77762 25.906C10.8196 26.354 12.4766 26.072 13.6876 26.083C13.7656 25.963 13.8576 25.827 13.9996 25.692C12.5816 25.701 10.2266 25.332 9.38362 25.048C9.38362 25.048 11.4386 24.618 14.3256 25.444ZM14.3196 23.914C14.3256 23.951 14.4776 24.684 15.3226 25.09C13.5066 24.29 9.93062 23.83 8.00662 23.026C5.40862 21.938 4.93262 20.581 4.93262 20.581C7.18262 20.521 9.00062 21.073 10.4026 21.507C12.0436 22.012 14.5426 22.952 15.4166 23.345C15.0644 23.357 14.7221 23.4648 14.4266 23.657C13.2066 23.185 12.6376 22.985 11.5296 22.673C10.6526 22.426 10.0066 22.378 9.45962 22.325C9.45962 22.325 10.2296 22.837 11.4976 23.245C12.7546 23.65 13.2986 23.717 14.3186 23.914H14.3196ZM14.1826 21.919C14.2546 22.048 14.4696 22.357 14.5546 22.479C11.6836 21.995 8.52562 19.81 7.54962 18.455C6.57362 17.099 6.84962 15.078 6.84962 15.078C7.79662 15.268 9.85462 17.055 10.3876 17.594C10.9216 18.129 12.5296 19.707 13.6446 20.586L13.9916 21.603C13.0717 20.8659 12.1409 20.1425 11.1996 19.433C10.6556 19.021 9.84262 18.435 9.03262 18.158C9.03262 18.158 9.77862 19.134 10.3796 19.612C11.0736 20.164 11.7796 20.642 12.3596 20.962C12.8746 21.248 13.1396 21.409 14.1826 21.919" fill="white"></path> <path fill-rule="evenodd" clip-rule="evenodd" d="M22.2799 30.007C22.359 29.9379 22.4341 29.8644 22.5049 29.787C22.6379 29.954 23.0819 30.511 23.3019 31.067C23.4649 31.541 23.6419 32.187 23.7299 32.556C23.8179 32.923 24.0769 33.693 24.2369 33.956C24.2369 33.956 23.5369 34.044 23.0199 33.435C22.5109 32.838 22.3399 32.237 22.2599 31.621C22.1929 31.138 22.2179 30.468 22.2799 30.008V30.007ZM21.1779 30.099C21.3079 30.274 21.4329 30.345 21.4449 30.353L21.5409 30.402L21.6369 30.368C21.7269 30.341 21.8049 30.309 21.8799 30.271C21.9829 30.556 22.0249 30.693 22.0489 30.934C22.0809 31.256 22.1429 31.764 22.0249 32.177C21.8799 32.681 21.5769 32.99 21.4119 33.183C21.4119 33.183 20.9539 32.676 20.8239 32.259C20.6879 31.821 20.6389 31.312 20.8079 30.79C20.8999 30.507 21.0459 30.248 21.1779 30.099ZM19.6019 30.147C19.9956 30.0994 20.3706 29.9517 20.6909 29.718C20.7509 29.884 20.8429 30.107 20.7759 30.423C20.7039 30.74 20.4869 31.089 20.1759 31.343C19.7009 31.721 19.0719 32.078 18.3739 31.97C18.3739 31.97 18.2139 31.441 19.6019 30.148V30.147ZM19.0719 29.267C19.1309 29.736 19.3529 30.031 19.3679 30.054C19.2059 30.25 18.6179 31.265 17.3919 31.097C17.3919 31.097 17.0579 30.404 17.8759 29.853C18.4279 29.48 18.6929 29.403 19.0719 29.267ZM19.1799 28.397C18.7617 28.4988 18.325 28.4964 17.9079 28.39L17.7659 28.356L17.7219 28.218C17.0919 28.735 16.3419 28.823 16.0849 29.292C16.0849 29.292 16.3999 29.875 17.2179 29.78C17.5834 29.7417 17.9375 29.6301 18.2588 29.4517C18.5801 29.2734 18.8621 29.032 19.0879 28.742C19.1049 28.66 19.1419 28.504 19.1789 28.398L19.1799 28.397ZM17.7659 27.67C17.8799 27.496 17.9599 27.227 18.2059 26.955C17.6552 26.8532 17.0898 26.8607 16.5419 26.977C15.7879 27.118 15.0179 27.297 14.6329 28.455C14.6329 28.455 15.1149 28.869 15.9959 28.69C16.7439 28.534 17.3929 28.212 17.7659 27.67ZM17.4439 26.417C17.2347 26.2351 17.0675 26.0099 16.9539 25.757L16.8929 25.613C16.2389 25.345 15.5579 25.208 14.8879 25.456C14.2209 25.709 14.0459 25.996 13.8779 26.248C13.8779 26.248 14.6179 26.871 15.4659 26.892C16.3159 26.921 17.1019 26.672 17.4439 26.418V26.417ZM17.6419 25.066C17.7539 25.023 17.8799 24.983 18.0219 24.954C17.6625 24.627 17.4143 24.1959 17.3119 23.721C17.0079 23.792 16.2959 23.792 15.9819 23.673C15.6669 23.552 15.0499 23.546 14.5689 23.865C14.5689 23.865 14.7289 24.716 15.8169 25.006C16.8449 25.278 17.2229 25.208 17.6419 25.066V25.066ZM17.2499 23.409L17.3929 23.316C17.4129 23.304 17.6559 23.153 18.0719 23.12C17.7219 22.858 16.8839 22.152 16.2959 21.813C15.6479 21.449 14.5759 20.967 14.0309 20.894C14.0309 20.894 14.5429 22.244 15.1359 22.791C15.7569 23.357 16.1889 23.566 17.2489 23.409H17.2499ZM18.3529 22.787C18.0889 22.446 17.8839 21.975 17.7329 21.418C17.6099 20.967 17.3269 19.844 17.1599 19.554C16.9929 19.262 16.3899 18.246 15.2119 17.928C15.2119 17.928 14.8979 19.256 15.4909 20.303C16.0009 21.208 17.0499 22.161 18.3529 22.787V22.787ZM24.8899 28.951C25.0349 29.101 25.1469 29.181 25.4099 29.314C25.4099 29.314 25.7859 30.036 25.3299 30.909C24.8729 31.781 24.4899 32.669 24.3069 33.166C24.3069 33.166 24.0619 33.128 23.7899 31.764C23.6069 30.839 23.3739 30.607 23.1299 30.29C23.3959 30.424 23.6099 30.464 23.6279 30.468L23.8099 30.499L23.8919 30.336C24.0686 29.9981 24.1374 29.6142 24.0889 29.236C24.5129 29.247 24.7379 29.032 24.8259 28.923C24.8319 28.911 24.8399 28.905 24.8439 28.895L24.8899 28.951" fill="white"></path> <path fill-rule="evenodd" clip-rule="evenodd" d="M14.8814 18.484C14.876 18.6229 14.8746 18.762 14.8774 18.901L14.9014 19.227C14.2044 18.333 13.3734 17.257 12.5794 16.263C12.0344 15.583 11.5734 15.171 11.0634 14.839C11.4904 16.099 12.2654 17.106 12.8104 17.609C13.3544 18.109 14.1484 18.956 14.9184 19.472L14.9924 19.728C15.0524 19.962 15.1444 20.203 15.2734 20.429C15.4514 20.748 15.6884 21.062 15.9674 21.366C15.7434 21.254 15.4874 21.133 15.2274 21.023L14.9894 20.923C12.8674 19.791 10.7674 17.446 9.9144 15.814C9.0604 14.183 9.4174 12.289 9.6414 11.275C10.6044 12.097 11.9894 13.713 12.5934 14.594C13.3374 15.672 14.2914 17.201 14.8784 18.446L14.8814 18.484V18.484ZM44.6194 25.444C44.4692 25.3552 44.3112 25.2802 44.1474 25.22C45.4384 24.827 47.2154 24.196 49.8874 24.022C51.8474 23.892 53.2634 24.006 53.9944 24.196C53.9944 24.196 52.2104 25.461 50.1684 25.906C48.1284 26.354 46.4714 26.072 45.2604 26.083C45.172 25.9407 45.0669 25.8094 44.9474 25.692C46.3654 25.701 48.7234 25.332 49.5644 25.048C49.5644 25.048 47.5094 24.618 44.6204 25.444H44.6194ZM44.6274 23.914C44.6204 23.951 44.4684 24.684 43.6234 25.09C45.4394 24.29 49.0184 23.83 50.9394 23.026C53.5394 21.938 54.0144 20.581 54.0144 20.581C51.7644 20.521 49.9464 21.073 48.5444 21.507C46.9044 22.012 44.4044 22.952 43.5284 23.345C43.8584 23.357 44.2154 23.454 44.5204 23.657C45.7414 23.185 46.3094 22.985 47.4194 22.673C48.2934 22.426 48.9394 22.378 49.4874 22.325C49.4874 22.325 48.7184 22.837 47.4494 23.245C46.1904 23.65 45.6474 23.717 44.6274 23.914V23.914ZM44.7644 21.919C44.6944 22.048 44.4774 22.357 44.3924 22.479C47.2634 21.995 50.4224 19.81 51.3974 18.455C52.3774 17.099 52.0984 15.078 52.0984 15.078C51.1494 15.268 49.0924 17.055 48.5594 17.594C48.0264 18.129 46.4174 19.707 45.3014 20.586L44.9544 21.603C45.9084 20.829 47.0414 19.968 47.7494 19.433C48.2914 19.021 49.1044 18.435 49.9134 18.158C49.9134 18.158 49.1694 19.134 48.5674 19.612C47.9452 20.1151 47.283 20.5666 46.5874 20.962C46.0734 21.248 45.8094 21.409 44.7644 21.919V21.919ZM44.0674 18.484C44.0714 18.613 44.0744 18.752 44.0684 18.901L44.0444 19.227C44.7404 18.333 45.5744 17.257 46.3684 16.263C46.9134 15.583 47.3754 15.171 47.8854 14.839C47.4534 16.099 46.6834 17.106 46.1354 17.609C45.5914 18.109 44.8024 18.956 44.0304 19.472L43.9544 19.728C43.8944 19.962 43.8044 20.203 43.6744 20.429C43.4944 20.748 43.2614 21.062 42.9794 21.366C43.2034 21.254 43.4594 21.133 43.7194 21.023L43.9574 20.923C46.0794 19.791 48.1824 17.446 49.0324 15.814C49.8824 14.183 49.5324 12.289 49.3054 11.275C48.3424 12.097 46.9564 13.713 46.3514 14.594C45.6084 15.672 44.6574 17.201 44.0674 18.446V18.484V18.484ZM17.5894 31.371C16.7154 32.251 14.8734 34.224 15.0444 36.365C15.0444 36.365 16.7584 35.827 17.4614 34.563C18.1684 33.302 18.6034 32.51 18.8984 32.226C18.7084 32.25 18.5184 32.25 18.3334 32.219L18.1794 32.195C17.7444 32.992 16.8834 34.293 16.1094 34.748C16.1094 34.748 15.9104 33.693 18.1884 31.553C18.2194 31.466 18.2664 31.364 18.3304 31.254C18.1224 31.331 17.8844 31.374 17.6184 31.37L17.5894 31.371ZM41.0514 19.517C40.6164 20.484 39.9014 21.476 37.9594 22.815C37.5224 23.115 37.0424 23.738 37.4084 24.615C37.7734 25.491 38.4634 26.735 38.0484 27.222C37.6384 27.706 36.1714 27.959 34.9774 27.477C34.9774 27.477 34.7274 28.235 34.2924 28.721C34.2924 28.721 34.4964 29.139 35.1864 28.928C35.1864 28.928 34.9344 29.551 35.2764 30.221C35.2764 30.221 36.0794 30.083 36.4204 29.343C36.4204 29.343 36.7424 29.919 37.3864 30.127C37.3864 30.127 37.9154 29.853 37.7984 28.787C37.7984 28.787 38.1864 29.736 39.3804 29.895C39.3804 29.895 40.0684 29.02 39.1714 27.844C39.1714 27.844 39.8144 28.421 40.9834 28.144C40.9834 28.144 41.1664 27.544 40.1094 26.714C40.1094 26.714 41.3054 26.667 41.7644 25.652C41.7644 25.652 41.2584 25.028 40.0224 25.168C40.0224 25.168 41.1664 24.913 41.4184 23.529C41.4184 23.529 40.5934 22.999 39.2884 23.852C39.2884 23.852 39.5164 23.415 40.0654 22.977C40.6164 22.537 41.2824 21.315 41.0514 19.517V19.517ZM36.2554 33.431C36.414 33.2175 36.5485 32.9871 36.6564 32.744C36.4514 34.422 36.3764 35.553 35.4764 36.64C35.4764 36.64 34.9344 35.913 35.2814 34.147C35.4354 34.103 35.6034 34.03 35.7694 33.919C35.7694 33.919 35.5624 34.636 35.6894 35.357C35.6894 35.357 36.0194 35.121 36.2554 33.431V33.431ZM37.8134 33.257C37.9214 33.12 38.1304 32.831 38.2374 32.625C38.3114 33.6 38.5664 36.163 37.7124 36.967C37.7124 36.967 37.1274 36.536 36.9204 32.794C37.0454 33.004 37.2624 33.227 37.3664 33.349C37.3664 33.349 37.2264 34.536 37.6494 35.374C37.6494 35.374 38.0734 35.05 37.8134 33.257ZM39.8494 35.217C39.1294 34.352 38.9144 31.761 38.9144 31.761C38.7682 31.6627 38.6291 31.5541 38.4984 31.436C38.4984 31.529 38.4954 31.628 38.4874 31.726C38.5874 33.286 38.7144 34.892 39.1954 35.692C39.6694 36.477 40.5394 36.883 40.5394 36.883C41.3584 35.42 40.3694 33.458 39.5434 32.093C39.4384 32.0524 39.3359 32.0057 39.2364 31.953C39.5244 33.003 40.0764 34.253 39.8494 35.216V35.217ZM41.8724 30.719C41.8804 30.885 41.8474 31.024 41.8254 31.092C41.8146 31.1281 41.8026 31.1637 41.7894 31.199C42.4704 31.875 42.9794 32.522 43.9934 33.939C45.0084 35.357 46.6154 35.414 46.6154 35.414C46.4624 34.265 46.1514 33.358 45.2904 32.379C44.4304 31.401 43.3324 30.506 42.5224 29.915C42.2646 30.0283 41.9803 30.0678 41.7014 30.029C41.6744 30.0276 41.6476 30.0235 41.6214 30.017C41.7284 30.161 41.7934 30.304 41.8294 30.436C42.4414 30.789 44.2224 31.696 44.9394 33.159C44.9394 33.159 43.8144 32.801 41.8724 30.719V30.719ZM43.1494 29.29L43.0814 29.168C43.0605 29.1298 43.0372 29.0931 43.0114 29.058C43.6714 29.315 46.0254 30.209 46.7854 30.605C47.5464 31.005 48.6464 31.905 49.2444 33.738C49.2444 33.738 47.6594 33.88 46.3474 32.79C45.0374 31.695 43.5074 30.173 42.8574 29.69C42.9234 29.629 42.9724 29.57 43.0104 29.52C43.0104 29.52 44.7844 31.1 46.6574 31.784C46.6574 31.784 46.2574 31.05 45.5194 30.519C44.6134 29.874 43.9394 29.657 43.1494 29.29V29.29ZM44.4924 28.207C44.4699 28.146 44.4442 28.0863 44.4154 28.028C45.1924 28.186 47.1344 28.421 48.0024 28.687C48.8664 28.957 50.4364 29.594 51.3664 31.382C51.3664 31.382 50.0014 31.805 47.4214 30.586C44.8434 29.364 44.0394 29.11 43.5474 28.979C43.9374 28.95 44.2154 28.817 44.3604 28.727C45.3884 29.189 46.7644 29.733 48.1284 29.77C48.1284 29.77 47.4534 29.292 46.7484 28.99C46.0141 28.6806 45.2605 28.419 44.4924 28.207V28.207ZM44.4304 26.923C44.1875 27.0421 43.9241 27.114 43.6544 27.135C43.8344 27.253 44.0054 27.401 44.1594 27.601C45.0674 27.865 46.6124 28.152 49.1694 28.338C51.7234 28.521 53.0844 28.051 53.0844 28.051C52.1954 27.503 50.7784 26.947 49.8184 26.761C48.8564 26.573 46.3354 26.595 45.2294 26.443C45.1148 26.5365 44.9935 26.6214 44.8664 26.697C45.7974 26.781 47.7764 26.873 48.7984 27.397C48.7984 27.397 46.9134 27.648 44.4304 26.923Z" fill="white"></path> <path fill-rule="evenodd" clip-rule="evenodd" d="M36.6662 30.007C36.5879 29.9361 36.5119 29.8627 36.4382 29.787C36.3082 29.954 35.8652 30.511 35.6482 31.067C35.4822 31.541 35.3052 32.187 35.2192 32.556C35.1292 32.923 34.8672 33.693 34.7092 33.956C34.7092 33.956 35.4092 34.044 35.9272 33.435C36.4372 32.838 36.6072 32.237 36.6902 31.621C36.7455 31.0842 36.7374 30.5428 36.6662 30.008V30.007ZM37.7662 30.099C37.6372 30.274 37.5142 30.345 37.5012 30.353L37.4082 30.402L37.3072 30.368C37.2247 30.3422 37.1445 30.3098 37.0672 30.271C36.981 30.4832 36.9244 30.7063 36.8992 30.934C36.8642 31.256 36.8032 31.764 36.9202 32.177C37.0682 32.681 37.3662 32.99 37.5342 33.183C37.5342 33.183 37.9922 32.676 38.1242 32.259C38.2592 31.821 38.3082 31.312 38.1422 30.79C38.061 30.5383 37.9335 30.3039 37.7662 30.099V30.099ZM39.3462 30.147C38.9523 30.0992 38.5771 29.9515 38.2562 29.718C38.1982 29.884 38.1042 30.107 38.1742 30.423C38.2412 30.74 38.4592 31.089 38.7762 31.343C39.2442 31.721 39.8762 32.078 40.5752 31.97C40.5752 31.97 40.7352 31.441 39.3462 30.148V30.147ZM39.8722 29.267C39.8172 29.736 39.5942 30.031 39.5762 30.054C39.7392 30.25 40.3272 31.265 41.5602 31.097C41.5602 31.097 41.8882 30.404 41.0742 29.853C40.5162 29.48 40.2542 29.403 39.8722 29.267V29.267ZM39.7652 28.397C40.1848 28.4986 40.6228 28.4962 41.0412 28.39L41.1832 28.356L41.2232 28.218C41.8552 28.735 42.6042 28.823 42.8622 29.292C42.8622 29.292 42.5472 29.875 41.7302 29.78C41.3644 29.7418 41.01 29.6302 40.6884 29.4519C40.3667 29.2735 40.0843 29.0321 39.8582 28.742C39.8365 28.625 39.8054 28.51 39.7652 28.398V28.397ZM41.1832 27.67C41.0662 27.496 40.9832 27.227 40.7412 26.955C41.292 26.8533 41.8573 26.8608 42.4052 26.977C43.1592 27.118 43.9292 27.297 44.3152 28.455C44.3152 28.455 43.8282 28.869 42.9482 28.69C42.2042 28.534 41.5542 28.212 41.1832 27.67ZM41.5022 26.417C41.6922 26.251 41.8662 26.037 41.9922 25.757L42.0542 25.613C42.7102 25.345 43.3922 25.208 44.0562 25.456C44.7262 25.709 44.9002 25.996 45.0722 26.248C45.0722 26.248 44.3322 26.871 43.4802 26.892C42.6302 26.921 41.8442 26.672 41.5022 26.418V26.417ZM41.3052 25.066C41.1808 25.0183 41.0527 24.9809 40.9222 24.954C41.2132 24.698 41.4982 24.305 41.6362 23.721C41.9402 23.792 42.6532 23.792 42.9672 23.673C43.2812 23.552 43.8972 23.546 44.3792 23.865C44.3792 23.865 44.2222 24.716 43.1292 25.006C42.0992 25.278 41.7222 25.208 41.3052 25.066V25.066ZM41.6962 23.409L41.5542 23.316C41.5342 23.304 41.2902 23.153 40.8712 23.12C41.2252 22.858 42.0582 22.152 42.6532 21.813C43.2992 21.449 44.3692 20.967 44.9192 20.894C44.9192 20.894 44.4052 22.244 43.8092 22.791C43.1912 23.357 42.7582 23.566 41.6962 23.409V23.409ZM40.5932 22.787C40.8572 22.446 41.0622 21.975 41.2132 21.418C41.3392 20.967 41.6212 19.844 41.7892 19.554C41.9582 19.262 42.5592 18.246 43.7372 17.928C43.7372 17.928 44.0512 19.256 43.4572 20.303C42.9452 21.208 41.8992 22.161 40.5932 22.787V22.787ZM34.0612 28.951C33.9095 29.1022 33.7321 29.2251 33.5372 29.314C33.5372 29.314 33.1592 30.036 33.6172 30.909C34.0712 31.781 34.4552 32.669 34.6412 33.166C34.6412 33.166 34.8852 33.128 35.1562 31.764C35.3412 30.839 35.5742 30.607 35.8152 30.29C35.5502 30.424 35.3392 30.464 35.3202 30.468L35.1392 30.499L35.0552 30.336C34.9145 30.0685 34.8424 29.7702 34.8452 29.468C34.8452 29.386 34.8492 29.308 34.8582 29.237C34.4342 29.247 34.2082 29.032 34.1242 28.923C34.1142 28.911 34.1072 28.905 34.1022 28.895L34.0612 28.951" fill="white"></path> <path fill-rule="evenodd" clip-rule="evenodd" d="M41.3587 31.371C42.2317 32.251 44.0747 34.224 43.8997 36.365C43.8997 36.365 42.1877 35.827 41.4857 34.563C40.7787 33.302 40.3457 32.51 40.0487 32.226C40.2367 32.25 40.4267 32.25 40.6137 32.219L40.7707 32.195C41.2037 32.992 42.0647 34.293 42.8397 34.748C42.8397 34.748 43.0357 33.693 40.7597 31.553C40.7204 31.4496 40.6726 31.3495 40.6167 31.254C40.8237 31.331 41.0627 31.374 41.3277 31.37L41.3587 31.371ZM28.1367 14.294C28.1367 14.136 28.7367 14.006 29.4737 14.006C30.2137 14.006 30.8107 14.136 30.8107 14.294C30.8107 14.451 30.2127 14.58 29.4737 14.58C28.7357 14.58 28.1367 14.45 28.1367 14.294ZM29.7347 14.925C29.735 14.9595 29.7284 14.9937 29.7154 15.0257C29.7025 15.0576 29.6833 15.0867 29.659 15.1112C29.6348 15.1357 29.6059 15.1552 29.5741 15.1686C29.5423 15.1819 29.5082 15.1889 29.4737 15.189C29.4037 15.1887 29.3366 15.1609 29.287 15.1115C29.2374 15.062 29.2092 14.995 29.2087 14.925C29.2087 14.779 29.3287 14.661 29.4737 14.661C29.6197 14.661 29.7337 14.779 29.7337 14.925H29.7347ZM28.0397 14.014C27.5977 12.947 27.2997 12.158 27.3097 11.895C27.3177 11.737 27.5067 11.618 27.6857 11.563C27.8607 11.507 28.0177 11.496 28.1357 11.587C28.3687 11.766 28.5817 13.207 28.6627 13.805C28.4387 13.848 28.3027 13.877 28.0407 14.014H28.0397ZM28.8537 13.783C28.9647 13.768 29.0817 13.763 29.1987 13.758C29.1122 13.1171 28.9846 12.4825 28.8167 11.858C28.6997 11.481 28.5527 11.211 28.3067 11.143C28.3067 11.143 28.4967 11.667 28.6027 12.208C28.7067 12.75 28.7857 13.267 28.8527 13.783H28.8537ZM27.4457 15.693C27.9357 15.577 28.4387 15.049 28.4387 15.049C27.6457 15.164 27.4457 15.693 27.4457 15.693ZM28.1807 15.646C27.4957 16.046 26.7307 15.986 26.7307 15.986C26.8787 15.712 27.0177 15.459 27.4457 15.152C27.8737 14.844 28.5717 14.767 28.8457 14.805C28.7847 15.01 28.5057 15.453 28.1807 15.645V15.646ZM25.6267 16.777V16.722C24.9547 16.808 24.1627 16.773 24.1627 16.773C24.2027 17.024 24.3067 17.215 24.4837 17.332C24.5267 16.782 25.6267 16.777 25.6267 16.777V16.777ZM23.3957 16.052C23.3957 16.052 24.2457 16.369 25.0977 16.329C25.9457 16.285 27.5137 16.268 28.0177 16.019C28.0177 16.019 27.9367 16.341 27.5317 16.526C27.5317 16.526 27.7447 16.526 27.9517 16.71C27.9517 16.71 27.8307 16.975 27.4687 17.116C27.4687 17.116 28.1167 17.792 28.8117 17.744C28.8117 17.744 28.4917 18.144 27.7817 17.99C27.0717 17.836 26.8437 17.436 26.7237 17.282C26.7237 17.282 26.8157 17.665 26.7717 17.819C26.7717 17.819 26.4597 17.8 26.2167 17.492C26.2167 17.492 26.3937 17.8 26.4307 18.06C26.4307 18.06 26.2347 18.082 25.8837 17.874C25.8837 17.874 25.9567 18.066 25.9707 18.286C25.9707 18.286 25.1497 18.022 24.7517 17.646C24.7517 17.646 24.7467 17.906 24.7667 18.052C24.7667 18.052 23.4937 17.922 23.3957 16.052V16.052ZM23.1997 16.182C23.2307 16.587 23.3337 16.986 23.4747 17.269C23.4747 17.269 22.9737 16.891 22.8517 16.569C22.7267 16.249 22.6967 16.028 23.1987 16.182H23.1997ZM22.1927 17.72C22.2484 17.72 22.3018 17.6979 22.3412 17.6585C22.3806 17.6191 22.4027 17.5657 22.4027 17.51C22.4027 17.4543 22.3806 17.4009 22.3412 17.3615C22.3018 17.3221 22.2484 17.3 22.1927 17.3C22.1654 17.3004 22.1385 17.3062 22.1135 17.317C22.0885 17.3278 22.0658 17.3435 22.0469 17.3631C22.0279 17.3827 22.013 17.4059 22.003 17.4313C21.993 17.4566 21.9882 17.4837 21.9887 17.511C21.9887 17.628 22.0807 17.721 22.1927 17.721V17.72ZM23.4207 17.474C23.7557 17.628 24.0547 17.993 24.0547 17.993C23.5467 18.11 23.3217 18.256 23.3217 18.256C22.3477 17.566 21.5467 18.26 21.5467 18.26C21.0197 17.962 20.9187 17.228 21.1817 16.84C21.4447 16.45 22.0387 16.52 22.3197 16.587C22.4987 17.155 23.1187 17.337 23.4197 17.474H23.4207ZM24.1657 18.119C24.1657 18.119 24.5187 18.595 24.7787 18.804C24.7787 18.804 23.4687 18.792 23.1387 19.933C23.1387 19.933 22.6857 19.233 23.0167 18.778C23.3737 18.288 23.7007 18.228 24.1657 18.119Z" fill="white"></path> <path fill-rule="evenodd" clip-rule="evenodd" d="M25.6012 18.403C25.6012 18.403 26.0243 18.528 26.1663 18.565C26.1663 18.565 26.1703 18.319 26.1623 18.2C26.2893 18.231 26.4473 18.272 26.5833 18.286C26.5833 18.286 27.0043 19.234 27.3353 19.616C27.3353 19.616 27.3542 19.826 27.1702 20.146C27.1702 20.146 26.9303 19.586 26.5013 19.136C26.2593 18.884 26.1042 18.755 25.6012 18.403V18.403ZM24.4893 18.2C24.6263 18.237 25.3023 18.45 25.6263 18.688C26.0373 18.982 26.3193 19.321 26.2743 19.905C26.2743 19.905 25.9443 19.442 25.5793 19.234C25.2903 19.067 24.7663 18.607 24.4893 18.2ZM24.4993 13.911C24.6233 13.911 24.8643 13.971 24.8643 14.172C24.8643 14.377 24.5533 14.865 24.4683 15.082H24.4603C24.3773 14.865 24.0613 14.377 24.0613 14.172C24.0613 13.972 24.3063 13.912 24.4303 13.912H24.4983L24.4993 13.911ZM24.2243 15.487C24.1663 15.203 24.0543 14.465 23.8813 14.303C23.7163 14.146 23.4712 14.131 23.3512 14.138C23.3166 14.1405 23.2831 14.1509 23.2531 14.1684C23.2231 14.1858 23.1974 14.2098 23.178 14.2386C23.1587 14.2674 23.1461 14.3002 23.1413 14.3346C23.1365 14.369 23.1395 14.404 23.1502 14.437C23.1982 14.607 23.7403 15.424 23.8113 15.527C23.9373 15.505 23.9133 15.513 24.2243 15.487V15.487ZM24.7052 15.487C24.7652 15.203 24.8752 14.465 25.0492 14.303C25.2132 14.146 25.4593 14.131 25.5793 14.138C25.614 14.1405 25.6477 14.1509 25.6779 14.1682C25.7081 14.1855 25.734 14.2095 25.7537 14.2382C25.7734 14.2669 25.7863 14.2997 25.7916 14.3341C25.7969 14.3685 25.7944 14.4037 25.7843 14.437C25.7303 14.607 25.1893 15.424 25.1173 15.527C24.9933 15.505 25.0172 15.513 24.7052 15.487V15.487ZM25.0543 12.92H24.6313V12.451H24.2913V12.921H23.8643V13.217H24.2903V13.768H24.6303V13.218H25.0543V12.92ZM19.9333 15.955C19.9333 15.862 19.9373 15.772 19.9513 15.683C19.9833 15.453 19.9863 15.258 19.9613 15.095C19.6563 15.213 19.4512 15.287 19.0312 15.968C19.0312 15.968 19.7003 15.554 19.9333 15.955V15.955ZM20.5163 17.032C20.5253 16.864 20.6363 16.329 20.7763 15.956C20.9463 15.491 20.8463 14.822 20.6403 14.414C20.4423 14.022 20.3343 13.654 20.3673 13.247C20.3673 13.247 19.9753 13.38 19.7463 13.521C19.7103 13.993 19.9833 14.465 20.1133 14.733C20.2673 15.05 20.2353 15.463 20.2013 15.717C20.1413 16.147 20.2293 16.603 20.5163 17.032V17.032ZM20.5603 13.427C20.5423 13.34 20.5467 13.2498 20.5732 13.165C20.5732 13.165 21.1973 12.555 21.7213 12.451C22.0513 12.381 22.2533 12.53 22.3533 12.611C22.3533 12.611 22.1703 12.591 21.8903 12.821C21.6103 13.048 21.2623 13.322 21.0023 13.391C20.7413 13.461 20.6873 13.441 20.5603 13.427ZM22.4053 12.657C22.6373 12.893 22.8373 13.143 22.8313 13.359C22.8283 13.583 22.5693 14.146 22.4353 14.359C22.2993 14.573 22.1002 14.854 22.1222 15.195C22.1352 15.365 22.2523 15.539 22.3923 15.684C22.3923 15.684 21.6293 15.502 21.5343 15.028C21.4543 14.603 21.6342 14.308 21.7572 14.073C21.8702 13.851 22.2213 13.337 22.3113 13.123C22.3913 12.928 22.4353 12.766 22.4053 12.658V12.657ZM26.8603 17.997C27.0103 18.542 27.2703 19.052 27.5263 19.452C27.7563 19.819 27.9023 20.411 27.8813 20.612C27.8813 20.612 28.2253 19.847 28.0513 19.307C27.9113 18.887 27.5423 18.26 26.8603 17.997V17.997ZM27.7183 18.176C27.7183 18.176 28.2422 18.186 28.4862 18.348C28.8002 18.556 29.0983 19.013 29.2153 19.56C29.2153 19.56 28.6853 19.467 28.4253 19.206C28.1633 18.943 27.8413 18.55 27.7183 18.176ZM25.0112 19.127C24.9112 19.135 24.6422 19.197 24.5112 19.237C24.5112 19.237 24.9563 19.368 25.1793 19.554C25.3703 19.711 25.5343 19.954 25.6093 20.364C25.7183 20.937 26.0513 21.554 26.1513 21.739L26.1923 21.732C26.1323 21.337 26.3743 20.519 26.4403 20.4C26.4403 20.4 26.0853 20.178 25.9223 19.946C25.8023 19.776 25.5943 19.492 25.0123 19.128L25.0112 19.127ZM27.3293 20.358C27.4583 20.658 27.8043 21.192 27.6423 21.748C27.4823 22.304 27.1193 22.543 26.8973 23.016C26.8973 23.016 26.7233 22.163 26.7593 21.506C26.7993 20.849 27.0373 20.596 27.3293 20.358V20.358ZM28.3333 20.38C28.3333 20.38 28.8533 21.395 28.9473 21.792C29.0373 22.186 28.9532 22.449 28.7752 22.69C28.6022 22.927 28.3013 23.185 28.0243 23.686C28.0243 23.686 27.7033 23.259 27.6653 23.036C27.6283 22.813 27.6883 22.28 27.7583 22.058C27.8263 21.831 28.1003 21.113 28.3333 20.38V20.38ZM28.5993 23.619C28.4863 23.744 27.8793 24.479 27.7973 24.693C27.7153 24.906 27.5742 25.312 27.7612 25.595C27.9512 25.878 28.3862 26.325 28.7612 26.515C28.7612 26.515 28.3513 25.871 28.3953 25.342C28.4193 25.003 28.6803 24.702 28.7303 24.495C28.7803 24.291 28.7483 23.942 28.5993 23.619V23.619ZM27.4093 23.214C27.5033 23.344 27.6652 23.661 27.6882 23.969C27.7112 24.272 27.6613 24.516 27.4963 24.961C27.2903 25.523 26.9662 26.148 26.8162 26.431C26.8162 26.431 26.5313 26.019 26.3733 25.652C26.3733 25.652 26.8192 25.036 27.0112 24.602C27.2302 24.09 27.3213 23.617 27.4093 23.214V23.214ZM27.2043 22.977C27.2043 22.977 27.0103 24.422 26.1663 25.494C25.5943 26.22 25.1303 26.474 24.8213 26.474C24.3583 26.474 23.8913 26.084 23.7373 25.638C23.5793 25.195 23.6312 24.503 23.9312 24.258C23.9312 24.258 24.2072 25.125 24.8022 25.156C25.4752 25.195 26.3383 24.436 27.2043 22.976" fill="white"></path> <path fill-rule="evenodd" clip-rule="evenodd" d="M26.5107 22.373C26.5807 22.631 26.6037 23.027 26.5107 23.401C26.4407 23.686 26.2697 24.055 25.9387 24.264C25.6537 24.444 24.9767 24.486 24.7227 23.846C24.7227 23.846 25.9527 23.939 26.5107 22.373ZM28.5227 28.198C28.6907 28.633 29.2907 29.182 29.2887 29.522C29.2797 30.419 28.8877 30.969 28.7957 31.265C28.7957 31.265 28.0807 30.695 27.9537 30.041C27.8887 29.705 27.9637 28.696 28.5237 28.198H28.5227ZM27.7227 28.834C27.8047 28.6 28.0697 27.964 28.3727 27.744C28.3727 27.744 28.7617 26.592 27.5107 25.881C27.5107 25.881 26.9957 26.568 26.8607 27.214C26.7237 27.864 27.4037 28.251 27.7227 28.834ZM26.1577 25.922C25.9577 26.169 25.6717 26.506 25.4517 26.612C25.4517 26.612 25.3767 27.126 25.4177 27.469C25.4847 27.977 25.8057 28.495 25.9457 28.874C25.9457 28.874 26.4927 28.155 26.5557 27.733C26.6177 27.309 26.6097 26.962 26.6307 26.758C26.6307 26.758 26.3257 26.26 26.1577 25.922V25.922ZM24.7127 28.394C24.5577 28.154 24.0597 27.284 24.0527 26.649C24.0527 26.649 24.6687 26.979 25.1857 26.736C25.1857 26.736 25.2517 27.562 25.1547 27.841C25.0707 28.067 24.9647 28.202 24.7127 28.394ZM24.8567 28.569C24.9567 28.48 25.2027 28.252 25.3067 28.133C25.3067 28.133 25.7147 28.887 25.7847 29.108C25.7847 29.108 25.5797 29.162 25.3537 28.998C25.1744 28.8713 25.0079 28.7273 24.8567 28.568V28.569ZM26.7527 28.126C26.7037 28.316 26.0417 29.242 25.9277 29.356C25.9277 29.356 25.9767 29.69 26.2237 30.173C26.4677 30.653 26.8087 30.992 26.9907 31.162C26.9907 31.162 27.4017 30.445 27.5227 30.132C27.6577 29.77 27.6427 29.415 27.5857 29.282C27.4457 28.969 26.9657 28.517 26.7527 28.126ZM27.7477 30.547C27.8937 30.844 28.3347 31.333 28.4037 31.72C28.4587 32.022 28.4107 32.27 28.3277 32.483C28.2447 32.687 27.9817 33.096 27.8047 33.407C27.8047 33.407 27.1997 32.832 27.0677 32.423C26.9704 32.0843 26.9995 31.7218 27.1497 31.403C27.2937 31.129 27.6097 30.832 27.7477 30.548V30.547ZM26.0377 30.464C26.1927 30.81 26.5677 31.152 26.6527 31.453C26.7527 31.81 26.7857 32.034 26.6147 32.45C26.4627 32.812 26.2787 33.025 26.2177 33.247C26.2177 33.247 25.7277 32.607 25.6437 32.341C25.5637 32.075 25.5367 31.637 25.6387 31.361C25.7367 31.079 25.9157 30.719 26.0387 30.464H26.0377ZM28.4547 32.9C28.4547 32.9 27.6087 33.927 27.6287 34.472C27.6547 35.149 28.1017 35.602 28.1637 36.018C28.1637 36.018 28.6057 35.514 28.7757 35.175C28.9657 34.795 29.1087 34.472 29.0627 34.04C29.0087 33.608 28.8967 33.333 28.4547 32.9V32.9ZM26.8977 32.799C27.0317 32.996 27.4077 33.668 27.3017 34.065C27.1957 34.467 26.7797 35.029 26.6387 35.269C26.6387 35.269 26.3057 34.579 26.2287 34.262C26.1547 33.949 26.2237 33.432 26.8977 32.799ZM29.4817 13.182C29.5397 12.796 29.9837 11.966 29.9837 11.605C29.9868 11.5359 29.9758 11.4669 29.9515 11.4022C29.9272 11.3375 29.89 11.2784 29.8422 11.2284C29.7944 11.1785 29.737 11.1387 29.6734 11.1115C29.6098 11.0844 29.5414 11.0704 29.4722 11.0704C29.4031 11.0704 29.3347 11.0844 29.2711 11.1115C29.2075 11.1387 29.1501 11.1785 29.1023 11.2284C29.0545 11.2784 29.0173 11.3375 28.993 11.4022C28.9686 11.4669 28.9577 11.5359 28.9607 11.605C28.9607 11.966 29.4097 12.796 29.4647 13.182H29.4817ZM30.9067 14.014C31.3527 12.947 31.6477 12.158 31.6367 11.895C31.6297 11.737 31.4407 11.618 31.2657 11.563C31.0857 11.507 30.9267 11.496 30.8107 11.587C30.5807 11.766 30.3627 13.207 30.2837 13.805C30.5117 13.848 30.6467 13.877 30.9067 14.014V14.014ZM30.0937 13.783C29.9817 13.768 29.8657 13.763 29.7507 13.758C29.8207 13.186 30.0167 12.232 30.1327 11.858C30.2467 11.481 30.3927 11.211 30.6417 11.143C30.6417 11.143 30.4497 11.667 30.3457 12.208C30.2467 12.7305 30.1627 13.2557 30.0937 13.783V13.783ZM30.5117 15.049C30.5117 15.049 31.0107 15.577 31.5037 15.693C31.5037 15.693 31.3017 15.163 30.5117 15.049ZM30.1017 14.805C30.3777 14.767 31.0747 14.844 31.5037 15.152C31.9327 15.459 32.0707 15.712 32.2177 15.986C32.2177 15.986 31.4517 16.046 30.7677 15.646C30.4437 15.453 30.1647 15.01 30.1017 14.805V14.805ZM34.4627 17.332C34.6417 17.215 34.7427 17.024 34.7867 16.772C34.7867 16.772 33.9927 16.808 33.3167 16.722V16.777C33.3167 16.777 34.4207 16.783 34.4627 17.332ZM34.1827 18.052C34.2017 17.905 34.1947 17.646 34.1947 17.646C33.7957 18.022 32.9777 18.286 32.9777 18.286C32.9897 18.066 33.0597 17.874 33.0597 17.874C32.7127 18.082 32.5177 18.06 32.5177 18.06C32.5537 17.8 32.7317 17.492 32.7317 17.492C32.5968 17.6705 32.3964 17.7882 32.1747 17.819C32.1317 17.665 32.2247 17.282 32.2247 17.282C32.1037 17.436 31.8777 17.836 31.1647 17.99C30.4527 18.145 30.1367 17.744 30.1367 17.744C30.8297 17.792 31.4767 17.116 31.4767 17.116C31.1167 16.976 30.9957 16.71 30.9957 16.71C31.2057 16.526 31.4167 16.526 31.4167 16.526C31.0107 16.341 30.9267 16.02 30.9267 16.02C31.4357 16.268 33.0007 16.286 33.8527 16.33C34.7027 16.37 35.5497 16.052 35.5497 16.052C35.4537 17.922 34.1817 18.052 34.1817 18.052H34.1827ZM35.7497 16.182C35.724 16.558 35.6305 16.9263 35.4737 17.269C35.4737 17.269 35.9757 16.891 36.0957 16.569C36.2177 16.249 36.2497 16.028 35.7487 16.182H35.7497ZM36.9597 17.511C36.9595 17.4554 36.9373 17.4021 36.8979 17.3628C36.8586 17.3235 36.8053 17.3013 36.7497 17.301C36.694 17.301 36.6406 17.3231 36.6012 17.3625C36.5619 17.4019 36.5397 17.4553 36.5397 17.511C36.5397 17.5667 36.5619 17.6201 36.6012 17.6595C36.6406 17.6989 36.694 17.721 36.7497 17.721C36.8054 17.721 36.8588 17.6989 36.8982 17.6595C36.9376 17.6201 36.9597 17.5667 36.9597 17.511ZM36.6277 16.587C36.9097 16.519 37.5027 16.451 37.7647 16.84C38.0307 17.228 37.9267 17.962 37.3997 18.26C37.3997 18.26 36.5967 17.565 35.6257 18.256C35.6257 18.256 35.3977 18.11 34.8907 17.993C34.8907 17.993 35.1907 17.628 35.5277 17.474C35.8267 17.337 36.4497 17.154 36.6277 16.587ZM34.7817 18.119C34.7817 18.119 34.4297 18.595 34.1697 18.804C34.1697 18.804 35.4787 18.792 35.8097 19.933C35.8097 19.933 36.2627 19.233 35.9297 18.778C35.5747 18.288 35.2477 18.228 34.7817 18.119" fill="white"></path> <path fill-rule="evenodd" clip-rule="evenodd" d="M33.3449 18.403C33.3449 18.403 32.9219 18.528 32.7809 18.565C32.7809 18.565 32.7739 18.319 32.7879 18.2C32.6599 18.231 32.5029 18.272 32.3659 18.286C32.3659 18.286 31.9419 19.234 31.6139 19.616C31.6139 19.616 31.5939 19.826 31.7779 20.146C31.7779 20.146 32.0169 19.586 32.4439 19.136C32.6879 18.884 32.8419 18.755 33.3449 18.403V18.403ZM34.4559 18.2C34.3239 18.237 33.6459 18.45 33.3179 18.688C32.9099 18.982 32.6289 19.321 32.6719 19.905C32.6719 19.905 33.0039 19.442 33.3679 19.234C33.6589 19.067 34.1819 18.607 34.4559 18.2ZM34.4469 13.911C34.3239 13.911 34.0809 13.971 34.0809 14.172C34.0809 14.377 34.3949 14.865 34.4779 15.082H34.4859C34.5689 14.865 34.8839 14.377 34.8839 14.172C34.8839 13.972 34.6419 13.912 34.5159 13.912H34.4469V13.911ZM34.7239 15.487C34.7819 15.203 34.8909 14.465 35.0669 14.303C35.2319 14.146 35.4769 14.131 35.5989 14.138C35.6335 14.1402 35.6672 14.1504 35.6973 14.1678C35.7274 14.1852 35.753 14.2093 35.7722 14.2383C35.7913 14.2673 35.8035 14.3003 35.8078 14.3347C35.8121 14.3692 35.8084 14.4042 35.7969 14.437C35.7489 14.607 35.2059 15.424 35.1329 15.527C35.0079 15.505 35.0329 15.513 34.7239 15.487V15.487ZM34.2419 15.487C34.1819 15.203 34.0719 14.465 33.8969 14.303C33.7309 14.146 33.4859 14.131 33.3649 14.138C33.3305 14.1408 33.2971 14.1514 33.2673 14.169C33.2376 14.1865 33.2122 14.2106 33.193 14.2393C33.1739 14.2681 33.1615 14.3008 33.1568 14.3351C33.1521 14.3693 33.1552 14.4041 33.1659 14.437C33.2149 14.607 33.7559 15.424 33.8289 15.527C33.9549 15.505 33.9289 15.513 34.2419 15.487V15.487ZM33.8959 12.92H34.3159V12.451H34.6559V12.921H35.0809V13.217H34.6559V13.768H34.3159V13.218H33.8959V12.92ZM28.8799 10.137H29.2999V9.66699H29.6449V10.137H30.0679V10.431H29.6449V10.985H29.2999V10.431H28.8799V10.137ZM39.0169 15.955C39.0135 15.8641 39.0064 15.7733 38.9959 15.683C38.9653 15.4884 38.9613 15.2906 38.9839 15.095C39.2899 15.213 39.4949 15.287 39.9149 15.968C39.9149 15.968 39.2469 15.554 39.0169 15.955" fill="white"></path> <path fill-rule="evenodd" clip-rule="evenodd" d="M38.43 17.032C38.42 16.864 38.312 16.329 38.175 15.956C38.003 15.491 38.1 14.822 38.305 14.414C38.504 14.022 38.615 13.654 38.578 13.247C38.578 13.247 38.973 13.38 39.2 13.521C39.238 13.993 38.966 14.465 38.836 14.733C38.68 15.05 38.711 15.463 38.746 15.717C38.806 16.147 38.714 16.603 38.43 17.032ZM38.389 13.427C38.4034 13.3395 38.3976 13.2499 38.372 13.165C38.372 13.165 37.752 12.555 37.227 12.451C37.1161 12.4247 37.0005 12.4256 36.89 12.4534C36.7795 12.4813 36.6773 12.5353 36.592 12.611C36.592 12.611 36.778 12.591 37.057 12.821C37.336 13.048 37.682 13.322 37.945 13.391C38.207 13.461 38.265 13.441 38.389 13.427ZM36.541 12.657C36.309 12.893 36.111 13.143 36.116 13.359C36.119 13.583 36.377 14.146 36.513 14.359C36.649 14.573 36.847 14.854 36.823 15.195C36.811 15.365 36.693 15.539 36.557 15.684C36.557 15.684 37.319 15.502 37.41 15.028C37.494 14.603 37.316 14.308 37.192 14.073C37.078 13.851 36.725 13.337 36.637 13.123C36.557 12.928 36.513 12.766 36.541 12.658V12.657ZM32.088 17.997C31.9358 18.5112 31.7112 19.0011 31.421 19.452C31.189 19.819 31.043 20.411 31.07 20.612C31.07 20.612 30.723 19.847 30.9 19.307C31.034 18.887 31.403 18.26 32.088 17.997ZM31.227 18.176C31.227 18.176 30.707 18.186 30.463 18.348C30.147 18.556 29.845 19.013 29.731 19.56C29.731 19.56 30.261 19.467 30.523 19.206C30.785 18.943 31.105 18.55 31.227 18.176V18.176ZM33.936 19.127C34.038 19.135 34.304 19.197 34.436 19.237C34.436 19.237 33.989 19.368 33.769 19.554C33.579 19.711 33.411 19.954 33.337 20.364C33.231 20.937 32.894 21.554 32.794 21.739L32.757 21.732C32.817 21.337 32.572 20.519 32.51 20.4C32.51 20.4 32.864 20.178 33.024 19.946C33.142 19.776 33.354 19.492 33.936 19.128V19.127ZM31.618 20.358C31.491 20.658 31.144 21.192 31.303 21.748C31.466 22.304 31.829 22.543 32.049 23.016C32.049 23.016 32.226 22.163 32.187 21.506C32.147 20.849 31.912 20.596 31.617 20.358H31.618ZM29.48 21.915C29.505 21.588 30.254 20.804 30.216 20.38C30.177 19.953 29.616 19.655 29.477 19.592H29.47C29.333 19.655 28.771 19.953 28.731 20.38C28.691 20.804 29.443 21.588 29.465 21.915H29.48V21.915ZM30.614 20.38C30.614 20.38 30.094 21.395 29.999 21.792C29.908 22.186 29.993 22.449 30.171 22.69C30.346 22.927 30.644 23.185 30.924 23.686C30.924 23.686 31.243 23.259 31.284 23.036C31.322 22.813 31.259 22.28 31.189 22.058C31.121 21.831 30.844 21.113 30.614 20.38V20.38ZM29.48 24.305C29.716 24.099 29.928 23.792 29.996 23.61C30.061 23.43 30.078 23.165 29.92 22.96C29.731 22.719 29.495 22.446 29.48 22.225H29.468C29.45 22.446 29.216 22.719 29.026 22.961C28.868 23.165 28.885 23.429 28.954 23.611C29.019 23.792 29.232 24.099 29.47 24.305H29.48ZM30.349 23.619C30.463 23.744 31.07 24.479 31.152 24.693C31.234 24.906 31.373 25.312 31.185 25.595C30.995 25.878 30.564 26.325 30.184 26.515C30.184 26.515 30.594 25.871 30.553 25.342C30.526 25.003 30.265 24.702 30.216 24.495C30.169 24.291 30.202 23.942 30.349 23.619V23.619ZM31.537 23.214C31.443 23.344 31.282 23.661 31.257 23.969C31.237 24.272 31.286 24.516 31.452 24.961C31.66 25.523 31.981 26.148 32.129 26.431C32.129 26.431 32.415 26.019 32.573 25.652C32.573 25.652 32.128 25.036 31.937 24.602C31.716 24.09 31.627 23.617 31.537 23.214V23.214ZM31.745 22.977C31.745 22.977 31.937 24.422 32.781 25.494C33.352 26.22 33.818 26.474 34.125 26.474C34.588 26.474 35.055 26.084 35.212 25.638C35.366 25.195 35.318 24.503 35.018 24.258C35.018 24.258 34.74 25.125 34.145 25.156C33.475 25.195 32.61 24.436 31.745 22.976" fill="white"></path> <path fill-rule="evenodd" clip-rule="evenodd" d="M32.4355 22.373C32.3655 22.631 32.3445 23.027 32.4355 23.401C32.5065 23.686 32.6795 24.055 33.0095 24.264C33.2955 24.444 33.9665 24.486 34.2245 23.846C34.2245 23.846 32.9945 23.939 32.4355 22.373ZM29.4735 26.663C29.6475 26.578 29.7935 26.516 29.9965 26.209C30.1495 25.969 30.2985 25.522 30.2165 25.204C30.1105 24.811 29.9015 24.654 29.7735 24.409C29.6705 24.507 29.6065 24.583 29.4795 24.656H29.4735C29.3445 24.583 29.2795 24.506 29.1735 24.409C29.0435 24.655 28.8375 24.811 28.7305 25.204C28.6485 25.522 28.7955 25.968 28.9505 26.209C29.1505 26.516 29.2995 26.579 29.4735 26.663V26.663ZM29.4735 29.1C29.5565 28.716 30.3545 27.977 30.2795 27.573C30.1695 26.971 29.7835 27.098 29.4795 26.844H29.4735C29.1655 27.098 28.7755 26.971 28.6645 27.574C28.5945 27.977 29.3865 28.716 29.4695 29.1H29.4735ZM30.4255 28.198C30.2575 28.633 29.6545 29.182 29.6595 29.522C29.6695 30.419 30.0585 30.969 30.1525 31.265C30.1525 31.265 30.8675 30.695 30.9925 30.041C31.0595 29.705 30.9825 28.696 30.4255 28.198V28.198ZM31.2225 28.834C31.1405 28.6 30.8785 27.964 30.5725 27.744C30.5725 27.744 30.1835 26.592 31.4355 25.881C31.4355 25.881 31.9495 26.568 32.0875 27.214C32.2235 27.864 31.5415 28.251 31.2225 28.834V28.834ZM32.7925 25.922C32.9915 26.169 33.2725 26.506 33.4965 26.612C33.4965 26.612 33.5685 27.126 33.5295 27.469C33.4625 27.977 33.1395 28.495 33.0035 28.874C33.0035 28.874 32.4545 28.155 32.3895 27.733C32.3245 27.309 32.3395 26.962 32.3195 26.758C32.3195 26.758 32.6205 26.26 32.7925 25.922V25.922ZM34.2315 28.394C34.3875 28.154 34.8905 27.284 34.8965 26.649C34.8965 26.649 34.2785 26.979 33.7605 26.736C33.7605 26.736 33.6945 27.562 33.7955 27.841C33.8755 28.067 33.9825 28.202 34.2315 28.394V28.394ZM34.0895 28.569C33.9328 28.4325 33.7842 28.2869 33.6445 28.133C33.6445 28.133 33.2325 28.887 33.1645 29.108C33.1645 29.108 33.3675 29.162 33.5925 28.998C33.8175 28.833 33.8665 28.788 34.0895 28.568V28.569ZM32.1935 28.126C32.2435 28.316 32.9045 29.242 33.0185 29.356C33.0185 29.356 32.9655 29.69 32.7205 30.173C32.4775 30.653 32.1385 30.992 31.9545 31.162C31.9545 31.162 31.5465 30.445 31.4245 30.132C31.2855 29.77 31.3025 29.415 31.3645 29.282C31.4995 28.969 31.9805 28.517 32.1935 28.126ZM29.4795 33.602C29.5415 33.349 29.9245 33.047 30.0815 32.606C30.1765 32.346 30.1735 32.043 30.0715 31.835C29.9515 31.591 29.5215 30.997 29.4735 30.826C29.4195 30.996 28.9965 31.591 28.8735 31.835C28.7705 32.043 28.7685 32.347 28.8615 32.606C29.0215 33.047 29.4035 33.349 29.4675 33.602H29.4795ZM31.1985 30.547C31.0545 30.844 30.6135 31.333 30.5435 31.72C30.4885 32.022 30.5385 32.27 30.6165 32.483C30.6995 32.687 30.9685 33.096 31.1425 33.407C31.1425 33.407 31.7455 32.832 31.8785 32.423C31.9767 32.0843 31.9472 31.7214 31.7955 31.403C31.6515 31.129 31.3375 30.832 31.1985 30.548V30.547ZM32.9125 30.464C32.7555 30.81 32.3795 31.152 32.2945 31.453C32.1935 31.81 32.1615 32.034 32.3315 32.45C32.4865 32.812 32.6655 33.025 32.7305 33.247C32.7305 33.247 33.2205 32.607 33.3005 32.341C33.3865 32.075 33.4085 31.637 33.3105 31.361C33.2085 31.079 33.0315 30.719 32.9125 30.464V30.464ZM29.4735 38.51C29.5045 38.198 30.1475 37.23 30.1765 36.203C30.1925 35.688 29.7385 34.886 29.4795 34.579H29.4645C29.2085 34.886 28.7535 35.689 28.7685 36.203C28.7995 37.229 29.4405 38.198 29.4735 38.51V38.51ZM30.4945 32.9C30.4945 32.9 31.3395 33.927 31.3205 34.472C31.2955 35.149 30.8435 35.602 30.7845 36.018C30.7845 36.018 30.3405 35.514 30.1725 35.175C29.9825 34.795 29.8375 34.472 29.8915 34.04C29.9385 33.608 30.0495 33.333 30.4945 32.9V32.9ZM32.0495 32.799C31.9135 32.996 31.5395 33.668 31.6455 34.065C31.7555 34.467 32.1695 35.029 32.3075 35.269C32.3075 35.269 32.6405 34.579 32.7175 34.262C32.7925 33.949 32.7205 33.432 32.0485 32.799" fill="white"></path> <path fill-rule="evenodd" clip-rule="evenodd" d="M30.0501 40.157C30.1021 39.36 30.5531 38.881 30.6301 38.467C30.7201 38.01 30.6901 37.573 30.3381 37.047C30.1229 37.8013 29.8401 38.5346 29.4931 39.238C29.4841 39.25 29.4801 39.266 29.4741 39.28C29.4671 39.266 29.4641 39.25 29.4541 39.238C29.2091 38.748 28.8971 38.028 28.6121 37.046C28.2601 37.573 28.2291 38.01 28.3161 38.467C28.3961 38.881 28.8461 39.36 28.8961 40.157C28.9461 40.957 28.0531 41.261 28.0531 41.261C28.3531 41.371 28.6971 41.421 29.2431 40.9C29.3431 40.806 29.4171 40.702 29.4741 40.592C29.5321 40.702 29.6071 40.806 29.7061 40.9C30.2481 41.42 30.5951 41.371 30.8961 41.261C30.8961 41.261 30.0011 40.957 30.0501 40.157V40.157ZM27.2401 34.847C27.3321 35.147 27.6101 35.699 27.6461 35.867C27.7131 36.184 27.6221 36.567 27.0491 36.974C27.0491 36.974 26.6781 36.712 26.5301 36.37C26.3941 36.047 26.4731 35.818 26.6151 35.653C26.7591 35.487 27.0971 35.099 27.2391 34.847H27.2401ZM28.4441 36.03C28.4441 36.19 28.3261 37.094 28.0721 37.545C27.7131 38.175 27.1861 38.641 26.7251 38.641C26.2991 38.641 26.2071 38.384 25.9971 38.281C25.9971 38.281 26.1041 37.733 26.5841 37.591C27.1741 37.412 28.0781 36.701 28.4441 36.03" fill="white"></path> <path fill-rule="evenodd" clip-rule="evenodd" d="M26.9039 37.182C26.8059 37.104 26.7189 37.054 26.6009 36.915C26.6009 36.915 26.1469 37.083 25.7719 37.337C25.3969 37.591 25.0289 38.024 24.8319 38.249C24.8319 38.249 25.3919 38.394 25.7489 38.231C25.7489 38.231 25.8769 37.691 26.2779 37.449C26.3659 37.398 26.6459 37.314 26.9039 37.182V37.182ZM26.4399 36.72C26.3499 36.584 26.1729 36.333 26.2109 35.939C26.2109 35.939 25.4209 36.445 25.1909 36.632C24.9509 36.829 24.4569 37.34 24.3469 37.509C24.3469 37.509 24.9449 37.376 25.4039 37.221C25.9049 37.054 26.2519 36.829 26.4409 36.72H26.4399ZM25.1029 37.577C24.6789 37.732 23.7209 37.885 23.3229 38.005C22.9229 38.125 22.6329 38.332 22.2509 38.751C22.2509 38.751 22.8379 38.917 23.1519 39.015C23.1519 39.015 23.6499 38.675 24.1959 38.463C24.5529 38.325 24.7259 37.951 25.1029 37.577ZM24.2129 40.417C24.3049 40.314 24.4209 40.197 24.3319 39.959C24.2699 39.782 23.9229 39.592 23.7169 39.491C23.3739 39.326 22.4229 39.069 22.1109 38.977C22.1109 38.977 21.9559 39.159 21.8759 39.351C21.8399 39.425 21.8869 39.502 22.0219 39.526C22.2869 39.572 22.9219 39.452 23.0799 39.554C23.2439 39.664 23.1839 39.81 23.1839 39.959C23.1839 39.959 23.4759 39.777 23.6579 39.819C23.9139 39.873 24.0679 39.995 24.2129 40.417V40.417ZM23.3669 39.084C23.4349 39.108 23.8069 39.221 24.1679 39.451C24.1679 39.451 24.3279 39.389 24.4079 39.241C24.4839 39.099 24.8079 38.615 25.1089 38.551C25.1089 38.551 24.8539 38.526 24.7069 38.479C24.7069 38.479 24.3989 38.559 24.1799 38.649C23.9609 38.739 23.6889 38.875 23.3669 39.084V39.084ZM25.8199 38.473C25.7629 38.5 25.6649 38.548 25.4419 38.558C25.4419 38.558 24.6069 39.14 24.5089 39.724C24.4269 40.22 24.6869 40.459 24.8119 40.52C24.9369 40.586 25.5219 40.827 25.9019 40.038C25.9019 40.038 25.2539 40.252 25.0779 39.94C24.9029 39.625 25.1899 39.17 25.3659 39.039C25.5949 38.863 26.0109 38.748 26.2609 38.791C26.2609 38.791 26.0589 38.597 25.8189 38.473" fill="white"></path> <path fill-rule="evenodd" clip-rule="evenodd" d="M20.3448 45.152C20.4458 44.722 20.5598 44.274 20.7538 43.86C21.1318 43.054 22.0578 40.912 23.9888 40.532C24.1708 40.498 23.7798 40.044 23.6088 40.069C23.4338 40.088 23.0898 40.314 22.9388 40.417C22.9388 40.417 22.9388 39.959 22.9328 39.876C22.9288 39.79 22.8558 39.765 22.7808 39.766C22.7058 39.768 22.2408 39.765 22.0908 39.934C21.6508 40.448 20.9078 41.828 20.4868 42.854C20.0648 43.881 19.7788 44.198 19.3338 44.039C18.8898 43.881 18.6238 43.368 17.8498 43.523C17.5808 43.579 17.2818 43.76 17.0498 44.027C17.1138 44.153 17.1968 44.306 17.5598 44.306C17.9208 44.306 18.6108 44.458 18.9968 44.73C19.3848 45.002 19.7898 45.09 20.3448 45.152V45.152ZM28.0558 38.507C28.0998 38.839 28.2598 39.15 28.4358 39.472C28.4358 39.472 27.8458 42.202 25.7228 42.414C25.7228 42.414 25.7638 41.849 26.3928 41.417C27.0228 40.987 27.9638 40.316 27.8968 39.301C27.8968 39.301 27.7288 39.336 27.4268 39.717C27.1248 40.097 26.4618 41.196 25.4338 41.204C25.4338 41.204 25.5878 40.69 26.0418 40.393C26.4968 40.097 27.0738 39.717 27.3358 39.258C27.5978 38.802 27.8738 38.591 28.0558 38.506V38.507ZM27.0538 48.455L28.3478 50.279L29.3278 48.523L28.9818 47.898C28.7248 48.358 28.4508 48.856 28.2948 49.129C28.1738 48.962 27.8468 48.5 27.4188 47.898L27.0538 48.455Z" fill="white"></path> <path fill-rule="evenodd" clip-rule="evenodd" d="M26.7233 46.911C25.4603 45.134 23.9033 42.934 23.7443 42.711L24.2333 42.357L22.6923 41.762L22.7193 43.455L23.2403 43.076L26.3563 47.471L26.7233 46.911V46.911ZM16.0823 36.927C16.4623 36.509 17.1063 36.871 17.7573 37.474C18.4123 38.078 18.8213 38.696 18.4433 39.113C18.0883 39.5 17.4183 39.169 16.7613 38.568C16.1083 37.963 15.6973 37.344 16.0823 36.926" fill="white"></path> <path fill-rule="evenodd" clip-rule="evenodd" d="M17.134 44.351C17.1124 44.3349 17.0917 44.3175 17.072 44.299C16.726 43.995 16.529 43.523 16.529 43.009C16.529 42.022 17.325 41.218 18.309 41.218C19.289 41.218 20.084 42.022 20.084 43.009C20.084 43.143 20.059 43.361 20.059 43.361C20.14 43.209 20.432 42.525 20.491 42.398C20.359 41.9197 20.0743 41.4978 19.6801 41.1965C19.286 40.8951 18.8041 40.731 18.308 40.729C17.413 40.729 16.638 41.253 16.269 42.013C16.408 41.108 16.855 40.296 17.171 39.996C17.551 39.637 18.194 39.521 18.194 39.521C17.771 39.591 17.214 39.329 16.592 38.751C16 38.207 15.698 37.73 15.679 37.331C15.715 37.894 15.699 38.209 15.539 38.667C15.325 39.29 14.739 40.441 14.949 41.741C15.063 42.455 15.577 43.516 16.437 44.384C16.62 44.578 16.687 44.867 16.71 45.015C16.71 45.015 17.976 45.015 18.276 45.045C18.276 45.045 18.578 45.015 18.573 44.828C18.57 44.638 18.403 44.59 18.251 44.59C18.101 44.59 17.471 44.606 17.134 44.351V44.351ZM24.143 44.786C23.327 45.08 22.513 45.24 21.743 45.359C21.2586 45.4347 20.7678 45.4615 20.278 45.439C20.2915 45.5268 20.2782 45.6167 20.24 45.697C20.24 45.697 20.336 45.809 20.336 45.932C20.813 45.95 21.31 45.922 21.816 45.842C22.662 45.712 23.546 45.542 24.439 45.202L24.143 44.786V44.786ZM25.477 44.722C26.56 44.13 27.614 43.211 28.567 41.746L28.737 41.459C28.476 41.576 28.144 41.491 28.144 41.491C28.124 41.517 28.084 41.583 28.064 41.622C27.176 42.94 26.193 43.77 25.19 44.314L25.477 44.722V44.722ZM18.349 45.19C18.2 45.165 17.725 45.179 17.441 45.22C17.128 45.271 16.774 45.334 16.736 45.508C16.702 45.673 16.814 45.847 16.972 46.096C17.069 46.25 17.302 46.161 17.43 46.113C17.558 46.066 18.29 45.671 18.405 45.543C18.525 45.412 18.573 45.228 18.349 45.19ZM19.093 45.675C19.0238 45.6329 18.946 45.6068 18.8654 45.5985C18.7848 45.5902 18.7034 45.5999 18.627 45.627C18.427 45.701 17.707 46.128 17.661 46.331C17.611 46.531 17.711 46.629 17.822 46.675C17.933 46.72 18.068 46.763 18.169 46.773C18.2545 46.7753 18.3395 46.7581 18.4173 46.7225C18.4951 46.687 18.5638 46.6341 18.618 46.568C18.709 46.453 19.048 46.044 19.093 45.95C19.142 45.86 19.168 45.726 19.093 45.675V45.675ZM19.182 46.125C19.0313 46.2968 18.8875 46.4746 18.751 46.658C18.718 46.716 18.769 46.808 18.861 46.797C18.95 46.787 19.448 46.737 19.733 46.542C20.017 46.345 20.208 45.966 20.011 45.83C19.815 45.693 19.509 45.757 19.181 46.125H19.182ZM19.343 45.037C19.247 45.015 18.871 44.921 18.793 45.045C18.689 45.199 18.761 45.365 19.053 45.508C19.343 45.646 19.891 45.759 20.003 45.609C20.107 45.454 19.958 45.199 19.343 45.037ZM31.708 34.847C31.614 35.147 31.337 35.699 31.299 35.867C31.234 36.184 31.322 36.567 31.897 36.974C31.897 36.974 32.267 36.712 32.415 36.37C32.554 36.047 32.475 35.818 32.331 35.653C32.187 35.487 31.852 35.099 31.708 34.847V34.847ZM30.5 36.03C30.5 36.19 30.617 37.094 30.875 37.545C31.234 38.175 31.76 38.641 32.221 38.641C32.649 38.641 32.741 38.384 32.949 38.281C32.949 38.281 32.842 37.733 32.36 37.591C31.773 37.412 30.868 36.701 30.5 36.03" fill="white"></path> <path fill-rule="evenodd" clip-rule="evenodd" d="M32.043 37.182C32.142 37.104 32.224 37.054 32.343 36.915C32.343 36.915 32.801 37.083 33.176 37.337C33.548 37.591 33.913 38.024 34.116 38.249C34.116 38.249 33.553 38.394 33.196 38.231C33.196 38.231 33.067 37.691 32.666 37.449C32.581 37.398 32.301 37.314 32.043 37.182V37.182ZM32.507 36.72C32.595 36.584 32.774 36.333 32.733 35.939C32.733 35.939 33.521 36.445 33.758 36.632C33.997 36.829 34.489 37.34 34.6 37.509C34.6 37.509 34.001 37.376 33.543 37.221C33.041 37.054 32.694 36.829 32.507 36.72V36.72ZM33.844 37.577C34.27 37.732 35.221 37.885 35.624 38.005C36.024 38.125 36.315 38.332 36.697 38.751C36.697 38.751 36.107 38.917 35.797 39.015C35.797 39.015 35.297 38.675 34.749 38.463C34.395 38.325 34.219 37.951 33.844 37.577ZM34.733 40.417C34.642 40.314 34.526 40.197 34.613 39.959C34.676 39.782 35.023 39.592 35.233 39.491C35.576 39.326 36.526 39.069 36.835 38.977C36.835 38.977 36.989 39.159 37.072 39.351C37.107 39.425 37.057 39.502 36.927 39.526C36.66 39.572 36.024 39.452 35.867 39.554C35.701 39.664 35.76 39.81 35.76 39.959C35.76 39.959 35.472 39.777 35.284 39.819C35.034 39.873 34.876 39.995 34.733 40.417V40.417ZM35.58 39.084C35.51 39.108 35.14 39.221 34.778 39.451C34.778 39.451 34.618 39.389 34.538 39.241C34.463 39.099 34.138 38.615 33.838 38.551C33.838 38.551 34.092 38.526 34.237 38.479C34.237 38.479 34.547 38.559 34.769 38.649C34.988 38.739 35.261 38.875 35.579 39.084H35.58ZM33.124 38.473C33.182 38.5 33.28 38.548 33.501 38.558C33.501 38.558 34.339 39.14 34.435 39.724C34.523 40.22 34.261 40.459 34.134 40.52C34.007 40.586 33.424 40.827 33.045 40.038C33.045 40.038 33.691 40.252 33.868 39.94C34.043 39.625 33.758 39.17 33.583 39.039C33.352 38.863 32.937 38.748 32.683 38.791C32.683 38.791 32.885 38.597 33.124 38.473" fill="white"></path> <path fill-rule="evenodd" clip-rule="evenodd" d="M38.6005 45.152C38.4985 44.722 38.3885 44.274 38.1925 43.86C37.8165 43.054 36.8895 40.912 34.9545 40.532C34.7745 40.498 35.1625 40.044 35.3405 40.069C35.5125 40.088 35.8565 40.314 36.0105 40.417C36.0105 40.417 36.0105 39.959 36.0135 39.876C36.0185 39.79 36.0895 39.765 36.1635 39.766C36.2385 39.768 36.7055 39.765 36.8515 39.934C37.2945 40.448 38.0375 41.828 38.4595 42.854C38.8815 43.881 39.1695 44.198 39.6105 44.039C40.0565 43.881 40.3255 43.368 41.0965 43.523C41.3665 43.579 41.6625 43.76 41.8995 44.027C41.8325 44.153 41.7485 44.306 41.3895 44.306C41.0235 44.306 40.3325 44.458 39.9495 44.73C39.5615 45.002 39.1575 45.09 38.6005 45.152V45.152ZM30.8865 38.507C30.8465 38.839 30.6855 39.15 30.5115 39.472C30.5115 39.472 31.0985 42.202 33.2265 42.414C33.2265 42.414 33.1815 41.849 32.5535 41.417C31.9215 40.987 30.9805 40.316 31.0485 39.301C31.0485 39.301 31.2165 39.336 31.5175 39.717C31.8235 40.097 32.4865 41.196 33.5105 41.204C33.5105 41.204 33.3605 40.69 32.9045 40.393C32.4505 40.097 31.8705 39.717 31.6095 39.258C31.3495 38.802 31.0745 38.591 30.8865 38.506V38.507ZM29.4765 41.155C29.6025 41.517 30.4045 42.662 30.7565 42.987C31.1105 43.313 31.9675 44.177 32.4265 44.609C32.4265 44.609 31.1205 44.283 30.3855 43.612C30.3855 43.612 29.8625 43.917 29.4815 43.917H29.4635C29.0815 43.917 28.5585 43.612 28.5585 43.612C27.8245 44.282 26.5205 44.609 26.5205 44.609C26.9775 44.177 27.8345 43.313 28.1865 42.987C28.5415 42.662 29.3465 41.517 29.4695 41.155H29.4765Z" fill="white"></path> <path fill-rule="evenodd" clip-rule="evenodd" d="M29.48 44.187C29.769 44.187 30.042 44.071 30.197 44.004C30.042 44.331 29.752 44.839 29.474 45.049H29.47C29.191 44.839 28.901 44.331 28.75 44.004C28.901 44.071 29.174 44.186 29.464 44.186H29.48" fill="white"></path> <path fill-rule="evenodd" clip-rule="evenodd" d="M30.5987 50.279L35.7047 43.077L36.2247 43.455L36.2557 41.762L34.7087 42.357L35.1997 42.712L30.6507 49.129L28.3387 44.911L28.0527 45.351L25.9947 48.481L25.4787 48.134L25.4727 49.799L27.0347 49.176L26.5107 48.826C26.7947 48.394 27.9117 46.699 28.2837 46.128L30.5987 50.278" fill="white"></path> <path fill-rule="evenodd" clip-rule="evenodd" d="M31.5293 47.45C31.1843 46.927 30.8383 46.399 30.6613 46.128C30.5323 46.371 30.2703 46.846 29.9763 47.371L29.6113 46.713L30.6053 44.911L30.8933 45.351L31.9153 46.906L31.5293 47.45V47.45ZM32.5843 47.918L32.9513 48.481L33.4653 48.134L33.4753 49.799L31.9113 49.176L32.4333 48.826C32.3793 48.744 32.3003 48.616 32.1963 48.461L32.5843 47.918V47.918ZM42.8633 36.927C42.4833 36.509 41.8383 36.871 41.1833 37.474C40.5323 38.078 40.1223 38.696 40.5023 39.113C40.8553 39.5 41.5323 39.169 42.1843 38.568C42.8343 37.963 43.2463 37.344 42.8643 36.926" fill="white"></path> <path fill-rule="evenodd" clip-rule="evenodd" d="M41.813 44.351C41.836 44.333 41.853 44.317 41.873 44.299C42.219 43.995 42.42 43.523 42.42 43.009C42.42 42.022 41.621 41.218 40.64 41.218C39.658 41.218 38.862 42.022 38.862 43.009C38.862 43.143 38.888 43.361 38.888 43.361C38.808 43.209 38.513 42.525 38.455 42.398C38.5862 41.9191 38.8708 41.4964 39.2654 41.1949C39.6599 40.8934 40.1425 40.7298 40.639 40.729C41.534 40.729 42.309 41.253 42.676 42.013C42.536 41.108 42.094 40.296 41.776 39.996C41.397 39.637 40.753 39.521 40.753 39.521C41.174 39.591 41.731 39.329 42.355 38.751C42.945 38.207 43.252 37.73 43.267 37.331C43.231 37.894 43.247 38.209 43.404 38.667C43.62 39.29 44.208 40.441 44 41.741C43.885 42.455 43.37 43.516 42.513 44.384C42.328 44.578 42.259 44.867 42.239 45.015C42.239 45.015 40.97 45.015 40.668 45.045C40.668 45.045 40.369 45.015 40.374 44.828C40.38 44.638 40.544 44.59 40.697 44.59C40.844 44.59 41.477 44.606 41.813 44.351V44.351ZM33.466 44.72C32.386 44.125 31.332 43.211 30.379 41.746L30.208 41.458C30.47 41.575 30.803 41.492 30.803 41.492C30.823 41.517 30.862 41.583 30.881 41.622C31.769 42.938 32.752 43.771 33.755 44.314L33.466 44.72ZM34.802 44.784C35.619 45.08 36.432 45.24 37.202 45.359C37.707 45.435 38.199 45.463 38.667 45.439C38.6544 45.5271 38.6684 45.6169 38.707 45.697C38.707 45.697 38.614 45.809 38.614 45.932C38.133 45.95 37.639 45.922 37.128 45.842C36.29 45.712 35.398 45.542 34.509 45.2L34.802 44.784ZM40.597 45.19C40.748 45.165 41.224 45.179 41.507 45.22C41.818 45.271 42.173 45.334 42.211 45.508C42.245 45.673 42.133 45.847 41.977 46.096C41.876 46.25 41.644 46.161 41.519 46.113C41.389 46.066 40.657 45.671 40.538 45.543C40.424 45.412 40.374 45.228 40.597 45.19V45.19ZM39.85 45.675C39.92 45.633 39.9984 45.607 40.0797 45.5987C40.1609 45.5904 40.2429 45.6001 40.32 45.627C40.518 45.701 41.237 46.128 41.287 46.331C41.334 46.531 41.235 46.629 41.123 46.675C41.013 46.72 40.877 46.763 40.777 46.773C40.6918 46.7751 40.6073 46.7577 40.5298 46.7222C40.4523 46.6867 40.384 46.6339 40.33 46.568C40.236 46.453 39.903 46.044 39.85 45.95C39.804 45.86 39.78 45.726 39.85 45.675ZM39.766 46.125C39.869 46.244 40.162 46.598 40.195 46.658C40.231 46.716 40.177 46.808 40.086 46.797C39.994 46.787 39.5 46.737 39.215 46.542C38.93 46.345 38.741 45.966 38.938 45.83C39.129 45.693 39.436 45.757 39.766 46.125ZM39.605 45.037C39.699 45.015 40.075 44.921 40.155 45.045C40.255 45.199 40.183 45.365 39.892 45.508C39.605 45.646 39.055 45.759 38.946 45.609C38.839 45.454 38.99 45.199 39.605 45.037Z" fill="white"></path> <path fill-rule="evenodd" clip-rule="evenodd" d="M110.221 19.167C110.227 18.905 110.275 17.063 110.279 16.815H110.725C112.447 16.815 112.736 17.121 112.896 19.168H110.221V19.167ZM115.121 18.145C114.851 15.855 113.783 14.663 111.259 14.663H108.049L107.613 27.603H109.952C109.952 27.603 110.168 21.601 110.18 21.317L113.135 21.32C113.162 21.581 113.605 27.602 113.605 27.602H116.019C116.019 27.602 115.189 18.713 115.122 18.145H115.121ZM81.8434 36.938C81.8484 36.676 81.8964 34.834 81.9004 34.585L82.3204 34.559C84.0424 34.559 84.3574 34.892 84.5174 36.939H81.8434V36.938ZM86.7434 35.916C86.4734 33.626 85.4034 32.433 82.8804 32.433H79.6704L79.2344 45.373H81.5734C81.5734 45.373 81.7884 39.371 81.8014 39.087L84.7564 39.09C84.7834 39.352 85.2264 45.373 85.2264 45.373H87.6404C87.6404 45.373 86.8104 36.484 86.7424 35.916H86.7434ZM69.1934 14.663V27.599H71.5574V16.814H74.4864V27.599H76.8534V14.663H69.1934ZM94.1994 19.168H92.9124C92.3804 19.168 91.9854 19.048 91.7344 18.807C91.5564 18.639 91.4694 18.411 91.4694 18.115V14.663H89.0994V18.356C89.0994 19.208 89.4354 19.928 90.0954 20.5C90.7464 21.066 91.5444 21.352 92.4694 21.352H94.1994V27.599H96.5654V14.663H94.1994V19.168ZM99.1844 14.663V16.814H101.148V27.599H103.542V16.814H105.506V14.663H99.1844ZM95.7134 32.433V36.568H92.4694V32.433H90.1094V45.375H92.4694V38.719H95.7144V45.375H98.0744V32.433H95.7134ZM72.3644 43.372C72.1344 43.372 71.5574 43.318 71.5574 43.318V38.764C71.5574 38.764 71.7424 38.72 71.9464 38.72C73.1454 38.72 74.5624 38.65 74.5624 41.044C74.5624 43.238 73.0054 43.372 72.3644 43.372ZM72.6514 36.667C72.2434 36.667 71.8814 36.677 71.5574 36.692V34.585H75.7994V32.434H69.1934V45.37H72.7814C76.3584 45.37 76.9124 42.17 76.9124 40.985C76.9124 39.583 76.3624 36.667 72.6514 36.667ZM81.4344 21.154C81.4544 17.651 82.3144 16.499 83.2214 16.482C84.1274 16.499 84.9874 17.652 85.0074 21.153V21.154C84.9874 24.574 84.1274 25.742 83.2214 25.76C82.3144 25.742 81.4544 24.574 81.4344 21.154V21.154ZM87.3624 20.674C87.3214 18.824 87.0054 17.498 86.5164 16.556C85.7464 14.946 84.5174 14.346 83.2494 14.33L83.2414 14.329H83.1924C81.9244 14.345 80.6964 14.946 79.9254 16.556C79.4354 17.498 79.1204 18.824 79.0794 20.674L79.0744 21.094V21.093C79.0764 22.246 79.2044 23.363 79.4524 24.264C80.1024 26.914 81.6024 27.852 83.1674 27.881L83.2004 27.882H83.2414L83.2744 27.881C84.8394 27.852 86.3394 26.915 86.9894 24.264C87.2394 23.364 87.3664 22.246 87.3674 21.093L87.3624 20.674V20.674ZM109.849 45.371L107.004 37.788C107.595 37.345 108.054 36.497 108.259 35.652C108.458 34.832 108.719 32.433 108.719 32.433H106.392C106.355 33.0669 106.309 33.7003 106.254 34.333C106.147 35.569 105.784 36.71 104.528 36.71H103.558C103.556 36.607 103.558 32.433 103.558 32.433H101.192V45.375H103.558V38.804C103.558 38.804 104.809 38.806 104.986 38.804L107.31 45.371H109.85H109.849Z" fill="white"></path> </svg> 