<?xml version="1.0" encoding="UTF-8"?> <svg xmlns="http://www.w3.org/2000/svg" width="1125" height="253" viewBox="0 0 1125 253" fill="none"> <path d="M239.519 153V42.1487H285.127C294.945 42.1487 303.338 43.7323 310.306 46.8995C317.379 50.0667 322.816 54.6063 326.617 60.5183C330.417 66.4304 332.318 73.451 332.318 81.5801C332.318 89.7092 330.417 96.7298 326.617 102.642C322.816 108.554 317.379 113.094 310.306 116.261C303.338 119.428 294.945 121.011 285.127 121.011H250.921L260.106 111.352V153H239.519ZM260.106 113.569L250.921 103.592H284.176C293.256 103.592 300.065 101.692 304.605 97.8911C309.25 93.9849 311.573 88.5479 311.573 81.5801C311.573 74.5067 309.25 69.0697 304.605 65.2691C300.065 61.4685 293.256 59.5682 284.176 59.5682H250.921L260.106 49.4332V113.569ZM388.698 154.109C379.302 154.109 371.068 152.261 363.994 148.566C357.026 144.765 351.589 139.592 347.683 133.047C343.883 126.501 341.982 119.058 341.982 110.718C341.982 102.272 343.83 94.8295 347.525 88.3895C351.326 81.844 356.499 76.7238 363.044 73.0287C369.695 69.3337 377.244 67.4861 385.689 67.4861C393.924 67.4861 401.261 69.2809 407.701 72.8704C414.141 76.4598 419.209 81.5273 422.904 88.0728C426.599 94.6183 428.446 102.325 428.446 111.193C428.446 112.038 428.394 112.988 428.288 114.044C428.288 115.099 428.235 116.102 428.13 117.053H357.66V103.909H417.678L409.918 108.026C410.024 103.17 409.021 98.894 406.91 95.199C404.798 91.5039 401.895 88.6007 398.2 86.4892C394.61 84.3778 390.44 83.322 385.689 83.322C380.833 83.322 376.557 84.3778 372.862 86.4892C369.273 88.6007 366.422 91.5567 364.311 95.3573C362.305 99.0524 361.302 103.434 361.302 108.501V111.668C361.302 116.736 362.463 121.223 364.786 125.129C367.109 129.035 370.381 132.044 374.604 134.155C378.827 136.267 383.684 137.322 389.173 137.322C393.924 137.322 398.2 136.583 402 135.105C405.801 133.627 409.179 131.305 412.135 128.138L422.745 140.331C418.945 144.765 414.141 148.196 408.335 150.625C402.634 152.947 396.088 154.109 388.698 154.109ZM450.097 153V68.4363H469.892V102.8H512.49V68.4363H532.285V153H512.49V119.586H469.892V153H450.097ZM598.246 154.109C588.85 154.109 580.615 152.261 573.542 148.566C566.574 144.765 561.137 139.592 557.231 133.047C553.43 126.501 551.53 119.058 551.53 110.718C551.53 102.272 553.377 94.8295 557.072 88.3895C560.873 81.844 566.046 76.7238 572.591 73.0287C579.242 69.3337 586.791 67.4861 595.237 67.4861C603.471 67.4861 610.809 69.2809 617.249 72.8704C623.689 76.4598 628.756 81.5273 632.451 88.0728C636.146 94.6183 637.994 102.325 637.994 111.193C637.994 112.038 637.941 112.988 637.835 114.044C637.835 115.099 637.783 116.102 637.677 117.053H567.207V103.909H627.225L619.466 108.026C619.571 103.17 618.568 98.894 616.457 95.199C614.345 91.5039 611.442 88.6007 607.747 86.4892C604.158 84.3778 599.988 83.322 595.237 83.322C590.38 83.322 586.105 84.3778 582.41 86.4892C578.82 88.6007 575.97 91.5567 573.858 95.3573C571.852 99.0524 570.849 103.434 570.849 108.501V111.668C570.849 116.736 572.011 121.223 574.333 125.129C576.656 129.035 579.929 132.044 584.152 134.155C588.375 136.267 593.231 137.322 598.721 137.322C603.471 137.322 607.747 136.583 611.548 135.105C615.348 133.627 618.727 131.305 621.683 128.138L632.293 140.331C628.492 144.765 623.689 148.196 617.882 150.625C612.181 152.947 605.636 154.109 598.246 154.109ZM698.126 154.109C689.257 154.109 681.339 152.261 674.372 148.566C667.509 144.765 662.125 139.592 658.219 133.047C654.313 126.501 652.36 119.058 652.36 110.718C652.36 102.272 654.313 94.8295 658.219 88.3895C662.125 81.844 667.509 76.7238 674.372 73.0287C681.339 69.3337 689.257 67.4861 698.126 67.4861C706.36 67.4861 713.592 69.1753 719.821 72.5536C726.155 75.8264 730.959 80.6827 734.231 87.1227L719.029 95.9908C716.495 91.979 713.381 89.023 709.686 87.1227C706.096 85.2224 702.19 84.2722 697.967 84.2722C693.111 84.2722 688.73 85.3279 684.823 87.4394C680.917 89.5508 677.856 92.6124 675.639 96.6242C673.422 100.53 672.313 105.228 672.313 110.718C672.313 116.208 673.422 120.959 675.639 124.97C677.856 128.877 680.917 131.885 684.823 133.997C688.73 136.108 693.111 137.164 697.967 137.164C702.19 137.164 706.096 136.214 709.686 134.314C713.381 132.413 716.495 129.457 719.029 125.446L734.231 134.314C730.959 140.648 726.155 145.557 719.821 149.041C713.592 152.419 706.36 154.109 698.126 154.109ZM788.904 154.109C780.035 154.109 772.118 152.261 765.15 148.566C758.287 144.765 752.903 139.592 748.997 133.047C745.091 126.501 743.138 119.058 743.138 110.718C743.138 102.272 745.091 94.8295 748.997 88.3895C752.903 81.844 758.287 76.7238 765.15 73.0287C772.118 69.3337 780.035 67.4861 788.904 67.4861C797.138 67.4861 804.37 69.1753 810.599 72.5536C816.933 75.8264 821.737 80.6827 825.009 87.1227L809.807 95.9908C807.273 91.979 804.159 89.023 800.464 87.1227C796.874 85.2224 792.968 84.2722 788.745 84.2722C783.889 84.2722 779.508 85.3279 775.601 87.4394C771.695 89.5508 768.634 92.6124 766.417 96.6242C764.2 100.53 763.091 105.228 763.091 110.718C763.091 116.208 764.2 120.959 766.417 124.97C768.634 128.877 771.695 131.885 775.601 133.997C779.508 136.108 783.889 137.164 788.745 137.164C792.968 137.164 796.874 136.214 800.464 134.314C804.159 132.413 807.273 129.457 809.807 125.446L825.009 134.314C821.737 140.648 816.933 145.557 810.599 149.041C804.37 152.419 797.138 154.109 788.904 154.109ZM893.746 153V135.897L892.637 132.255V102.325C892.637 96.5186 890.895 92.0318 887.412 88.8646C883.928 85.5919 878.649 83.9555 871.576 83.9555C866.825 83.9555 862.127 84.6945 857.482 86.1725C852.942 87.6505 849.089 89.7092 845.921 92.3485L838.162 77.9378C842.702 74.4539 848.086 71.8674 854.315 70.1783C860.649 68.3835 867.194 67.4861 873.951 67.4861C886.197 67.4861 895.646 70.4422 902.297 76.3543C909.054 82.1607 912.432 91.1872 912.432 103.434V153H893.746ZM867.142 154.109C860.807 154.109 855.265 153.053 850.514 150.941C845.763 148.724 842.068 145.715 839.429 141.915C836.895 138.009 835.628 133.627 835.628 128.771C835.628 124.02 836.737 119.745 838.954 115.944C841.276 112.143 845.024 109.135 850.197 106.918C855.37 104.701 862.232 103.592 870.784 103.592H895.329V116.736H872.209C865.452 116.736 860.913 117.844 858.59 120.061C856.268 122.173 855.106 124.812 855.106 127.979C855.106 131.569 856.532 134.419 859.382 136.531C862.232 138.642 866.191 139.698 871.259 139.698C876.115 139.698 880.444 138.589 884.244 136.372C888.151 134.155 890.948 130.883 892.637 126.554L895.963 138.431C894.063 143.393 890.632 147.246 885.67 149.991C880.813 152.736 874.637 154.109 867.142 154.109ZM936.927 153V68.4363H956.722V102.8H999.321V68.4363H1019.12V153H999.321V119.586H956.722V153H936.927ZM1084.13 154.109C1075.26 154.109 1067.34 152.261 1060.37 148.566C1053.51 144.765 1048.13 139.592 1044.22 133.047C1040.31 126.501 1038.36 119.058 1038.36 110.718C1038.36 102.272 1040.31 94.8295 1044.22 88.3895C1048.13 81.844 1053.51 76.7238 1060.37 73.0287C1067.34 69.3337 1075.26 67.4861 1084.13 67.4861C1092.36 67.4861 1099.59 69.1753 1105.82 72.5536C1112.16 75.8264 1116.96 80.6827 1120.23 87.1227L1105.03 95.9908C1102.5 91.979 1099.38 89.023 1095.69 87.1227C1092.1 85.2224 1088.19 84.2722 1083.97 84.2722C1079.11 84.2722 1074.73 85.3279 1070.82 87.4394C1066.92 89.5508 1063.86 92.6124 1061.64 96.6242C1059.42 100.53 1058.31 105.228 1058.31 110.718C1058.31 116.208 1059.42 120.959 1061.64 124.97C1063.86 128.877 1066.92 131.885 1070.82 133.997C1074.73 136.108 1079.11 137.164 1083.97 137.164C1088.19 137.164 1092.1 136.214 1095.69 134.314C1099.38 132.413 1102.5 129.457 1105.03 125.446L1120.23 134.314C1116.96 140.648 1112.16 145.557 1105.82 149.041C1099.59 152.419 1092.36 154.109 1084.13 154.109Z" fill="white"></path> <path d="M263.05 230L251.2 212.95L256.45 209.7L270.4 230H263.05ZM239.9 230V195H246.3V230H239.9ZM244.35 215.25V209.65H256.15V215.25H244.35ZM257.05 213.25L251.1 212.45L263.05 195H269.95L257.05 213.25ZM274.812 230V195H289.212C292.312 195 294.962 195.5 297.162 196.5C299.395 197.5 301.112 198.933 302.312 200.8C303.512 202.667 304.112 204.883 304.112 207.45C304.112 210.017 303.512 212.233 302.312 214.1C301.112 215.967 299.395 217.4 297.162 218.4C294.962 219.4 292.312 219.9 289.212 219.9H278.412L281.312 216.85V230H274.812ZM281.312 217.55L278.412 214.4H288.912C291.779 214.4 293.929 213.8 295.362 212.6C296.829 211.367 297.562 209.65 297.562 207.45C297.562 205.217 296.829 203.5 295.362 202.3C293.929 201.1 291.779 200.5 288.912 200.5H278.412L281.312 197.3V217.55ZM316.261 209.55H333.661V214.9H316.261V209.55ZM316.761 224.55H336.511V230H310.261V195H335.811V200.45H316.761V224.55ZM367.007 227V200.5H353.307L353.057 206.7C352.957 209.033 352.807 211.25 352.607 213.35C352.441 215.417 352.157 217.3 351.757 219C351.391 220.7 350.874 222.117 350.207 223.25C349.541 224.383 348.724 225.133 347.757 225.5L340.757 224.5C342.024 224.567 343.057 224.133 343.857 223.2C344.691 222.267 345.341 220.967 345.807 219.3C346.274 217.633 346.624 215.683 346.857 213.45C347.091 211.183 347.257 208.733 347.357 206.1L347.757 195H373.407V227H367.007ZM339.557 237.45L339.607 224.5H378.457V237.45H372.457V230H345.607V237.45H339.557ZM384.628 230V195H391.028V219.85L409.828 195H415.878V230H409.478V205.2L390.678 230H384.628ZM433.041 230V198.9L434.591 200.5H421.491V195H451.091V200.5H437.991L439.491 198.9V230H433.041Z" fill="white"></path> <path fill-rule="evenodd" clip-rule="evenodd" d="M32 253V136.295C32.018 135.807 32.0356 135.318 32.0533 134.828C32.5651 120.671 33.0963 105.977 40.7445 93.9715C47.6108 83.193 62.9374 71 103 71H153V127.893C150.018 148.773 143.909 158.136 133.68 163.688C122.796 169.595 104.808 172.666 73.973 172.046L57.8667 203.488C97.7988 205.475 127.857 203.258 148.945 191.812C172.172 179.206 181.282 157.536 184.855 131.147L185 130.078V129V55V39H169H103C56.0626 39 28.3892 53.807 13.7555 76.7785C1.20732 96.4763 0.504162 119.47 0.10497 132.523C0.0736227 133.548 0.0441494 134.512 0.0109625 135.408L0 135.704V136V253H32Z" fill="white"></path> </svg> 