<?xml version="1.0" encoding="UTF-8"?> <svg xmlns="http://www.w3.org/2000/svg" width="1425" height="193" viewBox="0 0 1425 193" fill="none"> <path d="M253.827 154.267C245.382 154.267 237.569 152.894 230.39 150.15C223.317 147.299 217.141 143.34 211.862 138.273C206.689 133.1 202.625 127.082 199.669 120.22C196.713 113.357 195.235 105.809 195.235 97.5744C195.235 89.3397 196.713 81.7912 199.669 74.929C202.625 68.0668 206.742 62.1019 212.021 57.0345C217.299 51.8614 223.475 47.9024 230.549 45.1575C237.728 42.3071 245.54 40.8818 253.986 40.8818C262.537 40.8818 270.402 42.3599 277.581 45.3159C284.866 48.1664 291.042 52.442 296.109 58.143L285.816 68.1196C281.593 63.6855 276.842 60.4128 271.564 58.3013C266.285 56.0843 260.637 54.9758 254.619 54.9758C248.391 54.9758 242.584 56.0315 237.2 58.143C231.921 60.2544 227.329 63.2105 223.423 67.0111C219.516 70.8117 216.455 75.3513 214.238 80.6299C212.126 85.803 211.071 91.4511 211.071 97.5744C211.071 103.698 212.126 109.398 214.238 114.677C216.455 119.85 219.516 124.337 223.423 128.138C227.329 131.938 231.921 134.894 237.2 137.006C242.584 139.117 248.391 140.173 254.619 140.173C260.637 140.173 266.285 139.117 271.564 137.006C276.842 134.789 281.593 131.41 285.816 126.871L296.109 136.847C291.042 142.548 284.866 146.877 277.581 149.833C270.402 152.789 262.484 154.267 253.827 154.267ZM365.49 154.267C357.045 154.267 349.179 152.842 341.895 149.991C334.716 147.141 328.487 143.182 323.209 138.114C317.93 132.941 313.813 126.924 310.857 120.061C307.9 113.199 306.422 105.703 306.422 97.5744C306.422 89.4453 307.9 81.9496 310.857 75.0874C313.813 68.2252 317.93 62.2603 323.209 57.1928C328.487 52.0198 334.716 48.008 341.895 45.1575C349.074 42.3071 356.939 40.8818 365.49 40.8818C373.936 40.8818 381.696 42.3071 388.769 45.1575C395.948 47.9024 402.177 51.8614 407.455 57.0345C412.84 62.1019 416.957 68.0668 419.807 74.929C422.764 81.7912 424.242 89.3397 424.242 97.5744C424.242 105.809 422.764 113.357 419.807 120.22C416.957 127.082 412.84 133.1 407.455 138.273C402.177 143.34 395.948 147.299 388.769 150.15C381.696 152.894 373.936 154.267 365.49 154.267ZM365.49 140.173C371.614 140.173 377.262 139.117 382.435 137.006C387.713 134.894 392.253 131.938 396.054 128.138C399.96 124.231 402.969 119.692 405.08 114.519C407.297 109.346 408.406 103.698 408.406 97.5744C408.406 91.4511 407.297 85.803 405.08 80.6299C402.969 75.4569 399.96 70.97 396.054 67.1694C392.253 63.2632 387.713 60.2544 382.435 58.143C377.262 56.0315 371.614 54.9758 365.49 54.9758C359.262 54.9758 353.508 56.0315 348.229 58.143C343.056 60.2544 338.517 63.2632 334.61 67.1694C330.704 70.97 327.643 75.4569 325.426 80.6299C323.314 85.803 322.258 91.4511 322.258 97.5744C322.258 103.698 323.314 109.346 325.426 114.519C327.643 119.692 330.704 124.231 334.61 128.138C338.517 131.938 343.056 134.894 348.229 137.006C353.508 139.117 359.262 140.173 365.49 140.173ZM449.841 153V42.1487H497.507C509.543 42.1487 518.991 44.5769 525.854 49.4332C532.716 54.2896 536.147 61.3629 536.147 70.6533C536.147 79.7326 532.874 86.7004 526.329 91.5567C519.783 96.3075 511.179 98.6829 500.516 98.6829L503.367 93.9321C515.719 93.9321 525.167 96.4131 531.713 101.375C538.364 106.231 541.689 113.357 541.689 122.753C541.689 132.255 538.206 139.698 531.238 145.082C524.376 150.361 514.135 153 500.516 153H449.841ZM465.519 140.49H500.199C508.645 140.49 514.98 138.959 519.203 135.897C523.531 132.73 525.695 127.926 525.695 121.487C525.695 115.047 523.531 110.349 519.203 107.393C514.98 104.437 508.645 102.959 500.199 102.959H465.519V140.49ZM465.519 90.9233H496.399C504.106 90.9233 509.965 89.3925 513.977 86.3309C518.094 83.2693 520.153 78.7824 520.153 72.8704C520.153 66.8527 518.094 62.3131 513.977 59.2515C509.965 56.1899 504.106 54.6591 496.399 54.6591H465.519V90.9233ZM642.734 153L602.51 98.3661L615.338 90.4482L660.787 153H642.734ZM568.147 153V42.1487H583.666V153H568.147ZM578.915 104.225V90.2898H614.862V104.225H578.915ZM616.763 99.3163L602.194 97.0993L641.942 42.1487H658.886L616.763 99.3163ZM726.592 154.267C718.146 154.267 710.281 152.842 702.997 149.991C695.818 147.141 689.589 143.182 684.31 138.114C679.032 132.941 674.914 126.924 671.958 120.061C669.002 113.199 667.524 105.703 667.524 97.5744C667.524 89.4453 669.002 81.9496 671.958 75.0874C674.914 68.2252 679.032 62.2603 684.31 57.1928C689.589 52.0198 695.818 48.008 702.997 45.1575C710.176 42.3071 718.041 40.8818 726.592 40.8818C735.038 40.8818 742.798 42.3071 749.871 45.1575C757.05 47.9024 763.279 51.8614 768.557 57.0345C773.941 62.1019 778.059 68.0668 780.909 74.929C783.865 81.7912 785.343 89.3397 785.343 97.5744C785.343 105.809 783.865 113.357 780.909 120.22C778.059 127.082 773.941 133.1 768.557 138.273C763.279 143.34 757.05 147.299 749.871 150.15C742.798 152.894 735.038 154.267 726.592 154.267ZM726.592 140.173C732.715 140.173 738.363 139.117 743.537 137.006C748.815 134.894 753.355 131.938 757.155 128.138C761.062 124.231 764.07 119.692 766.182 114.519C768.399 109.346 769.507 103.698 769.507 97.5744C769.507 91.4511 768.399 85.803 766.182 80.6299C764.07 75.4569 761.062 70.97 757.155 67.1694C753.355 63.2632 748.815 60.2544 743.537 58.143C738.363 56.0315 732.715 54.9758 726.592 54.9758C720.363 54.9758 714.61 56.0315 709.331 58.143C704.158 60.2544 699.618 63.2632 695.712 67.1694C691.806 70.97 688.744 75.4569 686.527 80.6299C684.416 85.803 683.36 91.4511 683.36 97.5744C683.36 103.698 684.416 109.346 686.527 114.519C688.744 119.692 691.806 124.231 695.712 128.138C699.618 131.938 704.158 134.894 709.331 137.006C714.61 139.117 720.363 140.173 726.592 140.173ZM810.943 153V42.1487H823.928L873.653 125.921H866.685L915.777 42.1487H928.762L928.92 153H913.718L913.56 66.0609H917.202L873.495 139.539H866.21L822.187 66.0609H826.145V153H810.943Z" fill="#FFFAFA"></path> <path d="M963.425 153V42.1487H1047.04V55.6092H979.103V87.281H1013.63C1026.82 87.281 1036.85 90.0259 1043.71 95.5157C1050.58 101.005 1054.01 108.976 1054.01 119.428C1054.01 130.196 1050.26 138.484 1042.76 144.29C1035.37 150.097 1024.76 153 1010.93 153H963.425ZM979.103 140.49H1010.3C1019.48 140.49 1026.4 138.748 1031.04 135.264C1035.8 131.78 1038.17 126.607 1038.17 119.745C1038.17 106.442 1028.88 99.7914 1010.3 99.7914H979.103V140.49ZM1063.9 153L1114.1 42.1487H1129.77L1180.13 153H1163.5L1118.69 51.0168H1125.02L1080.21 153H1063.9ZM1085.27 125.287L1089.55 112.618H1151.94L1156.54 125.287H1085.27ZM1278.76 42.1487H1294.59V153H1278.76V42.1487ZM1215.1 153H1199.26V42.1487H1215.1V153ZM1280.18 103.592H1213.52V89.8148H1280.18V103.592ZM1403.75 153L1363.53 98.3661L1376.36 90.4482L1421.81 153H1403.75ZM1329.17 153V42.1487H1344.69V153H1329.17ZM1339.94 104.225V90.2898H1375.88V104.225H1339.94ZM1377.78 99.3163L1363.21 97.0993L1402.96 42.1487H1419.91L1377.78 99.3163Z" fill="white"></path> <path fill-rule="evenodd" clip-rule="evenodd" d="M146 97C146 135.108 115.107 166 77 166V124H63.5C48.8643 124 37 112.136 37 97.5C37 82.8644 48.8643 71 63.5 71H77V28C115.107 28 146 58.8924 146 97Z" fill="#FFFAFA"></path> <path d="M69 166C50.7001 166 33.1496 158.73 20.2096 145.79C7.26962 132.85 -2.43439e-06 115.3 -3.01609e-06 97C-3.59778e-06 78.7001 7.26962 61.1496 20.2096 48.2096C33.1496 35.2696 50.7001 28 69 28L69 53.7944C57.5412 53.7944 46.5516 58.3464 38.449 66.449C30.3464 74.5516 25.7944 85.5412 25.7944 97C25.7944 108.459 30.3464 119.448 38.449 127.551C46.5516 135.654 57.5412 140.206 69 140.206L69 166Z" fill="white"></path> </svg> 