<?xml version="1.0" encoding="UTF-8"?> <svg xmlns="http://www.w3.org/2000/svg" width="980" height="507" viewBox="0 0 980 507" fill="none"> <path d="M496.654 334.005C489.186 334.005 482.628 332.617 476.979 329.84C471.426 326.968 467.117 323.043 464.053 318.064C460.989 312.989 459.457 307.053 459.457 300.255C459.457 291.638 461.42 283.978 465.346 277.276C469.271 270.478 474.633 265.165 481.431 261.335C488.325 257.409 496.176 255.446 504.984 255.446C512.548 255.446 519.107 256.835 524.66 259.611C530.309 262.292 534.665 266.17 537.729 271.244C540.793 276.223 542.325 282.159 542.325 289.053C542.325 297.574 540.362 305.234 536.437 312.032C532.511 318.83 527.101 324.191 520.208 328.117C513.41 332.043 505.559 334.005 496.654 334.005ZM497.803 318.638C502.974 318.638 507.522 317.441 511.447 315.048C515.373 312.558 518.484 309.159 520.782 304.851C523.08 300.542 524.229 295.564 524.229 289.915C524.229 283.978 522.458 279.287 518.915 275.84C515.373 272.393 510.394 270.67 503.979 270.67C498.904 270.67 494.357 271.915 490.335 274.404C486.41 276.798 483.298 280.149 481 284.457C478.702 288.766 477.553 293.744 477.553 299.393C477.553 305.425 479.325 310.165 482.867 313.612C486.41 316.963 491.388 318.638 497.803 318.638ZM565.273 333L578.199 267.223L581.502 271.532H550.624L553.64 256.308H625.593L622.433 271.532H591.125L596.151 267.223L583.226 333H565.273ZM623.248 333L638.615 256.308H712.147L696.78 333H678.828L691.754 267.367L695.057 271.532H648.955L654.126 267.367L641.2 333H623.248Z" fill="white"></path> <path d="M771.023 241.828L782.039 241.77C781.805 245.363 781.062 248.312 779.812 250.617C778.562 252.922 776.883 254.777 774.773 256.184C772.703 257.59 770.301 258.703 767.566 259.523C764.871 260.344 761.941 261.047 758.777 261.633C754.168 262.492 750.32 264.016 747.234 266.203C744.188 268.391 741.707 271.066 739.793 274.23C737.879 277.355 736.414 280.852 735.398 284.719C734.422 288.547 733.719 292.59 733.289 296.848L732.762 300.832L721.688 301.828L722.215 297.844C722.84 292.57 723.914 287.375 725.438 282.258C726.961 277.102 729.051 272.336 731.707 267.961C734.402 263.547 737.781 259.816 741.844 256.77C745.945 253.684 750.848 251.594 756.551 250.5C758.465 250.109 760.438 249.68 762.469 249.211C764.539 248.742 766.355 247.961 767.918 246.867C769.52 245.773 770.555 244.094 771.023 241.828ZM755.848 273.176C759.949 273.293 763.465 274.172 766.395 275.812C769.324 277.414 771.707 279.582 773.543 282.316C775.379 285.012 776.668 288.078 777.41 291.516C778.152 294.914 778.367 298.488 778.055 302.238L777.938 303.527C777.469 307.824 776.375 311.848 774.656 315.598C772.977 319.348 770.73 322.648 767.918 325.5C765.145 328.312 761.883 330.5 758.133 332.062C754.422 333.625 750.32 334.348 745.828 334.23C741.297 334.152 737.41 333.234 734.168 331.477C730.965 329.719 728.348 327.355 726.316 324.387C724.324 321.379 722.918 318 722.098 314.25C721.277 310.5 721.023 306.574 721.336 302.473L721.453 301.184C721.609 300.168 722 299.211 722.625 298.312C723.289 297.375 724.012 296.477 724.793 295.617C725.574 294.719 726.219 293.84 726.727 292.98C728.875 289.426 731.355 286.125 734.168 283.078C737.02 280.031 740.223 277.609 743.777 275.812C747.371 273.977 751.395 273.098 755.848 273.176ZM752.566 284.309C749.051 284.23 746.062 285.051 743.602 286.77C741.18 288.488 739.266 290.754 737.859 293.566C736.453 296.379 735.555 299.348 735.164 302.473L735.047 303.762C734.812 305.91 734.793 308.098 734.988 310.324C735.223 312.551 735.73 314.621 736.512 316.535C737.293 318.41 738.484 319.953 740.086 321.164C741.727 322.375 743.875 323 746.531 323.039C749.305 323.117 751.727 322.609 753.797 321.516C755.867 320.383 757.605 318.879 759.012 317.004C760.457 315.09 761.59 312.961 762.41 310.617C763.27 308.273 763.836 305.91 764.109 303.527L764.227 302.238C764.422 300.129 764.383 298.02 764.109 295.91C763.875 293.801 763.328 291.906 762.469 290.227C761.609 288.508 760.359 287.121 758.719 286.066C757.117 284.973 755.066 284.387 752.566 284.309ZM820.477 320.285L825.281 289.875C825.516 287.844 825.379 286.008 824.871 284.367C824.363 282.727 823.426 281.438 822.059 280.5C820.73 279.523 818.973 279.016 816.785 278.977C814.832 278.938 812.996 279.27 811.277 279.973C809.559 280.637 808.094 281.633 806.883 282.961C805.711 284.289 804.93 285.91 804.539 287.824L790.77 287.883C791.004 284.562 791.98 281.672 793.699 279.211C795.457 276.711 797.664 274.66 800.32 273.059C803.016 271.418 805.906 270.227 808.992 269.484C812.117 268.703 815.164 268.332 818.133 268.371C822.43 268.449 826.238 269.367 829.559 271.125C832.879 272.883 835.398 275.363 837.117 278.566C838.875 281.77 839.539 285.637 839.109 290.168L834.48 318.41C834.129 320.637 833.875 322.922 833.719 325.266C833.602 327.57 833.914 329.797 834.656 331.945L834.539 333L820.887 333.059C820.301 330.988 820.008 328.879 820.008 326.73C820.008 324.543 820.164 322.395 820.477 320.285ZM826.863 294.445L825.457 303.176L816.316 303.117C814.441 303.117 812.508 303.293 810.516 303.645C808.562 303.996 806.727 304.602 805.008 305.461C803.289 306.32 801.844 307.492 800.672 308.977C799.5 310.422 798.777 312.238 798.504 314.426C798.309 316.184 798.504 317.707 799.09 318.996C799.715 320.246 800.652 321.242 801.902 321.984C803.152 322.727 804.637 323.117 806.355 323.156C808.66 323.195 810.926 322.746 813.152 321.809C815.418 320.871 817.371 319.543 819.012 317.824C820.691 316.066 821.844 314.055 822.469 311.789L826.16 318.117C825.301 320.5 824.09 322.688 822.527 324.68C821.004 326.672 819.227 328.391 817.195 329.836C815.164 331.281 812.938 332.395 810.516 333.176C808.133 333.957 805.672 334.328 803.133 334.289C799.617 334.211 796.414 333.41 793.523 331.887C790.633 330.324 788.348 328.156 786.668 325.383C784.988 322.609 784.246 319.406 784.441 315.773C784.637 311.672 785.672 308.254 787.547 305.52C789.461 302.746 791.902 300.559 794.871 298.957C797.879 297.316 801.16 296.145 804.715 295.441C808.27 294.738 811.785 294.387 815.262 294.387L826.863 294.445ZM894.773 296.086L892.84 307.219H860.848L862.84 296.086H894.773ZM871.453 269.602L860.438 333H846.668L857.684 269.602H871.453ZM909.246 269.602L898.23 333H884.402L895.418 269.602H909.246ZM938.602 269.602L927.645 333H913.875L924.891 269.602H938.602ZM979.266 269.602L944.93 307.746H928.875L929.285 294.973H940.184L961.16 269.602H979.266ZM952.137 333L938.074 304.816L949.676 297.258L969.422 333H952.137Z" fill="white"></path> <circle cx="261" cy="246" r="74" fill="white"></circle> <path d="M435.205 244.051C437.021 280.809 427.674 317.256 408.392 348.603C389.11 379.95 360.795 404.73 327.169 419.687C293.543 434.644 256.178 439.078 219.985 432.405C183.792 425.733 150.465 408.267 124.382 382.303C98.3 356.339 80.6829 323.091 73.8462 286.929C67.0095 250.767 71.2731 213.383 86.0768 179.689C100.88 145.995 125.532 117.568 156.791 98.1435C188.05 78.7191 224.454 69.2061 261.22 70.8548L258.207 138.039C234.999 136.998 212.018 143.003 192.286 155.265C172.554 167.527 156.993 185.471 147.648 206.741C138.303 228.01 135.612 251.609 139.927 274.436C144.243 297.264 155.364 318.251 171.828 334.641C188.293 351.031 209.331 362.056 232.178 366.268C255.024 370.48 278.611 367.681 299.837 358.24C321.064 348.798 338.938 333.156 351.11 313.368C363.281 293.58 369.182 270.573 368.036 247.369L435.205 244.051Z" fill="white"></path> <circle cx="357" cy="151" r="43" fill="white"></circle> </svg> 